{"glyphs":{"0":{"ha":997,"x_min":50,"x_max":939,"o":"m 689 793 l 644 683 l 615 615 l 597 572 l 583 544 l 564 533 l 551 543 l 551 550 l 554 625 l 582 710 l 579 708 l 567 713 l 551 717 l 533 739 l 531 750 l 528 768 l 535 797 l 576 900 l 600 946 l 610 958 l 635 974 l 656 971 l 671 963 l 683 943 l 683 928 l 675 894 l 679 897 l 703 890 l 708 872 l 707 846 l 689 793 m 561 901 l 528 813 l 494 743 l 422 647 l 408 558 l 396 501 l 358 406 l 297 258 l 261 169 l 233 110 l 224 94 l 197 81 l 190 83 l 171 90 l 161 103 l 153 115 l 151 128 l 151 158 l 167 204 l 165 200 l 153 190 l 154 203 l 161 232 l 215 363 l 393 790 l 436 896 l 449 919 l 453 929 l 467 924 l 486 951 l 497 961 l 519 967 l 526 968 l 543 963 l 557 953 l 567 932 l 561 901 m 361 892 l 357 883 l 383 940 l 393 953 l 407 961 l 418 968 l 429 963 l 443 956 l 443 936 l 422 865 l 210 353 l 157 231 l 149 214 l 132 203 l 122 196 l 114 203 l 100 214 l 99 222 l 97 244 l 111 294 l 121 318 l 104 299 l 94 303 l 85 307 l 83 319 l 88 354 l 133 467 l 289 843 l 332 933 l 357 956 l 365 949 l 374 940 l 371 929 l 361 892 m 271 824 l 121 461 l 85 379 l 71 365 l 51 371 l 51 378 l 50 397 l 54 419 l 74 485 l 89 522 l 89 522 l 88 529 l 83 547 l 86 631 l 126 793 l 171 869 l 213 911 l 228 922 l 250 925 l 264 911 l 264 910 l 271 917 l 285 910 l 296 904 l 293 886 l 271 824 m 857 715 l 769 503 l 621 144 l 583 53 l 560 7 l 542 -12 l 522 -18 l 511 -22 l 501 -17 l 485 -8 l 482 3 l 481 31 l 481 31 l 468 21 l 458 15 l 442 17 l 429 17 l 422 26 l 413 39 l 413 50 l 415 76 l 451 169 l 490 242 l 567 319 l 586 422 l 603 526 l 671 697 l 711 796 l 736 854 l 764 889 l 775 899 l 797 896 l 810 889 l 822 869 l 822 851 l 808 804 l 811 807 l 824 807 l 839 807 l 849 796 l 858 783 l 861 768 l 857 715 m 867 476 l 729 146 l 696 68 l 683 43 l 683 51 l 683 65 l 667 33 l 653 21 l 636 15 l 624 13 l 600 28 l 600 36 l 599 57 l 617 106 l 651 190 l 824 607 l 865 706 l 888 739 l 899 735 l 913 726 l 918 713 l 915 611 l 892 551 l 892 543 l 885 521 l 867 476 m 939 460 l 928 344 l 894 254 l 906 269 l 904 261 l 903 239 l 878 178 l 867 163 l 858 171 l 833 119 l 760 57 l 746 51 l 731 56 l 718 60 l 718 68 l 721 92 l 754 176 l 872 460 l 903 531 l 918 549 l 935 540 l 938 522 l 939 460 m 415 132 l 376 40 l 360 11 l 353 3 l 333 -1 l 321 3 l 308 17 l 308 36 l 317 63 l 300 58 l 289 56 l 279 61 l 264 71 l 261 78 l 256 101 l 258 121 l 288 201 l 369 399 l 388 443 l 400 465 l 418 478 l 428 467 l 432 444 l 433 392 l 429 304 l 404 240 l 413 242 l 425 238 l 439 219 l 438 200 l 415 132 z "},"1":{"ha":774,"x_min":72,"x_max":706,"o":"m 669 825 l 594 628 l 465 317 l 381 111 l 363 75 l 356 63 l 338 64 l 335 75 l 329 117 l 340 269 l 368 346 l 374 360 l 367 360 l 367 371 l 365 397 l 374 504 l 390 553 l 421 628 l 510 843 l 546 928 l 565 958 l 572 967 l 594 975 l 601 978 l 615 971 l 625 967 l 628 951 l 631 938 l 626 925 l 640 928 l 653 924 l 669 906 l 672 888 l 669 825 m 500 858 l 421 667 l 397 610 l 388 589 l 385 588 l 364 539 l 350 518 l 354 538 l 372 582 l 371 581 l 364 578 l 353 583 l 338 590 l 328 606 l 321 615 l 325 636 l 349 700 l 426 888 l 467 951 l 478 963 l 500 964 l 513 958 l 525 943 l 524 925 l 500 858 m 407 864 l 297 604 l 269 557 l 256 546 l 236 547 l 238 556 l 238 558 l 229 540 l 217 529 l 214 547 l 218 571 l 239 622 l 338 861 l 368 917 l 379 924 l 382 914 l 390 928 l 408 935 l 417 938 l 418 929 l 422 910 l 418 899 l 407 864 m 346 897 l 294 771 l 214 576 l 194 532 l 188 519 l 175 511 l 163 503 l 147 507 l 133 510 l 125 524 l 118 538 l 118 551 l 129 606 l 129 606 l 121 597 l 110 600 l 86 608 l 74 625 l 72 683 l 165 810 l 197 831 l 208 836 l 213 828 l 219 810 l 247 864 l 297 908 l 324 922 l 339 925 l 346 928 l 346 919 l 346 897 m 674 681 l 478 208 l 429 93 l 418 76 l 415 69 l 413 67 l 413 67 l 406 58 l 394 64 l 385 69 l 386 78 l 393 100 l 443 224 l 618 643 l 661 750 l 686 778 l 696 772 l 694 757 l 674 681 m 678 407 l 672 351 l 617 203 l 551 49 l 517 3 l 499 -4 l 490 -7 l 476 0 l 465 6 l 464 13 l 460 33 l 461 44 l 464 51 l 443 39 l 435 35 l 431 46 l 426 60 l 431 74 l 475 183 l 624 542 l 660 631 l 679 658 l 692 650 l 693 632 l 671 532 l 663 513 l 671 519 l 672 513 l 678 494 l 679 469 l 678 407 m 654 149 l 635 100 l 610 47 l 593 38 l 593 50 l 592 57 l 579 46 l 579 56 l 578 71 l 588 94 l 653 253 l 672 300 l 686 311 l 696 304 l 693 290 l 664 211 l 669 217 l 671 206 l 654 149 m 703 75 l 694 51 l 683 39 l 675 31 l 656 32 l 649 32 l 646 40 l 638 57 l 642 79 l 674 161 l 701 178 l 706 161 l 703 75 z "},"2":{"ha":978,"x_min":15,"x_max":919,"o":"m 650 853 l 371 179 l 338 97 l 300 21 l 278 0 l 268 -7 l 253 -10 l 239 -11 l 229 -6 l 213 6 l 211 15 l 207 33 l 210 44 l 207 40 l 194 44 l 179 49 l 181 57 l 181 72 l 207 146 l 304 378 l 343 439 l 357 451 l 368 449 l 379 446 l 379 446 l 392 469 l 504 607 l 508 665 l 499 725 l 503 742 l 494 735 l 457 711 l 442 693 l 425 665 l 429 681 l 454 742 l 540 950 l 556 979 l 563 989 l 576 992 l 596 990 l 603 964 l 597 950 l 593 939 l 615 946 l 622 947 l 638 942 l 650 938 l 657 924 l 664 914 l 663 899 l 650 853 m 503 885 l 447 749 l 413 671 l 396 647 l 382 640 l 369 633 l 360 644 l 351 653 l 354 669 l 343 660 l 325 660 l 317 660 l 314 667 l 308 686 l 313 704 l 333 758 l 399 915 l 431 971 l 440 982 l 461 988 l 472 982 l 482 965 l 479 954 l 499 963 l 508 958 l 518 938 l 515 924 l 503 885 m 765 796 l 518 197 l 458 58 l 447 35 l 436 29 l 425 24 l 426 35 l 429 43 l 419 35 l 403 31 l 392 28 l 375 33 l 364 38 l 358 53 l 353 67 l 356 78 l 361 100 l 422 251 l 629 750 l 683 881 l 710 929 l 718 940 l 738 947 l 744 950 l 763 944 l 776 935 l 789 915 l 789 901 l 775 839 l 774 833 l 776 831 l 774 824 l 765 796 m 343 861 l 290 732 l 242 624 l 226 607 l 219 599 l 204 594 l 190 590 l 179 600 l 167 610 l 168 625 l 174 647 l 160 646 l 144 644 l 138 653 l 126 664 l 126 676 l 135 717 l 175 817 l 232 919 l 258 942 l 268 947 l 283 949 l 299 950 l 301 939 l 307 925 l 307 924 l 313 926 l 328 926 l 340 926 l 344 915 l 353 901 l 350 890 l 343 861 m 656 143 l 618 54 l 600 22 l 594 14 l 576 4 l 567 4 l 554 19 l 556 28 l 556 29 l 554 28 l 543 18 l 525 13 l 515 10 l 499 14 l 488 18 l 482 29 l 474 43 l 475 54 l 481 76 l 540 224 l 717 647 l 769 778 l 789 821 l 797 839 l 822 858 l 832 854 l 854 840 l 867 821 l 868 761 l 843 697 l 858 696 l 864 681 l 863 654 l 847 604 l 810 515 l 769 433 l 749 408 l 740 400 l 729 400 l 719 403 l 683 356 l 657 329 l 647 318 l 646 306 l 644 289 l 650 258 l 642 225 l 642 226 l 657 233 l 674 225 l 674 214 l 675 196 l 656 143 m 149 790 l 121 721 l 104 683 l 86 658 l 76 663 l 65 667 l 67 674 l 67 697 l 85 746 l 128 831 l 149 851 l 157 850 l 165 849 l 164 838 l 149 790 m 889 565 l 868 542 l 858 540 l 861 547 l 865 565 l 897 640 l 918 664 l 919 643 l 915 622 l 889 565 m 276 342 l 168 78 l 143 33 l 135 21 l 122 21 l 107 19 l 101 35 l 99 47 l 103 64 l 106 72 l 93 65 l 82 75 l 74 82 l 74 97 l 81 142 l 108 217 l 153 301 l 186 331 l 199 339 l 207 331 l 214 324 l 225 344 l 246 367 l 265 371 l 274 372 l 275 364 l 276 342 m 807 144 l 768 54 l 750 25 l 743 17 l 724 11 l 714 13 l 704 29 l 706 38 l 708 53 l 706 51 l 694 49 l 686 56 l 675 65 l 675 74 l 674 94 l 689 140 l 722 222 l 747 272 l 756 285 l 781 301 l 799 299 l 810 297 l 813 286 l 818 268 l 811 246 l 817 246 l 825 246 l 826 239 l 833 221 l 829 204 l 807 144 m 901 72 l 878 21 l 865 13 l 854 3 l 842 4 l 825 6 l 821 17 l 815 32 l 819 49 l 813 49 l 800 50 l 800 61 l 800 79 l 808 100 l 846 193 l 863 231 l 869 244 l 897 258 l 910 244 l 907 235 l 897 206 l 892 194 l 907 192 l 910 171 l 901 72 m 60 190 l 39 132 l 29 115 l 24 125 l 15 138 l 18 156 l 29 183 l 35 194 l 43 194 l 60 190 z "},"3":{"ha":985,"x_min":18,"x_max":926,"o":"m 508 821 l 469 731 l 450 701 l 443 693 l 421 686 l 410 692 l 399 708 l 400 715 l 406 738 l 411 750 l 407 750 l 393 757 l 382 763 l 379 774 l 375 790 l 382 819 l 421 914 l 456 981 l 479 999 l 499 1001 l 510 1004 l 522 996 l 536 989 l 538 972 l 521 908 l 521 907 l 528 904 l 528 885 l 508 821 m 725 819 l 621 569 l 565 436 l 526 378 l 515 369 l 503 368 l 486 367 l 465 383 l 463 394 l 465 425 l 467 428 l 458 428 l 449 426 l 442 436 l 433 450 l 438 465 l 475 565 l 578 815 l 613 897 l 636 944 l 656 965 l 671 969 l 683 972 l 693 960 l 700 950 l 697 936 l 694 926 l 706 931 l 713 933 l 728 929 l 740 925 l 743 918 l 750 897 l 746 879 l 725 819 m 240 883 l 203 794 l 189 764 l 181 751 l 171 744 l 169 743 l 169 744 l 154 733 l 143 739 l 129 744 l 128 751 l 122 774 l 125 788 l 138 831 l 179 925 l 200 951 l 207 960 l 229 965 l 242 961 l 256 947 l 254 932 l 240 883 m 361 868 l 322 772 l 290 710 l 253 686 l 239 682 l 224 685 l 210 689 l 204 699 l 197 717 l 203 746 l 206 754 l 196 761 l 199 772 l 207 801 l 254 910 l 264 926 l 278 933 l 289 939 l 288 928 l 286 919 l 296 931 l 315 938 l 326 942 l 342 939 l 356 936 l 361 925 l 369 907 l 368 894 l 361 868 m 97 924 l 117 939 l 128 935 l 142 931 l 144 924 l 149 904 l 143 883 l 117 818 l 106 794 l 88 792 l 85 799 l 78 818 l 78 840 l 85 906 l 97 924 m 861 868 l 826 747 l 790 676 l 746 631 l 726 611 l 718 589 l 714 582 l 718 567 l 725 521 l 719 492 l 675 382 l 588 174 l 550 82 l 518 15 l 486 -15 l 469 -17 l 454 -19 l 444 -12 l 429 -1 l 426 10 l 424 28 l 428 42 l 456 118 l 497 208 l 550 296 l 569 385 l 590 442 l 735 793 l 776 888 l 796 918 l 803 928 l 822 933 l 836 931 l 853 918 l 856 907 l 861 868 m 581 857 l 458 564 l 429 492 l 411 451 l 388 429 l 378 432 l 379 440 l 382 457 l 390 482 l 411 532 l 529 817 l 554 878 l 568 904 l 588 921 l 590 915 l 594 925 l 593 918 l 592 913 l 592 910 l 596 899 l 592 889 l 581 857 m 849 757 l 856 778 l 876 801 l 886 785 l 883 774 l 881 757 l 869 746 l 860 740 l 849 757 m 406 579 l 358 460 l 332 406 l 324 393 l 299 376 l 285 383 l 274 390 l 275 397 l 275 419 l 299 482 l 317 521 l 315 532 l 326 601 l 344 625 l 364 642 l 379 644 l 392 647 l 394 639 l 399 621 l 397 615 l 401 613 l 411 606 l 410 597 l 406 579 m 797 458 l 654 113 l 631 68 l 628 61 l 622 50 l 618 44 l 600 28 l 579 21 l 571 29 l 560 42 l 561 57 l 597 156 l 703 411 l 738 493 l 758 533 l 782 551 l 797 546 l 810 542 l 811 526 l 814 511 l 811 497 l 797 458 m 847 321 l 783 167 l 740 69 l 713 29 l 700 24 l 686 17 l 675 29 l 668 39 l 669 50 l 667 46 l 653 47 l 646 49 l 646 56 l 649 71 l 660 103 l 681 154 l 782 400 l 813 468 l 825 486 l 847 486 l 849 479 l 850 463 l 844 442 l 840 431 l 849 435 l 857 428 l 868 417 l 868 406 l 869 386 l 847 321 m 882 272 l 846 188 l 824 133 l 807 100 l 796 85 l 774 74 l 765 90 l 769 108 l 786 153 l 846 296 l 869 346 l 878 353 l 878 356 l 888 367 l 885 358 l 900 350 l 900 340 l 882 272 m 246 188 l 208 99 l 193 69 l 185 56 l 158 42 l 150 49 l 139 57 l 139 65 l 138 86 l 153 132 l 163 154 l 160 154 l 150 167 l 142 176 l 139 189 l 136 206 l 150 263 l 189 324 l 201 333 l 225 338 l 232 339 l 249 331 l 258 325 l 260 317 l 264 296 l 260 282 l 247 247 l 247 247 l 256 233 l 254 222 l 246 188 m 896 178 l 883 156 l 864 135 l 851 140 l 851 143 l 849 139 l 847 146 l 854 174 l 897 276 l 904 293 l 917 303 l 926 311 l 922 300 l 910 267 l 903 249 l 903 250 l 914 247 l 913 235 l 896 178 m 442 138 l 394 25 l 369 -8 l 363 -17 l 340 -24 l 333 -26 l 319 -19 l 308 -14 l 306 -1 l 300 14 l 307 44 l 310 53 l 292 57 l 288 71 l 283 85 l 286 100 l 299 142 l 338 233 l 356 265 l 361 274 l 381 282 l 393 281 l 408 268 l 408 251 l 399 215 l 407 219 l 425 218 l 436 217 l 446 204 l 453 194 l 453 182 l 442 138 m 293 164 l 275 121 l 258 88 l 247 78 l 235 69 l 233 78 l 232 97 l 249 140 l 281 218 l 299 251 l 308 258 l 314 251 l 315 256 l 324 268 l 321 261 l 317 249 l 322 243 l 317 226 l 293 164 m 29 251 l 50 268 l 61 267 l 81 264 l 88 249 l 93 238 l 90 226 l 79 194 l 72 181 l 54 175 l 40 176 l 26 189 l 22 201 l 18 217 l 29 251 z "},"4":{"ha":1021,"x_min":38,"x_max":982,"o":"m 451 315 l 451 314 l 417 233 l 406 210 l 393 197 l 383 194 l 379 190 l 356 186 l 349 185 l 333 196 l 325 201 l 324 217 l 331 258 l 371 358 l 408 418 l 435 432 l 451 431 l 464 429 l 468 422 l 471 417 l 525 547 l 521 550 l 519 558 l 517 581 l 499 606 l 483 617 l 485 624 l 489 638 l 514 703 l 588 881 l 625 954 l 638 968 l 658 979 l 665 982 l 685 978 l 693 975 l 696 968 l 706 950 l 704 939 l 690 890 l 663 824 l 651 797 l 482 390 l 451 317 l 451 315 m 546 822 l 478 657 l 433 553 l 376 449 l 342 329 l 290 210 l 268 183 l 258 176 l 249 183 l 239 190 l 240 197 l 246 219 l 254 240 l 225 185 l 206 171 l 194 165 l 178 168 l 165 169 l 160 179 l 151 193 l 153 204 l 157 226 l 215 369 l 371 746 l 419 865 l 451 932 l 486 960 l 499 965 l 518 960 l 529 951 l 539 931 l 535 914 l 529 897 l 536 911 l 547 926 l 561 928 l 572 929 l 574 921 l 575 906 l 571 883 l 546 822 m 783 792 l 572 283 l 524 164 l 511 140 l 496 142 l 488 142 l 485 153 l 481 172 l 483 190 l 497 236 l 482 204 l 460 183 l 446 183 l 435 183 l 431 194 l 425 210 l 431 235 l 449 283 l 486 372 l 656 782 l 706 901 l 726 932 l 735 944 l 757 953 l 768 949 l 781 933 l 779 922 l 767 883 l 765 882 l 776 899 l 783 908 l 804 910 l 807 901 l 811 882 l 808 863 l 783 792 m 340 815 l 379 865 l 392 883 l 414 883 l 413 876 l 406 847 l 363 742 l 178 297 l 135 200 l 119 179 l 99 167 l 92 163 l 76 167 l 65 169 l 60 181 l 51 194 l 56 217 l 67 249 l 63 247 l 60 254 l 53 276 l 54 296 l 74 385 l 172 588 l 207 633 l 224 654 l 239 661 l 251 689 l 340 815 m 813 483 l 817 396 l 775 281 l 700 100 l 643 8 l 631 0 l 615 -1 l 601 -4 l 579 7 l 572 11 l 572 18 l 569 42 l 572 49 l 564 40 l 549 38 l 536 33 l 526 40 l 514 50 l 511 61 l 508 86 l 553 215 l 742 672 l 788 782 l 803 807 l 813 815 l 829 804 l 831 786 l 831 722 l 821 638 l 793 564 l 804 572 l 808 557 l 813 483 m 69 453 l 83 456 l 81 440 l 60 392 l 49 381 l 38 390 l 40 397 l 69 453 m 947 239 l 921 178 l 908 163 l 889 161 l 881 161 l 881 168 l 878 179 l 856 149 l 836 75 l 831 61 l 811 38 l 793 32 l 782 28 l 761 32 l 751 42 l 743 63 l 746 72 l 754 100 l 781 165 l 849 329 l 888 417 l 907 440 l 925 447 l 936 451 l 958 446 l 969 439 l 982 413 l 979 385 l 954 321 l 956 313 l 947 239 m 824 310 l 782 208 l 753 140 l 732 89 l 722 68 l 704 63 l 708 72 l 714 85 l 708 83 l 713 94 l 731 139 l 810 329 l 838 389 l 847 401 l 847 388 l 843 375 l 843 365 l 824 310 z "},"5":{"ha":958,"x_min":21,"x_max":918,"o":"m 608 793 l 578 722 l 565 700 l 558 690 l 540 686 l 532 692 l 525 708 l 535 738 l 539 749 l 526 754 l 515 760 l 513 772 l 508 788 l 515 817 l 554 913 l 589 978 l 613 996 l 632 1000 l 643 1001 l 656 994 l 669 986 l 671 971 l 654 906 l 631 847 l 629 844 l 608 793 m 489 851 l 432 719 l 383 642 l 363 556 l 329 465 l 281 385 l 268 376 l 251 378 l 239 379 l 235 390 l 226 406 l 229 419 l 235 435 l 217 433 l 201 444 l 200 456 l 201 483 l 235 569 l 364 879 l 396 946 l 411 967 l 429 979 l 450 976 l 458 975 l 460 967 l 467 947 l 463 931 l 461 925 l 461 925 l 474 931 l 488 924 l 497 919 l 500 904 l 501 890 l 489 851 m 786 778 l 758 718 l 749 701 l 722 686 l 704 689 l 692 692 l 689 699 l 682 721 l 685 735 l 686 739 l 676 735 l 661 740 l 651 744 l 649 757 l 646 774 l 654 801 l 696 904 l 719 950 l 728 961 l 753 978 l 768 976 l 781 975 l 785 967 l 793 949 l 790 931 l 785 915 l 786 917 l 797 913 l 813 890 l 814 864 l 786 778 m 247 856 l 138 593 l 119 549 l 110 529 l 96 519 l 88 536 l 88 563 l 94 621 l 111 717 l 149 811 l 140 815 l 142 824 l 144 839 l 165 904 l 179 931 l 192 933 l 203 933 l 201 921 l 210 931 l 231 940 l 238 943 l 250 935 l 261 929 l 261 914 l 263 899 l 247 856 m 285 826 l 149 499 l 124 442 l 113 422 l 89 411 l 88 418 l 86 440 l 121 531 l 233 800 l 267 878 l 281 900 l 282 900 l 289 918 l 306 936 l 304 919 l 296 900 l 306 900 l 304 885 l 285 826 m 332 825 l 272 682 l 235 589 l 193 490 l 183 474 l 172 476 l 164 463 l 167 471 l 168 476 l 167 476 l 174 496 l 200 561 l 311 831 l 349 915 l 371 932 l 369 925 l 365 910 l 332 825 m 860 761 l 833 749 l 819 761 l 821 772 l 844 838 l 868 850 l 869 843 l 871 825 l 871 799 l 860 761 m 488 499 l 461 442 l 444 418 l 428 404 l 418 413 l 410 421 l 413 436 l 414 442 l 400 446 l 390 449 l 386 460 l 381 475 l 385 504 l 410 565 l 449 638 l 486 663 l 500 668 l 511 667 l 528 665 l 532 654 l 538 640 l 529 607 l 501 540 l 488 499 m 653 454 l 483 47 l 446 -15 l 435 -26 l 413 -31 l 400 -26 l 388 -14 l 386 -1 l 390 26 l 379 25 l 367 25 l 358 36 l 349 47 l 351 63 l 364 101 l 408 210 l 431 253 l 439 265 l 465 278 l 483 272 l 493 268 l 500 250 l 500 250 l 521 281 l 536 368 l 567 450 l 558 450 l 546 456 l 533 475 l 533 490 l 543 533 l 572 601 l 596 639 l 622 656 l 644 650 l 651 649 l 654 642 l 660 619 l 657 608 l 649 583 l 654 583 l 668 579 l 682 564 l 682 557 l 682 535 l 676 517 l 653 454 m 874 308 l 815 165 l 768 68 l 736 38 l 724 29 l 703 29 l 694 29 l 693 38 l 688 58 l 693 76 l 690 71 l 664 28 l 653 17 l 632 13 l 619 15 l 604 32 l 607 44 l 600 33 l 589 24 l 575 18 l 560 13 l 543 17 l 532 21 l 528 31 l 522 49 l 525 64 l 560 160 l 688 468 l 725 557 l 743 585 l 749 594 l 776 606 l 794 599 l 810 588 l 819 568 l 818 553 l 807 510 l 817 517 l 831 510 l 842 504 l 846 490 l 850 476 l 849 461 l 833 415 l 825 394 l 836 413 l 842 414 l 849 431 l 858 447 l 854 429 l 849 417 l 856 419 l 869 415 l 882 400 l 885 385 l 874 308 m 322 103 l 285 19 l 272 0 l 261 -3 l 247 -7 l 244 6 l 240 21 l 249 49 l 260 76 l 253 78 l 246 85 l 232 99 l 232 111 l 232 131 l 239 151 l 283 261 l 315 329 l 329 347 l 356 360 l 374 360 l 390 354 l 406 333 l 404 319 l 388 263 l 349 168 l 344 157 l 322 103 m 213 185 l 171 92 l 150 71 l 140 64 l 133 67 l 113 74 l 106 92 l 125 176 l 114 182 l 101 201 l 100 219 l 119 286 l 147 322 l 157 331 l 179 331 l 186 331 l 189 324 l 199 303 l 194 283 l 194 282 l 214 279 l 225 272 l 233 251 l 231 238 l 213 185 m 904 260 l 904 258 l 869 158 l 853 133 l 846 124 l 850 135 l 858 154 l 839 132 l 829 138 l 821 144 l 824 154 l 833 182 l 879 292 l 897 324 l 906 329 l 911 319 l 918 310 l 915 299 l 908 272 l 914 286 l 906 260 l 904 260 m 92 274 l 94 288 l 100 294 l 104 288 l 92 274 m 21 247 l 31 267 l 32 258 l 33 240 l 21 247 z "},"6":{"ha":961,"x_min":36,"x_max":914,"o":"m 558 832 l 317 253 l 260 115 l 243 86 l 236 78 l 232 88 l 228 99 l 229 106 l 221 101 l 210 97 l 199 107 l 188 117 l 188 128 l 188 154 l 249 313 l 443 779 l 494 903 l 522 950 l 532 961 l 554 969 l 568 967 l 582 951 l 581 932 l 574 910 l 576 911 l 583 897 l 576 881 l 558 832 m 458 865 l 254 369 l 172 175 l 156 143 l 147 133 l 132 132 l 135 143 l 140 164 l 139 161 l 124 158 l 113 156 l 104 164 l 92 174 l 90 185 l 88 213 l 140 360 l 290 721 l 339 840 l 374 914 l 403 946 l 415 956 l 431 957 l 446 958 l 453 950 l 461 938 l 460 925 l 454 900 l 465 903 l 464 894 l 458 865 m 547 533 l 519 474 l 507 456 l 488 443 l 486 451 l 483 469 l 513 550 l 544 613 l 553 618 l 554 619 l 622 786 l 617 792 l 619 799 l 624 814 l 649 875 l 665 899 l 672 903 l 681 919 l 694 933 l 693 918 l 686 899 l 686 890 l 688 879 l 682 865 l 663 825 l 643 797 l 610 722 l 575 632 l 568 614 l 574 610 l 568 590 l 547 533 m 322 140 l 279 46 l 274 36 l 258 32 l 251 33 l 253 44 l 264 83 l 274 106 l 274 106 l 281 131 l 342 278 l 551 782 l 601 901 l 618 928 l 628 931 l 632 914 l 625 896 l 626 883 l 621 863 l 601 814 l 478 517 l 446 453 l 435 444 l 406 383 l 364 263 l 347 224 l 350 217 l 347 206 l 339 182 l 322 140 m 319 851 l 336 863 l 333 851 l 324 822 l 272 696 l 135 365 l 107 297 l 86 254 l 72 236 l 61 233 l 50 232 l 46 243 l 39 258 l 42 275 l 61 332 l 38 335 l 36 350 l 51 425 l 138 613 l 183 672 l 199 681 l 206 683 l 224 725 l 279 804 l 319 851 m 726 547 l 540 100 l 507 26 l 490 6 l 468 -7 l 453 0 l 442 6 l 440 18 l 442 49 l 443 53 l 435 50 l 422 53 l 408 65 l 407 82 l 425 150 l 467 244 l 488 271 l 494 278 l 517 285 l 529 281 l 539 271 l 560 307 l 583 392 l 608 454 l 600 460 l 586 468 l 582 483 l 603 579 l 649 676 l 672 696 l 689 697 l 707 686 l 710 668 l 699 633 l 711 632 l 724 631 l 731 619 l 739 607 l 738 592 l 726 547 m 792 429 l 650 89 l 628 42 l 610 22 l 588 15 l 572 29 l 574 36 l 575 47 l 554 36 l 539 50 l 540 58 l 544 78 l 554 106 l 581 167 l 715 492 l 757 582 l 768 597 l 783 597 l 792 597 l 793 589 l 794 574 l 789 549 l 789 547 l 803 551 l 814 547 l 824 531 l 822 519 l 792 429 m 874 346 l 782 124 l 765 92 l 757 78 l 746 75 l 731 74 l 732 92 l 732 93 l 715 65 l 703 53 l 694 54 l 676 57 l 676 64 l 678 79 l 703 149 l 815 419 l 843 481 l 856 499 l 875 510 l 883 496 l 892 486 l 889 471 l 875 426 l 893 429 l 894 410 l 874 346 m 821 439 l 722 200 l 685 111 l 678 94 l 674 88 l 667 88 l 669 94 l 675 111 l 704 183 l 810 439 l 826 479 l 835 496 l 849 508 l 843 494 l 821 439 m 44 453 l 53 474 l 69 494 l 67 483 l 50 442 l 39 429 l 44 453 m 799 421 l 700 182 l 667 103 l 649 69 l 656 88 l 683 156 l 769 364 l 797 432 l 814 465 l 811 454 l 799 421 m 890 218 l 856 153 l 849 143 l 828 151 l 831 158 l 833 169 l 826 151 l 815 128 l 799 107 l 790 118 l 793 132 l 808 178 l 868 321 l 894 375 l 904 389 l 907 382 l 914 371 l 910 357 l 874 265 l 874 267 l 886 274 l 889 281 l 908 317 l 904 307 l 893 281 l 896 281 l 904 275 l 903 268 l 900 246 l 890 218 m 382 135 l 353 67 l 333 32 l 311 21 l 304 36 l 308 51 l 319 82 l 361 181 l 372 200 l 382 204 l 385 213 l 404 246 l 406 235 l 397 206 l 397 196 l 399 181 l 382 135 z "},"7":{"ha":868,"x_min":49,"x_max":829,"o":"m 793 824 l 529 188 l 463 39 l 438 17 l 422 19 l 411 24 l 410 35 l 407 50 l 394 36 l 378 29 l 367 25 l 353 31 l 340 35 l 338 50 l 333 64 l 343 100 l 413 268 l 618 764 l 674 897 l 704 951 l 714 964 l 740 978 l 757 974 l 768 971 l 772 964 l 779 944 l 778 935 l 775 928 l 793 931 l 801 932 l 806 925 l 815 907 l 813 888 l 793 824 m 236 854 l 188 742 l 163 708 l 154 700 l 133 693 l 126 692 l 113 700 l 103 706 l 101 718 l 99 735 l 104 756 l 97 746 l 89 738 l 76 739 l 61 742 l 58 749 l 50 771 l 49 790 l 68 889 l 106 953 l 117 963 l 131 967 l 144 971 l 164 961 l 171 958 l 175 940 l 164 894 l 179 926 l 201 947 l 215 951 l 229 956 l 242 949 l 254 940 l 256 921 l 236 854 m 374 863 l 317 733 l 293 714 l 279 728 l 281 739 l 267 719 l 258 711 l 236 704 l 229 703 l 217 711 l 206 717 l 204 729 l 201 744 l 210 774 l 249 869 l 282 936 l 304 958 l 332 967 l 344 958 l 357 951 l 358 932 l 351 910 l 353 911 l 358 919 l 383 919 l 388 900 l 383 890 l 374 863 m 638 831 l 375 197 l 310 53 l 289 33 l 281 26 l 268 31 l 257 35 l 253 49 l 250 63 l 258 96 l 325 257 l 542 781 l 578 865 l 600 917 l 625 949 l 636 960 l 656 961 l 664 961 l 667 954 l 675 935 l 671 914 l 638 831 m 425 844 l 413 814 l 396 776 l 390 767 l 392 774 l 394 785 l 381 750 l 356 731 l 342 744 l 344 756 l 354 792 l 399 899 l 415 928 l 422 936 l 446 936 l 450 917 l 446 907 l 440 892 l 440 886 l 425 844 m 519 865 l 483 779 l 457 722 l 446 707 l 428 701 l 417 700 l 414 707 l 406 725 l 408 740 l 413 756 l 410 754 l 410 761 l 411 788 l 454 894 l 474 931 l 481 936 l 490 924 l 496 928 l 506 936 l 515 932 l 529 928 l 531 915 l 532 900 l 519 865 m 551 817 l 301 215 l 265 129 l 242 75 l 232 56 l 218 49 l 208 43 l 208 56 l 217 93 l 208 81 l 201 72 l 206 82 l 219 117 l 281 264 l 393 538 l 442 646 l 488 764 l 538 883 l 556 914 l 554 903 l 556 906 l 561 915 l 568 915 l 582 917 l 582 910 l 579 894 l 551 817 m 786 631 l 763 581 l 747 547 l 731 514 l 729 511 l 588 197 l 528 71 l 515 51 l 503 43 l 494 36 l 489 46 l 482 56 l 485 63 l 490 85 l 549 225 l 746 700 l 793 813 l 810 838 l 819 843 l 829 825 l 824 751 l 790 664 l 793 658 l 786 631 m 204 156 l 263 279 l 301 364 l 343 451 l 356 471 l 351 461 l 342 438 l 311 365 l 221 146 l 200 94 l 189 71 l 174 51 l 172 60 l 171 78 l 179 101 l 204 156 z "},"8":{"ha":989,"x_min":28,"x_max":924,"o":"m 390 463 l 256 139 l 221 61 l 206 53 l 199 51 l 200 60 l 203 79 l 208 92 l 206 92 l 194 90 l 182 99 l 169 107 l 165 118 l 158 135 l 160 154 l 179 218 l 219 317 l 464 904 l 510 979 l 536 990 l 556 990 l 567 989 l 574 981 l 585 965 l 585 943 l 551 854 l 550 851 l 538 821 l 521 783 l 507 767 l 492 763 l 492 764 l 432 699 l 436 638 l 435 579 l 393 469 l 390 464 l 390 463 m 463 929 l 375 710 l 218 335 l 182 246 l 158 194 l 153 188 l 147 175 l 140 167 l 143 176 l 139 171 l 124 169 l 111 167 l 101 178 l 92 189 l 83 225 l 133 379 l 283 742 l 333 861 l 364 932 l 403 976 l 429 986 l 447 982 l 458 979 l 463 967 l 468 951 l 463 929 m 311 856 l 117 389 l 90 324 l 71 281 l 60 261 l 43 260 l 36 260 l 32 271 l 28 286 l 31 308 l 61 399 l 96 449 l 110 474 l 122 532 l 138 590 l 147 613 l 138 624 l 140 638 l 157 686 l 219 836 l 257 918 l 281 931 l 282 922 l 282 915 l 311 924 l 325 910 l 324 899 l 311 856 m 401 138 l 365 49 l 342 6 l 319 -12 l 303 -12 l 292 -12 l 283 -3 l 274 10 l 274 18 l 272 40 l 288 82 l 318 154 l 335 190 l 342 204 l 354 214 l 422 378 l 421 379 l 424 399 l 454 485 l 485 544 l 535 619 l 553 707 l 588 804 l 617 872 l 633 899 l 639 903 l 642 907 l 657 926 l 657 918 l 656 911 l 658 914 l 671 911 l 686 907 l 693 894 l 700 882 l 699 869 l 692 838 l 619 660 l 533 451 l 492 379 l 478 369 l 451 361 l 435 365 l 432 367 l 419 336 l 372 218 l 375 217 l 394 206 l 406 185 l 401 138 m 756 732 l 692 579 l 650 481 l 624 415 l 606 375 l 593 356 l 576 357 l 568 361 l 567 378 l 569 403 l 585 446 l 576 449 l 578 457 l 581 475 l 590 503 l 614 561 l 719 817 l 751 890 l 765 914 l 783 917 l 790 919 l 792 911 l 793 890 l 788 872 l 775 842 l 786 839 l 785 819 l 756 732 m 600 871 l 610 903 l 614 913 l 613 901 l 600 871 m 218 889 l 219 865 l 214 847 l 192 793 l 142 674 l 128 647 l 115 638 l 106 631 l 93 640 l 85 649 l 82 663 l 81 700 l 143 860 l 183 896 l 206 901 l 218 889 m 576 814 l 558 778 l 549 768 l 538 783 l 544 804 l 569 865 l 583 892 l 590 894 l 601 896 l 601 881 l 576 814 m 849 731 l 653 257 l 572 65 l 556 36 l 549 26 l 538 29 l 526 32 l 529 43 l 529 46 l 519 43 l 508 39 l 504 50 l 500 61 l 507 86 l 528 138 l 567 229 l 601 306 l 638 403 l 761 703 l 810 815 l 828 839 l 839 844 l 854 832 l 850 813 l 842 790 l 844 793 l 856 788 l 863 785 l 861 774 l 849 731 m 869 628 l 681 169 l 635 64 l 611 36 l 610 46 l 607 56 l 603 49 l 596 51 l 585 56 l 586 67 l 596 99 l 644 218 l 815 631 l 858 729 l 885 747 l 888 735 l 882 710 l 874 688 l 885 685 l 882 669 l 869 628 m 914 700 l 874 574 l 849 550 l 856 567 l 890 647 l 906 685 l 914 700 m 442 486 l 329 217 l 304 156 l 303 153 l 269 75 l 256 50 l 239 57 l 240 64 l 246 83 l 278 163 l 390 432 l 421 503 l 433 522 l 447 519 l 446 510 l 449 518 l 463 538 l 458 528 l 442 486 m 897 293 l 842 157 l 800 74 l 763 38 l 743 33 l 735 32 l 725 40 l 717 49 l 717 57 l 718 63 l 706 49 l 694 39 l 674 39 l 663 44 l 653 60 l 657 82 l 686 157 l 785 396 l 808 450 l 824 475 l 839 490 l 858 489 l 871 481 l 881 461 l 879 443 l 865 399 l 879 399 l 886 400 l 899 385 l 907 363 l 897 293 m 906 179 l 892 157 l 882 154 l 872 156 l 874 161 l 863 142 l 854 133 l 854 142 l 858 172 l 897 265 l 908 289 l 913 299 l 924 296 l 922 289 l 921 274 l 908 240 l 921 253 l 921 240 l 922 225 l 906 179 m 486 85 l 458 25 l 449 10 l 431 7 l 422 6 l 421 14 l 417 33 l 421 47 l 428 64 l 419 76 l 421 83 l 447 161 l 468 200 l 475 213 l 486 218 l 504 222 l 506 203 l 500 178 l 508 181 l 517 174 l 514 158 l 486 85 z "},"9":{"ha":949,"x_min":24,"x_max":906,"o":"m 426 860 l 268 476 l 226 386 l 218 374 l 203 368 l 192 364 l 182 369 l 165 378 l 163 386 l 157 406 l 167 449 l 163 444 l 143 440 l 136 438 l 129 449 l 119 461 l 119 478 l 151 578 l 246 806 l 279 883 l 301 931 l 319 954 l 333 963 l 344 969 l 358 963 l 368 957 l 369 942 l 365 926 l 365 928 l 399 961 l 411 969 l 433 968 l 440 968 l 444 961 l 453 943 l 450 926 l 426 860 m 344 492 l 319 431 l 303 393 l 278 353 l 268 351 l 264 363 l 263 371 l 264 376 l 258 376 l 250 378 l 250 385 l 253 415 l 294 518 l 426 836 l 463 921 l 475 944 l 481 954 l 500 957 l 507 958 l 507 950 l 508 931 l 506 924 l 508 915 l 511 899 l 500 868 l 483 826 l 460 769 l 447 746 l 432 725 l 426 731 l 401 671 l 351 546 l 353 542 l 356 535 l 354 524 l 344 492 m 621 847 l 568 717 l 544 674 l 533 663 l 519 660 l 504 658 l 496 665 l 481 676 l 469 704 l 478 761 l 503 822 l 528 876 l 528 876 l 543 914 l 554 936 l 560 946 l 576 946 l 575 935 l 569 918 l 582 921 l 589 924 l 606 915 l 615 911 l 619 900 l 628 883 l 621 847 m 685 883 l 649 797 l 626 743 l 600 686 l 589 669 l 592 682 l 606 721 l 672 882 l 694 933 l 700 943 l 699 932 l 685 883 m 258 861 l 139 575 l 108 504 l 90 490 l 82 497 l 85 513 l 92 533 l 72 532 l 64 532 l 54 547 l 53 626 l 110 774 l 165 886 l 200 915 l 211 921 l 229 918 l 236 918 l 239 910 l 240 892 l 250 908 l 261 906 l 272 904 l 269 893 l 258 861 m 774 776 l 518 161 l 454 24 l 431 10 l 419 4 l 404 8 l 393 11 l 390 26 l 386 40 l 390 56 l 385 49 l 374 47 l 363 46 l 360 58 l 357 74 l 365 99 l 388 154 l 426 249 l 636 754 l 688 876 l 708 907 l 715 915 l 739 907 l 738 888 l 729 864 l 733 871 l 743 882 l 763 886 l 776 882 l 790 868 l 793 851 l 774 776 m 635 796 l 393 213 l 336 76 l 318 47 l 311 39 l 315 50 l 328 83 l 388 228 l 494 483 l 538 578 l 567 658 l 638 829 l 656 865 l 661 875 l 658 860 l 635 796 m 849 728 l 765 526 l 621 178 l 585 92 l 561 50 l 540 29 l 531 32 l 521 35 l 519 46 l 518 63 l 519 65 l 508 63 l 499 71 l 500 78 l 504 100 l 524 149 l 563 240 l 732 650 l 775 753 l 800 811 l 818 836 l 829 832 l 839 828 l 838 817 l 828 785 l 828 785 l 838 792 l 847 786 l 860 778 l 858 767 l 849 728 m 36 719 l 64 781 l 75 796 l 99 814 l 100 807 l 104 789 l 99 775 l 88 747 l 53 667 l 36 643 l 28 639 l 24 654 l 36 719 m 900 565 l 775 331 l 733 274 l 719 268 l 704 235 l 642 144 l 613 122 l 615 131 l 625 161 l 671 269 l 829 651 l 868 740 l 874 750 l 899 754 l 903 739 l 888 667 l 885 661 l 893 665 l 901 653 l 906 628 l 900 565 m 451 454 l 390 289 l 290 46 l 258 -4 l 246 -12 l 233 -21 l 221 -21 l 201 -22 l 193 -14 l 179 0 l 182 31 l 200 67 l 267 157 l 299 203 l 307 231 l 301 261 l 293 294 l 296 321 l 322 389 l 351 457 l 357 465 l 378 513 l 399 529 l 400 517 l 394 497 l 408 499 l 422 500 l 436 492 l 449 485 l 450 476 l 451 454 m 506 451 l 396 186 l 367 121 l 353 110 l 357 119 l 367 144 l 401 229 l 493 450 l 515 501 l 524 514 l 525 504 l 519 486 l 506 451 z "},"A":{"ha":1049,"x_min":4,"x_max":1053,"o":"m 532 853 l 269 221 l 204 67 l 188 39 l 175 29 l 165 22 l 156 28 l 143 33 l 143 44 l 147 74 l 151 85 l 129 42 l 107 22 l 99 17 l 83 18 l 68 19 l 61 29 l 51 43 l 53 56 l 58 86 l 126 253 l 325 732 l 381 868 l 421 943 l 447 961 l 465 963 l 476 964 l 488 953 l 496 944 l 496 931 l 486 890 l 499 918 l 513 936 l 526 942 l 539 946 l 547 933 l 553 925 l 550 910 l 532 853 m 357 836 l 111 243 l 50 96 l 31 60 l 25 50 l 15 54 l 4 58 l 7 69 l 15 94 l 79 251 l 128 365 l 268 769 l 307 882 l 335 943 l 356 963 l 365 960 l 376 958 l 376 947 l 374 918 l 372 914 l 375 915 l 378 900 l 372 874 l 357 836 m 644 842 l 596 722 l 565 654 l 547 629 l 500 589 l 489 561 l 474 508 l 450 419 l 432 332 l 368 175 l 328 79 l 297 25 l 285 11 l 268 4 l 257 0 l 242 3 l 229 6 l 221 18 l 213 31 l 213 42 l 218 71 l 288 243 l 485 718 l 543 858 l 561 893 l 567 906 l 585 939 l 585 933 l 622 953 l 636 957 l 650 949 l 663 940 l 665 922 l 644 842 m 743 736 l 549 268 l 522 207 l 494 158 l 481 144 l 463 139 l 451 136 l 425 151 l 425 160 l 422 181 l 428 196 l 435 213 l 394 132 l 365 86 l 354 78 l 346 86 l 351 104 l 368 149 l 439 319 l 458 358 l 471 369 l 483 379 l 490 367 l 497 353 l 493 344 l 531 388 l 558 400 l 572 413 l 579 419 l 581 431 l 582 450 l 576 479 l 574 539 l 596 599 l 592 593 l 582 599 l 572 603 l 572 611 l 572 633 l 603 713 l 661 856 l 692 915 l 710 925 l 725 915 l 722 897 l 710 865 l 728 871 l 742 867 l 757 844 l 761 824 l 743 736 m 803 544 l 707 308 l 668 217 l 646 165 l 617 131 l 606 122 l 583 118 l 576 117 l 561 128 l 551 133 l 550 142 l 547 163 l 550 171 l 532 168 l 525 167 l 525 175 l 528 206 l 569 310 l 714 658 l 750 743 l 768 767 l 786 749 l 785 733 l 771 683 l 769 679 l 776 679 l 796 672 l 806 657 l 813 636 l 803 544 m 917 275 l 856 121 l 814 35 l 790 14 l 771 8 l 758 6 l 743 17 l 733 24 l 731 35 l 726 53 l 732 82 l 739 103 l 721 92 l 707 101 l 697 108 l 690 121 l 676 163 l 678 182 l 710 274 l 794 478 l 829 556 l 842 574 l 854 575 l 871 575 l 881 557 l 896 488 l 893 463 l 874 407 l 890 411 l 901 408 l 917 386 l 928 332 l 917 275 m 954 93 l 944 74 l 931 56 l 924 46 l 900 28 l 881 26 l 869 25 l 858 35 l 850 43 l 850 57 l 858 101 l 918 244 l 938 281 l 944 290 l 956 288 l 972 286 l 982 265 l 974 147 l 960 113 l 961 110 l 954 93 m 1049 64 l 1033 40 l 1006 32 l 988 39 l 978 43 l 974 57 l 971 72 l 978 100 l 999 140 l 1008 154 l 1024 149 l 1035 143 l 1042 128 l 1053 89 l 1049 64 z "},"B":{"ha":1019,"x_min":72,"x_max":953,"o":"m 615 863 l 575 771 l 569 757 l 549 756 l 549 763 l 550 778 l 544 775 l 526 778 l 515 781 l 514 788 l 508 811 l 511 825 l 525 867 l 554 933 l 579 971 l 606 986 l 624 981 l 635 978 l 636 969 l 642 949 l 638 935 l 622 893 l 621 889 l 615 863 m 311 858 l 150 471 l 111 378 l 89 351 l 83 361 l 76 371 l 76 389 l 85 513 l 115 593 l 106 586 l 96 600 l 93 674 l 106 772 l 139 864 l 172 938 l 204 969 l 217 978 l 242 979 l 253 972 l 265 954 l 263 938 l 260 932 l 271 944 l 279 954 l 303 958 l 315 954 l 331 938 l 331 922 l 311 858 m 424 901 l 193 346 l 138 213 l 121 179 l 115 171 l 97 138 l 90 128 l 94 139 l 104 168 l 107 176 l 104 179 l 93 189 l 92 196 l 92 218 l 119 374 l 293 793 l 340 906 l 364 951 l 374 963 l 400 976 l 418 969 l 428 965 l 432 951 l 435 938 l 424 901 m 725 781 l 585 443 l 560 393 l 549 378 l 531 372 l 521 374 l 510 392 l 511 403 l 513 408 l 496 407 l 485 406 l 478 415 l 469 428 l 471 447 l 486 497 l 510 551 l 554 615 l 593 660 l 603 747 l 644 876 l 668 928 l 676 940 l 701 960 l 721 958 l 729 957 l 732 950 l 740 932 l 738 918 l 729 894 l 739 896 l 756 885 l 754 871 l 725 781 m 493 835 l 457 757 l 428 706 l 390 589 l 333 449 l 228 193 l 185 92 l 160 42 l 143 21 l 124 17 l 113 14 l 97 39 l 99 47 l 103 71 l 121 117 l 121 121 l 129 156 l 189 303 l 396 800 l 446 919 l 469 947 l 469 933 l 475 939 l 494 944 l 507 940 l 521 924 l 518 904 l 493 835 m 806 749 l 575 192 l 542 113 l 518 60 l 508 43 l 493 38 l 481 33 l 483 44 l 490 65 l 488 64 l 475 79 l 476 86 l 481 108 l 494 146 l 522 207 l 539 231 l 547 239 l 558 236 l 569 233 l 594 274 l 606 333 l 624 390 l 638 424 l 636 424 l 633 432 l 629 458 l 661 549 l 785 844 l 810 899 l 825 918 l 844 925 l 851 913 l 851 889 l 833 836 l 836 833 l 831 814 l 806 749 m 117 843 l 100 807 l 89 796 l 72 804 l 74 815 l 92 892 l 107 917 l 122 922 l 133 924 l 138 910 l 132 885 l 117 843 m 864 800 l 636 250 l 579 113 l 561 76 l 556 67 l 553 68 l 536 39 l 538 50 l 546 72 l 544 72 l 547 83 l 556 108 l 614 251 l 782 656 l 839 792 l 854 825 l 861 839 l 876 831 l 864 800 m 910 679 l 699 169 l 669 99 l 643 44 l 633 29 l 619 21 l 608 14 l 599 19 l 589 26 l 589 35 l 590 54 l 592 61 l 586 57 l 585 68 l 582 82 l 588 100 l 643 235 l 808 633 l 874 790 l 892 821 l 901 819 l 913 819 l 911 811 l 908 794 l 899 771 l 911 781 l 921 768 l 926 758 l 926 740 l 910 679 m 847 331 l 774 153 l 733 57 l 710 24 l 700 13 l 678 7 l 667 11 l 654 26 l 658 47 l 668 74 l 668 74 l 676 96 l 688 124 l 788 367 l 790 371 l 874 574 l 911 663 l 932 690 l 928 679 l 922 663 l 933 663 l 935 646 l 918 585 l 904 563 l 890 551 l 882 544 l 875 549 l 832 444 l 853 451 l 872 439 l 874 424 l 875 408 l 869 390 l 847 331 m 451 468 l 307 119 l 271 39 l 249 21 l 246 28 l 242 39 l 242 40 l 239 38 l 224 42 l 211 44 l 207 56 l 203 71 l 206 86 l 243 186 l 369 489 l 406 578 l 421 608 l 426 618 l 444 628 l 451 632 l 463 628 l 476 622 l 481 615 l 490 594 l 488 581 l 475 538 l 469 525 l 469 524 l 451 468 m 947 208 l 899 99 l 863 61 l 832 40 l 817 40 l 801 39 l 799 47 l 793 67 l 794 69 l 786 64 l 776 57 l 767 63 l 758 69 l 763 88 l 783 143 l 868 349 l 899 408 l 914 418 l 928 413 l 929 400 l 931 383 l 918 346 l 926 351 l 936 344 l 949 335 l 953 319 l 947 208 m 449 114 l 419 46 l 406 19 l 400 10 l 382 -1 l 369 0 l 354 11 l 356 26 l 360 43 l 354 40 l 343 35 l 319 44 l 318 53 l 315 72 l 321 90 l 339 139 l 389 263 l 410 306 l 425 315 l 435 313 l 438 301 l 446 231 l 433 190 l 439 194 l 454 192 l 465 189 l 465 174 l 465 158 l 449 114 z "},"C":{"ha":1018,"x_min":35,"x_max":1004,"o":"m 526 860 l 468 728 l 407 626 l 379 511 l 339 408 l 272 247 l 232 151 l 215 115 l 207 101 l 183 82 l 168 86 l 157 88 l 151 99 l 143 114 l 147 150 l 158 176 l 147 172 l 136 169 l 128 178 l 115 193 l 108 221 l 117 275 l 160 381 l 326 785 l 374 897 l 410 964 l 433 982 l 453 983 l 463 985 l 475 975 l 485 968 l 485 951 l 483 944 l 488 947 l 496 956 l 515 957 l 529 951 l 543 936 l 543 921 l 526 860 m 633 871 l 604 806 l 582 768 l 558 751 l 543 753 l 532 754 l 529 761 l 522 781 l 525 796 l 539 838 l 578 929 l 596 961 l 601 971 l 629 983 l 643 976 l 653 971 l 654 964 l 658 943 l 653 926 l 633 871 m 767 756 l 731 669 l 707 624 l 685 603 l 665 601 l 649 607 l 635 626 l 635 642 l 646 686 l 649 694 l 642 690 l 635 688 l 624 692 l 610 699 l 606 706 l 596 724 l 594 739 l 599 783 l 639 883 l 663 931 l 671 944 l 694 961 l 711 961 l 731 954 l 744 939 l 746 925 l 747 911 l 740 886 l 750 894 l 774 894 l 786 888 l 797 867 l 797 842 l 767 756 m 342 856 l 154 404 l 108 296 l 86 263 l 78 269 l 69 275 l 71 283 l 74 304 l 86 336 l 83 333 l 72 335 l 64 336 l 61 344 l 56 375 l 81 482 l 214 806 l 257 900 l 276 925 l 285 933 l 304 939 l 317 935 l 329 921 l 326 910 l 333 921 l 340 931 l 361 924 l 358 908 l 342 856 m 226 850 l 111 574 l 85 515 l 83 514 l 79 501 l 68 478 l 63 469 l 67 485 l 74 501 l 53 507 l 53 515 l 51 531 l 64 606 l 146 807 l 185 878 l 197 892 l 215 899 l 225 897 l 235 879 l 232 872 l 226 850 m 864 685 l 835 624 l 818 604 l 799 592 l 776 604 l 776 621 l 783 646 l 778 646 l 763 646 l 760 657 l 754 672 l 763 701 l 807 807 l 825 847 l 833 864 l 856 882 l 865 876 l 878 869 l 879 863 l 881 842 l 875 824 l 865 799 l 868 799 l 876 801 l 879 793 l 889 772 l 886 751 l 864 685 m 118 782 l 69 663 l 53 633 l 35 633 l 35 644 l 40 674 l 79 769 l 93 792 l 100 801 l 125 799 l 118 782 m 949 669 l 929 651 l 910 654 l 901 656 l 900 663 l 897 685 l 903 707 l 929 768 l 949 789 l 960 785 l 975 778 l 976 769 l 981 747 l 978 733 l 949 669 m 990 694 l 1004 690 l 994 679 l 988 675 l 990 694 m 431 418 l 381 263 l 329 140 l 310 104 l 301 93 l 274 82 l 261 90 l 251 97 l 250 117 l 274 199 l 371 435 l 399 496 l 411 510 l 428 503 l 431 483 l 431 418 m 814 326 l 750 174 l 713 85 l 699 58 l 686 49 l 675 39 l 660 43 l 650 46 l 646 64 l 663 128 l 733 297 l 763 357 l 774 371 l 793 379 l 806 376 l 821 364 l 819 357 l 814 326 m 885 253 l 835 135 l 799 63 l 785 44 l 768 35 l 758 29 l 740 31 l 733 32 l 731 39 l 726 57 l 731 75 l 740 97 l 739 106 l 747 126 l 765 171 l 825 314 l 851 358 l 867 363 l 868 342 l 868 340 l 869 342 l 885 336 l 897 332 l 899 318 l 901 303 l 885 253 m 669 215 l 611 76 l 586 19 l 578 3 l 553 -18 l 538 -14 l 526 -12 l 525 -4 l 521 15 l 526 33 l 515 29 l 501 50 l 504 68 l 519 117 l 608 304 l 629 332 l 638 343 l 656 347 l 663 350 l 665 339 l 663 319 l 669 322 l 682 319 l 696 307 l 694 289 l 669 215 m 978 274 l 938 193 l 938 192 l 936 190 l 908 136 l 882 114 l 871 108 l 863 117 l 854 124 l 858 139 l 871 178 l 919 296 l 939 329 l 947 342 l 968 346 l 979 340 l 989 321 l 988 310 l 978 274 m 521 163 l 474 50 l 443 6 l 425 -3 l 418 -7 l 403 -3 l 392 0 l 386 11 l 381 25 l 383 47 l 360 33 l 340 36 l 329 36 l 322 47 l 311 63 l 311 71 l 314 93 l 336 151 l 378 254 l 400 296 l 408 308 l 428 311 l 436 313 l 450 299 l 460 217 l 485 233 l 500 233 l 513 233 l 522 222 l 531 213 l 529 201 l 521 163 z "},"D":{"ha":1028,"x_min":67,"x_max":975,"o":"m 408 490 l 403 374 l 363 258 l 299 104 l 246 8 l 235 -1 l 215 -6 l 204 -8 l 178 7 l 174 28 l 176 44 l 160 29 l 144 29 l 132 29 l 128 40 l 122 56 l 124 67 l 129 89 l 197 257 l 425 807 l 460 889 l 485 939 l 499 956 l 513 961 l 524 967 l 536 957 l 546 950 l 546 931 l 542 917 l 546 924 l 563 932 l 574 938 l 592 936 l 603 936 l 614 921 l 621 913 l 621 894 l 597 825 l 560 736 l 528 700 l 506 694 l 499 692 l 483 699 l 471 703 l 468 714 l 463 728 l 438 681 l 411 593 l 393 549 l 407 538 l 407 526 l 408 490 m 374 860 l 167 361 l 118 244 l 101 219 l 93 210 l 86 219 l 78 233 l 76 256 l 99 401 l 111 433 l 103 460 l 132 556 l 250 842 l 286 924 l 300 946 l 322 943 l 322 926 l 321 925 l 339 949 l 367 958 l 381 953 l 390 947 l 392 939 l 394 918 l 390 904 l 374 860 m 436 860 l 213 324 l 126 114 l 113 83 l 100 67 l 88 60 l 89 71 l 100 107 l 100 107 l 97 115 l 92 129 l 96 156 l 111 210 l 153 308 l 364 818 l 392 886 l 414 932 l 426 950 l 442 953 l 453 954 l 453 939 l 446 914 l 451 915 l 450 904 l 436 860 m 244 867 l 124 576 l 94 508 l 81 494 l 68 513 l 67 604 l 75 686 l 111 776 l 89 761 l 82 782 l 104 861 l 138 922 l 151 936 l 161 929 l 171 922 l 168 911 l 163 897 l 171 914 l 182 929 l 206 947 l 225 950 l 236 950 l 247 939 l 256 931 l 256 918 l 257 901 l 244 867 m 836 771 l 744 549 l 583 160 l 551 85 l 517 28 l 506 18 l 488 13 l 476 10 l 463 15 l 449 22 l 446 38 l 442 51 l 443 57 l 438 50 l 411 38 l 397 42 l 385 44 l 382 57 l 378 72 l 385 101 l 425 200 l 449 251 l 457 265 l 479 285 l 500 283 l 513 278 l 525 260 l 524 249 l 522 243 l 588 304 l 631 507 l 668 611 l 660 610 l 653 608 l 650 615 l 644 633 l 646 726 l 693 846 l 714 896 l 724 917 l 744 938 l 768 938 l 779 931 l 793 911 l 792 900 l 785 865 l 792 868 l 810 874 l 819 868 l 839 853 l 847 833 l 836 771 m 110 908 l 103 890 l 99 883 l 90 889 l 81 894 l 82 906 l 86 924 l 96 931 l 104 938 l 107 931 l 110 908 m 668 828 l 626 729 l 611 707 l 604 699 l 593 703 l 586 706 l 586 721 l 596 765 l 596 765 l 597 779 l 635 871 l 650 899 l 654 906 l 654 899 l 656 893 l 660 899 l 671 899 l 686 896 l 685 885 l 668 828 m 890 676 l 686 182 l 636 65 l 628 53 l 614 47 l 604 44 l 607 53 l 603 46 l 581 26 l 565 32 l 554 35 l 553 47 l 551 65 l 558 88 l 614 224 l 785 638 l 833 754 l 851 790 l 858 803 l 889 808 l 901 793 l 901 778 l 890 726 l 903 719 l 900 708 l 890 676 m 958 594 l 953 538 l 903 406 l 792 140 l 733 39 l 722 28 l 706 25 l 694 21 l 685 28 l 674 38 l 672 44 l 672 63 l 676 75 l 671 71 l 669 82 l 667 93 l 672 111 l 718 224 l 882 617 l 922 711 l 926 721 l 940 724 l 947 725 l 947 710 l 932 656 l 932 656 l 933 657 l 943 650 l 951 642 l 954 631 l 958 594 m 968 363 l 893 149 l 860 114 l 847 106 l 836 110 l 825 118 l 828 133 l 831 143 l 819 121 l 804 110 l 801 129 l 808 150 l 829 201 l 926 436 l 951 493 l 961 510 l 975 494 l 972 483 l 960 449 l 949 421 l 961 425 l 967 414 l 971 403 l 968 363 m 410 210 l 346 56 l 325 28 l 314 28 l 304 29 l 303 42 l 303 58 l 313 82 l 308 81 l 313 92 l 326 129 l 389 279 l 410 326 l 421 335 l 419 324 l 406 279 l 415 282 l 417 267 l 410 210 z "},"E":{"ha":926,"x_min":71,"x_max":886,"o":"m 401 467 l 258 122 l 221 38 l 200 13 l 190 18 l 178 25 l 178 33 l 179 39 l 176 36 l 158 32 l 147 28 l 133 33 l 119 39 l 114 54 l 107 68 l 108 79 l 117 111 l 185 279 l 371 728 l 431 871 l 463 946 l 510 983 l 524 985 l 539 985 l 563 965 l 563 950 l 557 924 l 558 924 l 574 921 l 574 914 l 575 899 l 569 874 l 549 821 l 518 750 l 504 728 l 499 719 l 481 715 l 471 721 l 468 731 l 439 696 l 428 635 l 415 575 l 411 565 l 426 557 l 426 540 l 401 467 m 750 832 l 713 744 l 688 703 l 663 688 l 643 689 l 633 690 l 626 700 l 618 714 l 619 722 l 621 738 l 606 726 l 590 722 l 576 725 l 561 729 l 557 739 l 550 757 l 556 786 l 575 835 l 606 910 l 638 960 l 649 971 l 667 978 l 678 982 l 693 979 l 708 976 l 714 965 l 722 947 l 719 935 l 718 926 l 729 929 l 743 933 l 756 924 l 765 917 l 767 901 l 750 832 m 190 854 l 154 765 l 132 711 l 107 657 l 93 646 l 82 661 l 86 676 l 101 722 l 108 738 l 99 735 l 89 731 l 86 742 l 81 775 l 82 860 l 88 907 l 100 935 l 114 950 l 122 958 l 144 965 l 151 968 l 168 963 l 179 960 l 182 951 l 189 933 l 181 900 l 181 900 l 189 917 l 206 925 l 211 914 l 190 854 m 788 706 l 785 728 l 789 738 l 785 738 l 769 740 l 764 754 l 758 765 l 761 778 l 774 821 l 815 919 l 833 943 l 842 951 l 863 949 l 869 947 l 872 940 l 876 926 l 876 900 l 857 832 l 832 774 l 822 760 l 824 751 l 824 725 l 821 714 l 811 703 l 799 693 l 788 706 m 414 865 l 176 290 l 118 150 l 99 113 l 93 103 l 78 113 l 76 125 l 75 151 l 117 282 l 115 278 l 106 257 l 94 254 l 86 251 l 83 263 l 81 294 l 118 424 l 289 833 l 332 926 l 342 939 l 356 943 l 367 947 l 374 933 l 378 925 l 374 907 l 367 886 l 371 896 l 392 928 l 400 938 l 418 938 l 425 939 l 426 931 l 431 914 l 426 900 l 414 865 m 300 872 l 143 493 l 119 435 l 104 406 l 92 388 l 75 392 l 74 403 l 71 429 l 93 524 l 107 556 l 100 556 l 100 564 l 100 579 l 121 653 l 207 864 l 235 925 l 247 944 l 258 946 l 269 946 l 269 932 l 269 929 l 271 932 l 279 940 l 296 943 l 304 943 l 307 936 l 314 918 l 313 907 l 300 872 m 458 131 l 421 43 l 396 1 l 371 -14 l 353 -12 l 342 -11 l 336 -1 l 328 13 l 329 21 l 331 42 l 333 47 l 315 25 l 299 22 l 281 31 l 274 35 l 269 46 l 263 61 l 265 79 l 301 176 l 424 472 l 464 564 l 492 603 l 518 618 l 533 618 l 549 619 l 561 608 l 571 601 l 571 586 l 572 569 l 571 568 l 576 571 l 593 571 l 606 571 l 614 558 l 621 549 l 619 538 l 611 501 l 576 417 l 551 371 l 529 350 l 514 347 l 501 346 l 489 356 l 481 364 l 481 379 l 482 386 l 449 363 l 439 354 l 436 342 l 431 326 l 436 268 l 433 238 l 429 225 l 439 228 l 453 232 l 465 222 l 475 215 l 476 200 l 458 131 m 758 461 l 731 397 l 708 358 l 685 342 l 668 343 l 656 343 l 651 350 l 643 368 l 646 383 l 649 396 l 649 396 l 635 399 l 621 410 l 619 418 l 618 438 l 635 488 l 667 561 l 690 601 l 717 619 l 736 614 l 746 611 l 749 600 l 750 579 l 743 558 l 743 558 l 747 560 l 760 554 l 774 539 l 774 525 l 758 461 m 844 429 l 831 407 l 814 400 l 803 396 l 794 403 l 783 414 l 783 421 l 785 443 l 808 506 l 821 528 l 840 540 l 849 522 l 851 496 l 844 429 m 833 149 l 793 57 l 774 31 l 765 22 l 746 18 l 733 22 l 722 39 l 724 46 l 724 54 l 724 53 l 688 29 l 672 24 l 658 28 l 643 32 l 639 42 l 631 58 l 638 89 l 656 138 l 688 213 l 719 261 l 731 272 l 749 279 l 760 283 l 775 281 l 790 279 l 796 268 l 804 249 l 801 238 l 800 229 l 800 231 l 833 239 l 850 226 l 850 194 l 833 149 m 614 113 l 576 24 l 547 -15 l 526 -24 l 518 -26 l 504 -18 l 493 -12 l 492 3 l 490 18 l 496 32 l 486 35 l 475 38 l 471 51 l 465 67 l 472 96 l 511 192 l 547 257 l 571 275 l 588 276 l 600 276 l 603 269 l 611 251 l 607 233 l 603 221 l 604 221 l 621 215 l 632 211 l 633 204 l 638 182 l 633 164 l 614 113 m 885 93 l 881 68 l 874 53 l 868 42 l 842 25 l 824 31 l 814 33 l 811 40 l 808 61 l 821 99 l 847 164 l 869 192 l 885 178 l 886 156 l 885 93 z "},"F":{"ha":897,"x_min":65,"x_max":875,"o":"m 718 846 l 676 743 l 644 681 l 631 664 l 614 658 l 603 656 l 594 663 l 583 672 l 582 681 l 582 701 l 589 724 l 583 724 l 579 739 l 574 753 l 581 782 l 599 829 l 632 908 l 660 957 l 668 968 l 688 976 l 694 979 l 708 971 l 718 964 l 717 944 l 703 906 l 707 906 l 718 903 l 721 893 l 726 874 l 718 846 m 424 458 l 296 151 l 264 76 l 247 69 l 239 51 l 225 33 l 217 24 l 186 17 l 178 25 l 163 38 l 164 49 l 167 75 l 238 250 l 454 769 l 510 903 l 542 951 l 551 961 l 574 967 l 581 969 l 593 960 l 603 954 l 603 938 l 592 900 l 594 903 l 600 893 l 596 878 l 579 833 l 561 789 l 539 742 l 529 732 l 525 739 l 522 735 l 507 715 l 453 682 l 440 668 l 433 660 l 432 649 l 428 631 l 432 611 l 440 540 l 435 524 l 443 514 l 439 499 l 424 458 m 249 901 l 133 621 l 111 567 l 103 550 l 81 547 l 79 554 l 76 569 l 81 643 l 115 735 l 111 736 l 100 740 l 99 747 l 97 763 l 118 860 l 144 921 l 161 946 l 176 960 l 188 958 l 199 957 l 200 944 l 201 932 l 203 936 l 221 946 l 229 950 l 238 944 l 250 938 l 250 929 l 249 901 m 794 776 l 768 715 l 758 700 l 738 700 l 739 708 l 742 729 l 746 739 l 739 740 l 738 747 l 736 778 l 774 878 l 804 940 l 822 958 l 846 958 l 856 942 l 854 932 l 819 835 l 799 793 l 794 776 m 417 829 l 172 238 l 114 97 l 96 68 l 83 69 l 75 69 l 74 82 l 71 99 l 76 125 l 96 181 l 103 194 l 93 185 l 93 196 l 97 226 l 150 357 l 326 783 l 371 889 l 383 915 l 389 925 l 407 921 l 406 914 l 418 932 l 426 940 l 433 936 l 444 931 l 444 914 l 417 829 m 469 817 l 229 239 l 171 99 l 156 65 l 147 58 l 138 68 l 139 72 l 124 71 l 126 83 l 136 119 l 199 271 l 413 786 l 465 910 l 485 931 l 493 933 l 492 922 l 486 903 l 488 904 l 497 908 l 497 890 l 469 817 m 86 928 l 100 931 l 107 932 l 111 917 l 114 906 l 110 892 l 96 853 l 74 842 l 67 857 l 65 879 l 86 928 m 282 836 l 139 492 l 103 407 l 79 389 l 69 400 l 71 419 l 99 519 l 235 846 l 246 869 l 260 900 l 261 901 l 263 907 l 278 924 l 292 929 l 300 928 l 306 913 l 301 888 l 282 836 m 333 832 l 142 368 l 111 297 l 96 260 l 82 236 l 74 238 l 65 238 l 65 249 l 65 282 l 110 401 l 274 799 l 315 893 l 322 900 l 322 901 l 335 915 l 333 911 l 343 921 l 360 910 l 356 892 l 333 832 m 864 757 l 843 742 l 836 756 l 831 767 l 835 776 l 846 804 l 856 821 l 865 815 l 875 808 l 875 801 l 875 786 l 864 757 m 796 428 l 782 393 l 763 361 l 756 356 l 756 356 l 733 338 l 715 332 l 704 329 l 690 333 l 676 336 l 671 350 l 665 364 l 669 379 l 686 425 l 728 528 l 750 571 l 758 583 l 774 594 l 783 601 l 801 601 l 813 601 l 824 592 l 836 574 l 838 546 l 822 504 l 803 458 l 806 453 l 796 428 m 351 -10 l 336 -29 l 313 -33 l 301 -28 l 290 -12 l 293 10 l 306 42 l 299 43 l 294 54 l 289 69 l 293 85 l 332 185 l 435 433 l 469 515 l 492 563 l 511 586 l 533 589 l 544 585 l 556 565 l 553 547 l 543 519 l 551 515 l 563 508 l 563 500 l 564 479 l 558 463 l 538 410 l 500 322 l 476 281 l 451 264 l 436 268 l 421 221 l 381 124 l 367 92 l 367 69 l 351 -10 m 633 385 l 600 317 l 594 307 l 574 311 l 576 322 l 583 346 l 583 346 l 581 353 l 572 372 l 575 388 l 586 424 l 615 494 l 636 542 l 650 564 l 663 574 l 672 582 l 682 579 l 696 575 l 697 563 l 699 546 l 686 511 l 650 425 l 646 417 l 633 385 m 822 347 l 799 335 l 792 349 l 785 358 l 789 372 l 803 411 l 821 439 l 838 432 l 839 421 l 836 372 l 822 347 z "},"G":{"ha":1046,"x_min":50,"x_max":1008,"o":"m 432 858 l 239 393 l 163 208 l 153 188 l 147 178 l 138 172 l 125 165 l 126 178 l 135 208 l 139 218 l 128 218 l 117 219 l 113 231 l 106 249 l 107 271 l 122 328 l 160 417 l 313 786 l 358 894 l 393 961 l 408 974 l 417 981 l 433 982 l 444 983 l 454 971 l 460 961 l 457 950 l 449 918 l 446 914 l 449 899 l 444 889 l 432 858 m 318 840 l 138 407 l 94 304 l 71 281 l 72 288 l 78 317 l 85 332 l 83 331 l 79 342 l 69 369 l 72 496 l 108 600 l 167 740 l 213 849 l 243 917 l 300 958 l 318 964 l 329 958 l 343 950 l 343 942 l 342 919 l 331 892 l 331 888 l 318 840 m 665 813 l 636 744 l 619 708 l 601 685 l 590 686 l 581 689 l 581 696 l 581 717 l 592 746 l 588 746 l 575 751 l 565 767 l 567 786 l 589 853 l 635 947 l 642 957 l 657 964 l 674 964 l 689 951 l 689 935 l 676 896 l 685 889 l 685 881 l 682 858 l 665 813 m 581 883 l 542 788 l 508 725 l 433 668 l 401 617 l 394 569 l 388 438 l 356 342 l 314 239 l 269 133 l 251 93 l 244 79 l 221 58 l 201 58 l 190 58 l 179 69 l 168 81 l 167 92 l 164 111 l 167 125 l 179 161 l 176 164 l 165 169 l 167 176 l 172 201 l 232 346 l 401 756 l 456 886 l 472 922 l 479 936 l 497 940 l 504 942 l 503 932 l 524 951 l 543 956 l 554 958 l 567 953 l 581 947 l 585 935 l 589 919 l 581 883 m 765 814 l 693 661 l 671 651 l 658 653 l 644 665 l 644 674 l 643 693 l 660 739 l 690 813 l 714 867 l 724 883 l 724 883 l 729 894 l 736 908 l 749 921 l 746 908 l 744 900 l 746 903 l 765 899 l 774 897 l 775 890 l 782 868 l 779 853 l 765 814 m 881 682 l 865 661 l 846 656 l 838 654 l 835 661 l 825 679 l 826 685 l 825 683 l 808 675 l 797 671 l 782 672 l 769 674 l 758 685 l 751 694 l 751 710 l 761 756 l 789 819 l 810 871 l 821 890 l 836 901 l 844 908 l 856 907 l 875 907 l 883 900 l 897 888 l 899 881 l 904 858 l 901 844 l 886 794 l 889 796 l 900 792 l 911 776 l 908 757 l 881 682 m 101 776 l 126 822 l 142 822 l 156 853 l 175 875 l 190 876 l 201 878 l 201 865 l 194 832 l 101 610 l 76 553 l 60 540 l 50 546 l 50 557 l 60 628 l 92 708 l 92 708 l 82 707 l 83 718 l 101 776 m 949 696 l 931 714 l 933 731 l 956 779 l 965 790 l 976 789 l 992 785 l 994 778 l 1001 754 l 999 743 l 994 725 l 985 711 l 978 701 l 949 696 m 949 440 l 857 218 l 797 79 l 736 17 l 713 15 l 697 29 l 697 38 l 699 42 l 688 39 l 671 42 l 660 53 l 661 78 l 674 113 l 701 181 l 808 440 l 844 525 l 867 571 l 886 593 l 903 596 l 914 599 l 924 588 l 932 579 l 929 560 l 924 543 l 938 543 l 950 538 l 963 521 l 964 506 l 949 440 m 793 467 l 642 101 l 603 18 l 572 -6 l 564 1 l 553 11 l 554 26 l 544 18 l 529 14 l 514 10 l 497 17 l 486 21 l 481 36 l 475 50 l 479 68 l 496 117 l 529 194 l 551 240 l 603 289 l 629 315 l 636 324 l 638 335 l 639 353 l 635 372 l 628 415 l 646 478 l 679 553 l 721 593 l 736 596 l 750 599 l 764 592 l 778 586 l 783 557 l 779 542 l 779 542 l 792 547 l 808 536 l 808 519 l 793 467 m 596 407 l 582 383 l 568 376 l 557 371 l 549 378 l 538 388 l 538 396 l 535 417 l 538 435 l 563 501 l 581 526 l 585 542 l 592 543 l 585 531 l 589 538 l 601 547 l 621 544 l 629 544 l 632 536 l 638 517 l 635 507 l 626 478 l 596 407 m 1008 407 l 1000 322 l 965 229 l 926 150 l 886 108 l 871 97 l 860 99 l 843 104 l 842 118 l 864 192 l 953 407 l 981 464 l 993 481 l 1006 476 l 1006 469 l 1008 407 m 397 168 l 363 82 l 342 35 l 324 11 l 311 18 l 301 25 l 303 36 l 311 65 l 303 63 l 293 75 l 285 86 l 285 101 l 296 147 l 383 360 l 407 397 l 421 399 l 432 371 l 432 315 l 407 235 l 403 225 l 406 218 l 408 203 l 397 168 m 475 113 l 432 18 l 410 -1 l 400 -8 l 385 0 l 375 6 l 372 24 l 392 93 l 433 188 l 438 194 l 442 204 l 463 238 l 461 226 l 461 222 l 479 224 l 492 218 l 503 199 l 499 181 l 475 113 z "},"H":{"ha":1072,"x_min":61,"x_max":1013,"o":"m 900 847 l 717 404 l 690 339 l 674 301 l 660 281 l 646 281 l 638 281 l 633 290 l 624 315 l 611 364 l 618 389 l 604 379 l 585 383 l 574 386 l 571 397 l 565 415 l 568 429 l 607 529 l 675 689 l 725 815 l 763 903 l 790 960 l 811 981 l 825 985 l 840 989 l 853 976 l 861 969 l 861 957 l 861 939 l 871 943 l 882 949 l 900 946 l 914 938 l 924 918 l 919 903 l 900 847 m 271 883 l 136 556 l 111 497 l 100 474 l 79 460 l 68 471 l 67 486 l 71 588 l 94 665 l 104 688 l 101 690 l 92 703 l 92 714 l 92 736 l 111 914 l 133 954 l 143 967 l 161 975 l 171 981 l 190 978 l 201 976 l 213 961 l 219 953 l 217 936 l 217 936 l 222 943 l 239 950 l 250 953 l 264 947 l 278 940 l 278 928 l 279 908 l 271 883 m 404 808 l 322 582 l 171 217 l 110 74 l 92 47 l 75 53 l 68 54 l 65 65 l 61 107 l 99 246 l 94 244 l 86 242 l 86 253 l 85 286 l 97 429 l 156 578 l 254 817 l 300 922 l 322 951 l 329 960 l 351 967 l 360 969 l 374 960 l 383 954 l 385 946 l 388 922 l 376 893 l 378 893 l 386 899 l 399 886 l 406 861 l 404 808 m 931 772 l 757 351 l 689 189 l 674 161 l 663 151 l 651 154 l 653 165 l 660 197 l 678 243 l 672 240 l 674 253 l 679 283 l 728 403 l 892 799 l 932 894 l 949 925 l 961 917 l 958 906 l 954 894 l 958 896 l 967 897 l 968 889 l 968 865 l 931 772 m 692 828 l 644 715 l 635 696 l 617 688 l 614 699 l 608 729 l 628 864 l 651 901 l 661 913 l 681 917 l 694 913 l 707 900 l 708 885 l 692 828 m 76 906 l 83 908 l 74 892 l 76 906 m 953 701 l 747 206 l 699 90 l 683 63 l 667 65 l 668 72 l 672 93 l 679 110 l 669 115 l 674 126 l 685 157 l 750 318 l 917 718 l 958 819 l 971 843 l 986 846 l 983 832 l 963 776 l 976 775 l 974 760 l 953 701 m 453 657 l 453 631 l 431 560 l 396 475 l 267 164 l 238 96 l 210 49 l 196 35 l 181 31 l 168 28 l 158 33 l 144 42 l 142 49 l 136 68 l 139 79 l 147 111 l 179 189 l 356 613 l 399 718 l 411 742 l 424 750 l 440 743 l 442 736 l 443 721 l 453 657 m 979 415 l 903 217 l 863 122 l 836 61 l 808 25 l 796 15 l 774 18 l 767 19 l 765 26 l 760 49 l 763 54 l 750 43 l 735 43 l 724 42 l 718 53 l 711 67 l 715 89 l 733 138 l 763 208 l 933 622 l 975 717 l 1001 738 l 1007 726 l 1013 715 l 1013 700 l 1011 667 l 965 531 l 971 536 l 986 525 l 988 514 l 979 415 m 467 482 l 314 114 l 276 29 l 258 14 l 251 11 l 251 18 l 251 44 l 254 51 l 251 51 l 243 50 l 242 58 l 240 88 l 285 193 l 411 501 l 447 586 l 463 615 l 468 625 l 488 633 l 500 629 l 510 613 l 506 594 l 489 549 l 485 526 l 467 482 m 563 518 l 514 399 l 479 333 l 454 315 l 435 318 l 426 319 l 424 328 l 417 346 l 421 361 l 438 410 l 478 507 l 507 564 l 531 585 l 547 583 l 550 583 l 554 593 l 569 621 l 563 601 l 556 583 l 560 583 l 564 572 l 571 558 l 569 547 l 563 518 m 940 161 l 917 104 l 885 38 l 869 26 l 863 24 l 861 38 l 868 63 l 863 61 l 858 74 l 863 92 l 879 138 l 954 318 l 976 361 l 986 375 l 1000 361 l 997 350 l 986 314 l 963 256 l 963 256 l 965 240 l 961 218 l 940 161 m 382 133 l 361 35 l 339 -4 l 315 -22 l 296 -21 l 285 -12 l 276 4 l 279 19 l 292 57 l 339 172 l 356 210 l 361 224 l 368 219 l 378 207 l 379 174 l 418 265 l 432 286 l 428 275 l 407 224 l 388 181 l 381 161 l 382 133 m 956 57 l 940 35 l 925 38 l 929 53 l 935 71 l 933 71 l 925 71 l 926 79 l 935 110 l 975 206 l 997 229 l 996 217 l 988 183 l 974 149 l 965 129 l 974 138 l 981 128 l 975 108 l 956 57 m 425 71 l 429 82 l 436 90 l 446 78 l 436 60 l 431 53 l 425 71 m 974 38 l 968 51 l 964 58 l 975 75 l 981 85 l 986 74 l 990 64 l 986 53 l 974 38 z "},"I":{"ha":511,"x_min":61,"x_max":442,"o":"m 329 850 l 139 393 l 94 288 l 75 254 l 69 265 l 63 294 l 85 429 l 101 468 l 99 465 l 89 469 l 85 492 l 83 536 l 89 592 l 136 728 l 192 864 l 240 951 l 253 963 l 275 967 l 282 967 l 294 956 l 303 947 l 300 929 l 297 917 l 307 929 l 317 936 l 328 935 l 344 932 l 346 917 l 347 901 l 343 888 l 329 850 m 172 853 l 106 693 l 86 654 l 75 643 l 63 654 l 61 714 l 106 838 l 97 846 l 99 868 l 115 932 l 131 957 l 146 957 l 157 957 l 157 950 l 160 929 l 169 929 l 188 928 l 188 914 l 189 899 l 172 853 m 349 803 l 153 332 l 107 222 l 85 193 l 88 204 l 94 232 l 110 268 l 104 263 l 106 269 l 113 297 l 160 410 l 318 792 l 358 888 l 378 911 l 375 896 l 369 879 l 385 896 l 381 882 l 349 803 m 374 671 l 188 224 l 142 111 l 129 85 l 125 74 l 121 79 l 111 71 l 103 63 l 96 72 l 86 85 l 85 111 l 93 160 l 133 264 l 331 739 l 382 865 l 401 900 l 408 910 l 432 908 l 436 893 l 429 819 l 403 754 l 401 739 l 374 671 m 418 506 l 407 421 l 356 289 l 267 75 l 229 14 l 211 3 l 185 -1 l 171 6 l 158 21 l 160 33 l 164 57 l 154 51 l 147 49 l 143 58 l 139 74 l 144 90 l 196 214 l 365 622 l 407 721 l 428 750 l 442 738 l 440 726 l 414 629 l 410 618 l 414 615 l 417 600 l 418 506 m 404 235 l 358 118 l 329 47 l 314 22 l 294 15 l 288 13 l 285 21 l 279 40 l 283 57 l 285 61 l 281 63 l 285 78 l 307 136 l 385 325 l 406 372 l 414 389 l 429 389 l 425 374 l 408 326 l 407 324 l 413 308 l 414 282 l 404 235 m 406 38 l 392 15 l 374 10 l 363 14 l 353 31 l 357 49 l 372 90 l 374 106 l 414 201 l 435 232 l 438 214 l 432 192 l 411 142 l 413 135 l 415 119 l 406 38 z "},"J":{"ha":975,"x_min":43,"x_max":914,"o":"m 389 857 l 347 758 l 319 713 l 311 704 l 293 696 l 285 693 l 269 699 l 258 703 l 256 714 l 250 732 l 254 749 l 243 749 l 231 750 l 228 761 l 224 775 l 232 804 l 272 904 l 304 968 l 326 988 l 342 985 l 353 981 l 356 967 l 357 951 l 356 946 l 365 949 l 379 954 l 392 947 l 406 940 l 407 925 l 407 910 l 389 857 m 485 807 l 476 790 l 476 788 l 476 788 l 453 736 l 435 719 l 436 731 l 436 732 l 428 725 l 408 722 l 397 721 l 383 735 l 375 743 l 375 758 l 385 803 l 425 899 l 463 963 l 488 979 l 517 981 l 528 967 l 535 958 l 533 939 l 511 874 l 503 850 l 501 849 l 485 807 m 611 889 l 575 803 l 551 757 l 542 747 l 529 721 l 511 704 l 513 715 l 518 738 l 514 738 l 503 739 l 500 750 l 496 764 l 503 793 l 543 893 l 575 957 l 599 976 l 614 974 l 625 971 l 626 956 l 629 942 l 611 889 m 721 840 l 599 547 l 583 510 l 569 483 l 551 471 l 539 481 l 538 503 l 547 581 l 581 668 l 576 675 l 571 697 l 578 746 l 635 890 l 660 943 l 669 960 l 697 974 l 713 963 l 711 956 l 707 929 l 722 936 l 733 926 l 742 918 l 740 900 l 721 840 m 174 836 l 131 740 l 125 731 l 107 724 l 96 726 l 89 750 l 113 828 l 139 889 l 156 914 l 169 925 l 181 944 l 178 938 l 175 929 l 186 919 l 194 911 l 192 893 l 174 836 m 875 850 l 774 603 l 594 172 l 563 94 l 522 18 l 499 0 l 488 -6 l 474 0 l 460 6 l 460 22 l 460 38 l 469 63 l 464 67 l 468 78 l 479 108 l 543 263 l 725 703 l 792 863 l 808 900 l 818 908 l 821 904 l 833 924 l 843 936 l 854 936 l 871 936 l 878 922 l 886 908 l 885 893 l 875 850 m 229 850 l 206 794 l 194 768 l 181 746 l 172 747 l 161 749 l 163 757 l 165 776 l 182 821 l 217 903 l 235 928 l 244 935 l 256 918 l 249 901 l 229 850 m 788 871 l 558 318 l 469 106 l 449 56 l 436 43 l 438 50 l 440 65 l 431 46 l 421 39 l 413 32 l 408 43 l 404 56 l 407 65 l 415 86 l 488 243 l 536 318 l 554 406 l 572 464 l 703 782 l 736 860 l 757 907 l 769 928 l 782 931 l 793 929 l 790 918 l 776 876 l 793 885 l 788 871 m 85 900 l 97 922 l 111 925 l 122 928 l 126 917 l 131 903 l 125 874 l 104 835 l 92 825 l 85 835 l 79 844 l 79 860 l 85 900 m 847 583 l 676 169 l 633 71 l 614 53 l 611 46 l 599 28 l 583 17 l 575 10 l 565 15 l 553 24 l 554 31 l 554 53 l 574 106 l 614 201 l 815 688 l 864 803 l 882 832 l 893 839 l 907 829 l 908 814 l 904 763 l 864 657 l 875 672 l 875 656 l 847 583 m 900 336 l 828 131 l 768 78 l 750 71 l 749 78 l 743 101 l 747 118 l 708 53 l 696 43 l 678 39 l 668 36 l 647 50 l 647 57 l 647 75 l 660 111 l 688 179 l 842 551 l 881 639 l 888 653 l 906 654 l 910 640 l 914 581 l 906 496 l 879 426 l 879 426 l 896 428 l 897 421 l 900 407 l 900 336 m 244 229 l 221 172 l 189 101 l 169 93 l 172 104 l 179 128 l 164 126 l 151 132 l 136 149 l 135 164 l 139 208 l 164 269 l 188 325 l 210 356 l 219 365 l 242 371 l 249 374 l 267 365 l 276 361 l 279 349 l 282 329 l 276 311 l 246 233 l 244 229 m 139 257 l 115 199 l 101 172 l 86 157 l 75 161 l 57 168 l 50 181 l 43 193 l 43 208 l 58 281 l 74 304 l 61 307 l 58 325 l 63 351 l 86 367 l 103 356 l 101 343 l 100 329 l 108 332 l 122 336 l 133 331 l 146 322 l 149 307 l 150 293 l 139 257 m 332 214 l 292 124 l 275 97 l 269 92 l 261 71 l 250 53 l 246 46 l 239 47 l 232 47 l 235 58 l 246 85 l 239 85 l 236 92 l 228 108 l 229 124 l 242 167 l 276 247 l 301 306 l 324 339 l 333 350 l 353 349 l 361 349 l 364 340 l 369 322 l 367 311 l 358 283 l 332 214 m 431 140 l 390 49 l 369 21 l 363 13 l 351 11 l 333 8 l 328 22 l 322 36 l 331 64 l 332 69 l 321 65 l 310 85 l 313 100 l 325 143 l 363 235 l 378 264 l 385 276 l 411 285 l 425 269 l 422 251 l 413 224 l 426 225 l 435 225 l 438 218 l 446 200 l 444 188 l 431 140 z "},"K":{"ha":993,"x_min":64,"x_max":967,"o":"m 343 1 l 343 29 l 338 29 l 324 26 l 317 36 l 308 49 l 310 60 l 317 89 l 386 260 l 604 783 l 660 917 l 689 963 l 699 974 l 721 979 l 729 981 l 739 971 l 747 963 l 747 951 l 739 918 l 750 918 l 757 919 l 761 911 l 768 893 l 765 879 l 753 844 l 550 356 l 500 236 l 492 219 l 479 208 l 469 200 l 460 206 l 446 213 l 444 219 l 440 244 l 465 319 l 456 313 l 447 306 l 442 290 l 435 219 l 381 60 l 375 54 l 376 46 l 378 33 l 372 18 l 368 7 l 361 4 l 343 1 m 749 325 l 683 164 l 638 56 l 622 31 l 606 22 l 596 17 l 582 25 l 571 31 l 565 44 l 557 89 l 576 146 l 557 144 l 546 144 l 538 157 l 529 168 l 525 204 l 576 358 l 739 749 l 790 872 l 821 940 l 842 964 l 856 969 l 869 975 l 885 971 l 900 965 l 904 950 l 908 935 l 904 921 l 901 913 l 903 914 l 924 910 l 924 901 l 925 881 l 907 844 l 868 778 l 817 692 l 808 679 l 807 679 l 792 644 l 736 531 l 708 444 l 701 424 l 707 428 l 714 431 l 725 424 l 738 415 l 751 388 l 749 325 m 400 813 l 317 590 l 169 235 l 132 146 l 113 99 l 99 75 l 88 72 l 76 69 l 72 81 l 68 118 l 107 261 l 103 265 l 93 274 l 93 281 l 92 303 l 110 442 l 165 579 l 265 818 l 308 921 l 328 951 l 336 964 l 358 972 l 365 975 l 381 967 l 390 960 l 392 953 l 396 932 l 392 918 l 382 894 l 389 893 l 400 890 l 403 875 l 400 813 m 286 900 l 231 763 l 144 554 l 110 472 l 85 454 l 75 478 l 74 578 l 114 726 l 93 710 l 96 721 l 107 761 l 150 864 l 164 894 l 169 904 l 188 906 l 188 906 l 189 908 l 214 944 l 240 960 l 258 960 l 269 960 l 281 949 l 289 940 l 290 929 l 286 900 m 461 736 l 522 846 l 540 869 l 564 919 l 583 942 l 597 947 l 611 953 l 625 946 l 635 942 l 636 929 l 639 914 l 633 893 l 531 642 l 344 194 l 308 106 l 272 36 l 264 24 l 247 14 l 236 8 l 222 13 l 211 17 l 207 26 l 203 42 l 204 53 l 213 81 l 215 88 l 192 38 l 168 22 l 158 17 l 143 19 l 128 22 l 121 33 l 113 47 l 114 63 l 126 108 l 221 338 l 353 656 l 375 710 l 388 738 l 404 756 l 413 747 l 425 724 l 428 713 l 440 715 l 450 721 l 461 736 m 136 856 l 97 767 l 88 753 l 76 751 l 69 751 l 68 758 l 64 789 l 83 900 l 100 926 l 113 933 l 126 942 l 140 935 l 151 931 l 151 915 l 153 901 l 136 856 m 832 115 l 801 44 l 788 22 l 781 14 l 763 7 l 749 10 l 736 24 l 738 38 l 738 38 l 718 22 l 700 19 l 689 18 l 681 26 l 665 38 l 665 46 l 664 68 l 669 86 l 690 142 l 742 267 l 768 324 l 778 340 l 800 349 l 807 353 l 818 342 l 829 332 l 839 304 l 832 253 l 818 217 l 831 221 l 842 217 l 853 197 l 851 178 l 832 115 m 882 25 l 882 42 l 874 35 l 861 24 l 849 25 l 832 28 l 825 56 l 832 86 l 861 150 l 871 167 l 888 175 l 901 174 l 915 161 l 917 146 l 908 94 l 899 74 l 907 74 l 919 72 l 918 60 l 918 40 l 907 25 l 900 17 l 882 25 m 957 54 l 967 49 l 956 36 l 947 43 l 957 54 z "},"L":{"ha":869,"x_min":68,"x_max":885,"o":"m 233 864 l 182 738 l 147 656 l 111 569 l 93 547 l 82 558 l 76 579 l 81 631 l 113 714 l 103 708 l 100 721 l 93 760 l 108 914 l 139 965 l 153 972 l 165 979 l 189 976 l 200 969 l 210 953 l 208 940 l 204 924 l 211 932 l 228 943 l 238 938 l 247 933 l 249 917 l 233 864 m 414 799 l 407 713 l 376 625 l 335 526 l 197 196 l 160 104 l 138 53 l 124 31 l 110 22 l 100 15 l 89 21 l 75 29 l 72 39 l 68 65 l 107 178 l 100 174 l 96 185 l 90 222 l 128 374 l 315 829 l 363 933 l 371 947 l 388 957 l 399 963 l 422 946 l 422 929 l 422 914 l 406 865 l 410 853 l 414 799 m 325 875 l 156 468 l 114 369 l 92 339 l 83 344 l 75 351 l 74 358 l 74 378 l 99 494 l 111 526 l 111 528 l 115 546 l 132 594 l 210 779 l 256 892 l 265 911 l 276 914 l 286 932 l 308 949 l 322 946 l 333 944 l 336 929 l 339 917 l 325 875 m 417 489 l 411 374 l 368 254 l 304 101 l 246 11 l 233 3 l 214 1 l 203 0 l 181 18 l 178 40 l 182 60 l 179 53 l 156 43 l 156 50 l 161 79 l 206 189 l 358 557 l 394 646 l 415 665 l 424 649 l 419 631 l 397 568 l 396 567 l 411 565 l 414 554 l 417 489 m 458 254 l 419 142 l 382 64 l 376 50 l 375 49 l 374 44 l 369 42 l 365 35 l 365 38 l 353 26 l 344 19 l 314 17 l 306 31 l 299 40 l 301 56 l 321 113 l 388 274 l 400 301 l 406 315 l 418 325 l 432 332 l 442 318 l 458 254 m 718 142 l 674 44 l 649 29 l 647 36 l 644 54 l 632 29 l 607 11 l 578 8 l 565 15 l 553 24 l 553 31 l 550 53 l 554 68 l 571 113 l 613 213 l 639 257 l 649 268 l 665 276 l 675 281 l 694 279 l 706 278 l 713 268 l 722 250 l 721 240 l 718 224 l 728 229 l 739 231 l 743 215 l 739 193 l 718 142 m 582 169 l 547 83 l 519 26 l 508 11 l 490 7 l 481 4 l 476 11 l 468 31 l 471 40 l 463 29 l 453 21 l 432 15 l 425 13 l 411 21 l 401 28 l 400 39 l 397 56 l 406 85 l 444 181 l 478 247 l 500 269 l 514 274 l 528 278 l 540 269 l 553 261 l 554 243 l 549 225 l 558 232 l 568 240 l 579 238 l 593 233 l 593 221 l 594 204 l 582 169 m 785 86 l 763 47 l 756 38 l 754 44 l 751 54 l 740 43 l 725 47 l 714 51 l 714 60 l 713 81 l 729 129 l 768 222 l 788 257 l 797 269 l 818 275 l 828 271 l 836 250 l 833 235 l 821 196 l 818 190 l 825 190 l 821 175 l 803 131 l 785 86 m 860 64 l 846 57 l 832 57 l 817 68 l 817 86 l 844 169 l 858 196 l 864 206 l 871 201 l 881 194 l 885 171 l 881 97 l 875 81 l 860 64 z "},"M":{"ha":1189,"x_min":61,"x_max":1119,"o":"m 221 889 l 121 646 l 93 586 l 75 576 l 65 592 l 67 669 l 92 756 l 106 789 l 99 797 l 97 810 l 97 915 l 103 940 l 113 957 l 118 967 l 143 979 l 163 974 l 172 971 l 175 964 l 182 942 l 181 933 l 192 943 l 208 940 l 221 938 l 222 926 l 226 907 l 221 889 m 824 951 l 843 967 l 865 958 l 865 951 l 865 942 l 868 944 l 882 951 l 896 958 l 917 954 l 925 953 l 929 946 l 939 928 l 936 917 l 929 889 l 718 379 l 688 307 l 654 257 l 639 246 l 621 242 l 610 240 l 601 249 l 588 261 l 588 268 l 586 290 l 588 294 l 578 286 l 563 290 l 551 292 l 546 303 l 539 319 l 542 342 l 558 390 l 588 463 l 694 722 l 775 881 l 824 951 m 1090 836 l 888 347 l 858 275 l 846 247 l 815 172 l 792 143 l 793 151 l 801 181 l 815 214 l 815 214 l 803 217 l 801 228 l 800 256 l 815 374 l 882 539 l 992 806 l 1043 925 l 1053 942 l 1067 953 l 1076 961 l 1083 958 l 1103 953 l 1110 936 l 1090 836 m 408 803 l 371 701 l 324 585 l 167 210 l 108 69 l 93 40 l 81 42 l 69 44 l 65 56 l 61 74 l 63 96 l 99 201 l 92 193 l 96 203 l 106 231 l 121 267 l 117 264 l 111 251 l 101 239 l 110 260 l 110 260 l 103 254 l 99 265 l 94 299 l 125 433 l 292 836 l 333 931 l 354 951 l 363 960 l 378 951 l 388 944 l 389 931 l 375 869 l 374 856 l 369 846 l 394 853 l 408 840 l 408 829 l 408 803 m 286 864 l 133 494 l 96 410 l 72 392 l 65 421 l 89 526 l 104 563 l 104 567 l 131 636 l 221 854 l 247 913 l 260 928 l 260 918 l 264 924 l 271 932 l 282 931 l 293 931 l 296 918 l 299 903 l 286 864 m 975 811 l 864 542 l 826 453 l 806 401 l 793 379 l 778 372 l 742 353 l 717 317 l 710 304 l 701 313 l 704 319 l 700 324 l 708 344 l 744 431 l 888 775 l 933 885 l 953 914 l 951 906 l 951 904 l 967 921 l 978 929 l 1001 924 l 1003 915 l 1007 896 l 1000 874 l 975 811 m 450 665 l 247 178 l 217 106 l 197 63 l 186 43 l 174 42 l 167 39 l 167 50 l 171 67 l 157 49 l 149 42 l 135 47 l 125 51 l 126 64 l 135 93 l 179 203 l 365 650 l 418 776 l 438 804 l 449 810 l 464 792 l 461 774 l 446 722 l 465 732 l 465 721 l 464 704 l 450 665 m 1065 542 l 903 151 l 864 60 l 846 36 l 847 43 l 849 51 l 836 42 l 822 46 l 811 49 l 808 60 l 803 76 l 806 97 l 822 151 l 854 229 l 1038 674 l 1083 783 l 1108 808 l 1118 797 l 1119 786 l 1115 686 l 1081 593 l 1083 594 l 1081 583 l 1065 542 m 378 131 l 369 35 l 363 17 l 350 3 l 342 -6 l 326 -10 l 313 -12 l 300 -3 l 290 6 l 290 17 l 294 49 l 303 69 l 261 19 l 243 15 l 225 24 l 214 29 l 213 40 l 210 60 l 214 74 l 254 174 l 425 586 l 472 699 l 481 715 l 494 725 l 506 732 l 521 724 l 532 718 l 539 704 l 551 661 l 549 632 l 533 592 l 586 618 l 626 671 l 651 699 l 647 685 l 622 622 l 518 371 l 488 311 l 476 296 l 465 296 l 449 294 l 438 310 l 443 403 l 431 386 l 419 371 l 414 353 l 403 282 l 368 190 l 372 182 l 378 131 m 1100 261 l 1097 175 l 1067 79 l 1046 35 l 1028 13 l 1014 6 l 1003 0 l 982 3 l 971 11 l 960 31 l 963 46 l 972 81 l 946 32 l 933 21 l 917 18 l 899 22 l 885 35 l 883 51 l 911 143 l 1047 471 l 1085 556 l 1106 560 l 1110 544 l 1114 481 l 1104 396 l 1081 335 l 1094 333 l 1097 319 l 1100 261 m 1076 44 l 1074 67 l 1081 85 l 1085 96 l 1094 103 l 1108 108 l 1113 90 l 1111 64 l 1110 53 l 1100 42 l 1088 32 l 1076 44 z "},"N":{"ha":1028,"x_min":61,"x_max":965,"o":"m 246 878 l 146 638 l 111 553 l 94 526 l 82 536 l 85 551 l 104 604 l 100 601 l 94 619 l 94 692 l 128 800 l 165 892 l 197 950 l 208 964 l 231 969 l 238 971 l 242 964 l 251 946 l 247 931 l 242 911 l 246 915 l 256 913 l 254 906 l 246 878 m 936 733 l 929 678 l 861 501 l 729 181 l 693 96 l 671 49 l 649 31 l 642 32 l 622 35 l 615 44 l 606 58 l 603 94 l 626 160 l 621 158 l 610 156 l 604 165 l 596 178 l 596 207 l 614 260 l 653 353 l 847 821 l 896 933 l 903 946 l 918 957 l 926 964 l 940 957 l 951 950 l 953 931 l 935 867 l 926 847 l 931 846 l 935 829 l 936 733 m 563 581 l 558 572 l 561 574 l 579 576 l 583 585 l 592 603 l 594 643 l 597 721 l 640 851 l 660 889 l 661 900 l 675 942 l 699 961 l 710 947 l 707 936 l 707 935 l 714 936 l 725 938 l 739 932 l 751 926 l 753 914 l 754 899 l 746 869 l 543 381 l 514 308 l 497 272 l 475 249 l 467 251 l 446 256 l 440 267 l 432 281 l 429 300 l 467 431 l 467 433 l 465 440 l 475 468 l 535 611 l 554 647 l 565 654 l 579 647 l 579 638 l 563 581 m 350 849 l 156 381 l 110 271 l 100 251 l 89 250 l 79 250 l 76 261 l 74 293 l 83 417 l 121 514 l 113 494 l 99 483 l 99 504 l 106 525 l 129 583 l 242 854 l 263 901 l 272 917 l 290 922 l 286 910 l 303 935 l 310 944 l 332 951 l 339 954 l 356 944 l 364 938 l 367 922 l 368 907 l 350 849 m 831 831 l 625 335 l 574 215 l 557 190 l 550 181 l 542 190 l 532 201 l 536 225 l 550 263 l 542 261 l 540 272 l 538 292 l 542 306 l 590 426 l 761 839 l 804 933 l 813 947 l 826 950 l 838 951 l 839 938 l 833 914 l 840 915 l 851 914 l 853 900 l 847 875 l 831 831 m 124 836 l 100 779 l 90 758 l 67 750 l 65 757 l 61 788 l 88 894 l 103 919 l 115 928 l 126 935 l 139 928 l 147 922 l 147 903 l 124 836 m 429 686 l 218 176 l 165 51 l 144 24 l 136 15 l 125 21 l 114 26 l 115 35 l 118 60 l 119 61 l 114 61 l 101 61 l 96 72 l 89 88 l 89 121 l 97 206 l 124 279 l 299 704 l 351 831 l 371 874 l 379 890 l 404 907 l 414 903 l 428 896 l 432 889 l 443 871 l 438 793 l 426 767 l 444 764 l 446 749 l 429 686 m 488 568 l 421 408 l 382 325 l 363 268 l 308 135 l 264 33 l 244 11 l 236 3 l 226 10 l 214 17 l 214 25 l 217 47 l 217 50 l 213 49 l 204 46 l 200 57 l 194 68 l 200 89 l 250 213 l 417 613 l 458 715 l 474 740 l 481 750 l 489 749 l 501 749 l 503 740 l 506 725 l 503 704 l 485 656 l 494 663 l 510 653 l 510 642 l 508 622 l 488 568 m 935 460 l 881 314 l 797 115 l 760 40 l 750 29 l 735 32 l 728 32 l 728 40 l 728 63 l 715 51 l 713 58 l 706 75 l 710 86 l 753 192 l 890 526 l 928 615 l 940 640 l 943 647 l 961 647 l 961 632 l 944 558 l 928 521 l 932 518 l 940 511 l 940 500 l 935 460 m 922 118 l 897 57 l 888 40 l 863 24 l 863 32 l 858 50 l 860 53 l 846 39 l 833 31 l 811 35 l 804 36 l 801 43 l 794 61 l 800 82 l 826 151 l 908 350 l 928 397 l 938 418 l 957 429 l 960 422 l 965 396 l 960 288 l 928 196 l 928 196 l 935 197 l 936 181 l 922 118 m 361 17 l 343 -7 l 322 -11 l 315 -12 l 310 -6 l 300 13 l 304 35 l 319 75 l 317 81 l 322 94 l 336 132 l 385 249 l 401 285 l 408 297 l 417 297 l 425 294 l 425 279 l 407 208 l 369 121 l 371 118 l 361 17 m 914 61 l 919 82 l 925 96 l 936 107 l 946 92 l 943 82 l 936 64 l 914 61 z "},"O":{"ha":1031,"x_min":39,"x_max":976,"o":"m 564 879 l 529 797 l 506 747 l 428 654 l 399 497 l 360 389 l 311 269 l 250 126 l 238 108 l 232 99 l 217 92 l 206 88 l 196 93 l 183 101 l 179 113 l 175 128 l 178 144 l 190 185 l 186 175 l 175 167 l 167 160 l 165 171 l 165 186 l 172 207 l 229 343 l 421 808 l 468 917 l 492 942 l 494 932 l 497 925 l 493 914 l 490 906 l 504 935 l 514 949 l 540 967 l 558 964 l 571 963 l 574 956 l 581 933 l 576 918 l 564 879 m 454 890 l 222 335 l 168 206 l 158 186 l 144 178 l 135 171 l 128 182 l 119 196 l 122 221 l 135 260 l 129 250 l 115 247 l 119 258 l 131 285 l 179 406 l 347 808 l 385 900 l 401 929 l 404 918 l 393 882 l 410 918 l 431 946 l 439 956 l 450 954 l 463 953 l 464 942 l 467 925 l 454 890 m 371 881 l 176 413 l 128 296 l 115 265 l 108 257 l 106 268 l 111 279 l 97 271 l 96 282 l 94 313 l 140 431 l 306 829 l 349 924 l 376 943 l 381 925 l 376 907 l 383 915 l 381 908 l 371 881 m 674 861 l 621 728 l 599 689 l 589 678 l 574 675 l 558 674 l 546 681 l 533 689 l 529 699 l 519 715 l 521 744 l 535 783 l 535 785 l 535 796 l 547 826 l 571 885 l 592 924 l 606 928 l 604 922 l 613 931 l 631 935 l 642 938 l 657 931 l 671 924 l 675 914 l 681 896 l 674 861 m 804 764 l 551 156 l 518 78 l 486 22 l 475 10 l 460 6 l 449 1 l 435 8 l 424 14 l 419 32 l 428 63 l 425 58 l 407 50 l 393 53 l 381 68 l 382 76 l 388 99 l 404 143 l 435 215 l 451 247 l 460 260 l 481 267 l 492 261 l 501 244 l 499 229 l 499 228 l 500 229 l 593 306 l 614 376 l 621 518 l 658 632 l 644 629 l 640 642 l 640 701 l 667 775 l 706 868 l 731 917 l 739 929 l 758 935 l 769 932 l 779 917 l 778 906 l 772 883 l 781 890 l 800 890 l 814 885 l 828 867 l 829 849 l 804 764 m 307 867 l 129 438 l 86 335 l 68 313 l 58 306 l 51 313 l 40 324 l 39 344 l 69 463 l 72 468 l 63 464 l 63 472 l 61 489 l 78 579 l 121 685 l 189 847 l 231 910 l 247 919 l 257 908 l 263 903 l 274 913 l 282 919 l 296 922 l 311 924 l 314 913 l 318 903 l 315 892 l 307 867 m 44 653 l 107 801 l 126 824 l 135 831 l 149 826 l 160 824 l 156 810 l 138 760 l 83 628 l 67 590 l 60 576 l 39 575 l 39 590 l 44 653 m 858 715 l 638 182 l 582 53 l 560 24 l 553 15 l 543 21 l 529 29 l 531 38 l 533 53 l 522 50 l 524 61 l 533 97 l 590 233 l 758 640 l 821 790 l 835 817 l 846 822 l 857 828 l 854 819 l 849 801 l 853 808 l 861 817 l 868 814 l 879 807 l 879 792 l 858 715 m 949 532 l 882 368 l 782 126 l 735 38 l 724 25 l 707 24 l 699 24 l 696 35 l 690 50 l 690 51 l 668 25 l 651 15 l 632 15 l 619 15 l 613 25 l 601 36 l 601 43 l 601 65 l 619 118 l 657 207 l 818 596 l 868 715 l 888 760 l 896 776 l 919 796 l 926 792 l 946 785 l 953 771 l 964 706 l 938 625 l 947 628 l 954 629 l 957 622 l 963 603 l 963 589 l 949 532 m 972 410 l 894 133 l 829 75 l 810 79 l 803 81 l 803 88 l 801 103 l 803 104 l 793 93 l 792 101 l 792 119 l 822 194 l 924 440 l 951 506 l 961 526 l 976 519 l 972 506 l 956 464 l 960 461 l 969 458 l 971 447 l 972 410 m 406 235 l 353 83 l 325 32 l 315 21 l 294 10 l 288 7 l 269 10 l 258 13 l 251 22 l 242 35 l 240 43 l 239 64 l 244 82 l 263 126 l 260 132 l 264 142 l 275 172 l 357 371 l 376 414 l 388 433 l 403 440 l 401 429 l 385 381 l 372 350 l 376 351 l 390 331 l 406 235 z "},"P":{"ha":979,"x_min":63,"x_max":956,"o":"m 663 858 l 615 743 l 596 711 l 590 701 l 578 703 l 563 704 l 558 719 l 554 733 l 560 756 l 540 744 l 522 746 l 511 747 l 500 763 l 493 772 l 494 779 l 499 801 l 513 839 l 538 900 l 565 950 l 574 963 l 600 978 l 624 974 l 635 965 l 646 944 l 643 929 l 640 919 l 651 921 l 664 921 l 668 910 l 674 894 l 671 883 l 663 858 m 131 815 l 106 758 l 96 738 l 81 743 l 85 754 l 93 779 l 107 813 l 97 840 l 107 931 l 114 947 l 133 969 l 149 971 l 160 972 l 165 958 l 171 944 l 167 933 l 160 908 l 157 901 l 161 899 l 158 888 l 146 853 l 131 815 m 279 815 l 135 467 l 100 385 l 81 364 l 78 371 l 75 400 l 104 501 l 104 504 l 97 507 l 85 511 l 83 529 l 82 629 l 158 867 l 199 943 l 211 957 l 233 967 l 240 969 l 258 965 l 269 963 l 272 956 l 282 933 l 279 921 l 274 904 l 276 910 l 294 924 l 301 928 l 306 921 l 310 899 l 279 815 m 503 856 l 469 776 l 432 696 l 390 583 l 236 213 l 196 117 l 174 63 l 161 39 l 147 32 l 138 25 l 135 38 l 132 54 l 133 57 l 132 56 l 119 57 l 108 60 l 104 74 l 100 88 l 106 121 l 168 281 l 392 821 l 425 899 l 450 944 l 464 961 l 481 965 l 494 965 l 506 944 l 501 925 l 500 921 l 503 925 l 521 911 l 518 897 l 503 856 m 404 907 l 369 808 l 321 689 l 160 303 l 101 163 l 82 131 l 74 121 l 69 131 l 64 143 l 63 169 l 78 324 l 157 518 l 293 846 l 336 929 l 349 942 l 368 947 l 376 950 l 393 942 l 403 938 l 403 929 l 404 907 m 801 733 l 667 410 l 642 356 l 622 333 l 603 338 l 596 338 l 596 346 l 599 363 l 597 361 l 578 346 l 565 353 l 556 357 l 556 368 l 560 397 l 572 432 l 539 369 l 529 358 l 514 361 l 511 353 l 513 360 l 513 361 l 501 363 l 500 374 l 497 390 l 501 404 l 543 506 l 579 579 l 619 660 l 643 746 l 688 854 l 714 915 l 725 935 l 754 947 l 769 936 l 769 918 l 754 867 l 768 894 l 775 903 l 792 911 l 804 907 l 815 890 l 814 879 l 808 854 l 810 856 l 817 853 l 832 850 l 832 842 l 833 824 l 826 799 l 801 733 m 874 708 l 794 517 l 739 385 l 700 328 l 683 318 l 672 324 l 658 332 l 658 339 l 658 354 l 665 383 l 668 389 l 665 388 l 671 406 l 700 482 l 790 700 l 821 772 l 832 794 l 844 796 l 844 796 l 864 797 l 871 799 l 875 792 l 885 774 l 885 758 l 874 708 m 956 676 l 954 621 l 919 521 l 922 519 l 918 508 l 906 478 l 897 475 l 868 418 l 800 367 l 776 367 l 763 381 l 765 400 l 788 464 l 869 663 l 897 722 l 908 736 l 919 738 l 935 739 l 943 726 l 951 714 l 956 676 m 471 396 l 404 235 l 360 128 l 328 53 l 313 28 l 306 18 l 275 13 l 264 28 l 267 38 l 267 42 l 265 40 l 243 29 l 236 26 l 218 29 l 208 32 l 206 39 l 196 61 l 199 72 l 208 107 l 244 193 l 372 503 l 414 601 l 439 625 l 458 600 l 476 526 l 474 518 l 486 522 l 496 525 l 500 518 l 510 500 l 507 492 l 471 396 m 454 144 l 425 82 l 415 69 l 386 63 l 374 75 l 375 82 l 378 104 l 401 164 l 433 242 l 447 268 l 454 271 l 463 275 l 464 267 l 469 243 l 454 144 m 431 75 l 442 94 l 443 83 l 444 69 l 431 75 z "},"Q":{"ha":1031,"x_min":40,"x_max":985,"o":"m 686 846 l 639 735 l 621 701 l 613 690 l 603 690 l 588 689 l 583 700 l 578 715 l 582 744 l 588 756 l 575 743 l 556 739 l 543 736 l 535 744 l 522 756 l 522 763 l 521 786 l 526 804 l 546 853 l 571 914 l 589 950 l 610 972 l 628 976 l 638 979 l 647 972 l 661 960 l 663 951 l 664 924 l 660 914 l 674 926 l 686 921 l 697 917 l 699 886 l 686 846 m 560 908 l 522 817 l 492 749 l 424 650 l 406 564 l 392 507 l 357 418 l 299 278 l 258 179 l 233 125 l 215 103 l 199 101 l 188 100 l 178 113 l 169 125 l 171 136 l 172 158 l 188 199 l 188 196 l 176 178 l 163 169 l 154 163 l 146 169 l 135 179 l 135 186 l 138 208 l 157 261 l 196 353 l 389 818 l 439 933 l 458 957 l 468 964 l 479 958 l 489 953 l 489 936 l 479 901 l 500 946 l 522 967 l 539 968 l 551 969 l 558 961 l 568 950 l 567 938 l 560 908 m 399 863 l 186 350 l 135 231 l 125 210 l 114 207 l 103 203 l 100 214 l 96 229 l 100 247 l 114 283 l 101 267 l 92 260 l 82 265 l 72 271 l 71 279 l 68 300 l 78 347 l 110 431 l 269 815 l 315 917 l 336 940 l 346 947 l 357 947 l 372 947 l 376 932 l 379 921 l 375 910 l 375 908 l 386 926 l 394 936 l 418 932 l 417 919 l 399 863 m 750 832 l 717 750 l 696 703 l 676 658 l 669 651 l 654 615 l 625 551 l 613 536 l 610 547 l 622 593 l 647 651 l 644 658 l 651 714 l 721 885 l 744 926 l 757 938 l 776 929 l 776 914 l 750 832 m 257 808 l 113 461 l 88 399 l 75 372 l 58 350 l 50 357 l 40 363 l 42 371 l 43 385 l 75 482 l 74 481 l 65 500 l 65 590 l 74 646 l 119 764 l 167 863 l 217 913 l 239 924 l 254 926 l 263 928 l 263 919 l 264 900 l 263 897 l 272 903 l 286 889 l 281 871 l 257 808 m 806 703 l 590 183 l 539 60 l 524 33 l 517 24 l 514 33 l 513 39 l 507 29 l 488 14 l 481 10 l 463 13 l 451 15 l 447 29 l 443 43 l 450 75 l 478 147 l 524 236 l 606 324 l 629 499 l 663 593 l 713 713 l 763 832 l 782 868 l 790 879 l 818 890 l 828 883 l 840 874 l 842 865 l 846 844 l 843 831 l 829 785 l 828 783 l 832 783 l 831 768 l 806 703 m 913 649 l 700 135 l 649 13 l 639 -4 l 624 -15 l 615 -22 l 604 -17 l 590 -11 l 589 -3 l 586 18 l 593 35 l 589 31 l 578 31 l 565 31 l 563 43 l 560 58 l 565 81 l 588 135 l 622 221 l 811 675 l 857 785 l 878 810 l 886 818 l 897 813 l 908 807 l 908 792 l 894 743 l 901 749 l 915 739 l 925 732 l 926 717 l 913 649 m 64 724 l 74 744 l 96 761 l 93 751 l 75 703 l 67 682 l 64 689 l 56 703 l 64 724 m 932 569 l 736 96 l 688 -15 l 660 -42 l 657 -32 l 653 -18 l 657 0 l 707 124 l 876 533 l 918 633 l 925 643 l 933 660 l 936 667 l 935 656 l 940 664 l 956 651 l 956 644 l 932 569 m 968 301 l 932 192 l 893 111 l 876 53 l 844 -29 l 819 -65 l 807 -75 l 793 -78 l 778 -82 l 769 -74 l 757 -64 l 756 -51 l 758 -24 l 758 -24 l 756 -31 l 733 -54 l 724 -61 l 714 -54 l 699 -47 l 699 -39 l 699 -19 l 710 19 l 742 94 l 903 483 l 943 579 l 965 607 l 974 600 l 983 594 l 983 586 l 985 556 l 939 414 l 950 432 l 969 443 l 971 436 l 976 411 l 968 301 m 401 161 l 361 67 l 343 43 l 335 33 l 324 33 l 304 32 l 303 49 l 301 64 l 307 82 l 306 81 l 294 71 l 279 69 l 264 69 l 254 81 l 243 93 l 244 111 l 269 188 l 367 419 l 383 460 l 392 478 l 414 478 l 418 463 l 422 392 l 417 336 l 396 278 l 406 275 l 418 269 l 422 254 l 401 161 m 471 158 l 432 75 l 429 71 l 419 49 l 408 31 l 396 40 l 399 49 l 401 57 l 392 56 l 392 72 l 392 89 l 401 117 l 429 181 l 453 235 l 463 251 l 475 260 l 489 260 l 497 246 l 496 224 l 471 158 m 869 11 l 874 21 l 881 31 l 879 15 l 886 18 l 903 26 l 911 19 l 926 7 l 928 -11 l 911 -64 l 901 -76 l 876 -81 l 856 -68 l 854 -53 l 864 -17 l 860 -18 l 864 -4 l 869 11 z "},"R":{"ha":1003,"x_min":56,"x_max":965,"o":"m 397 525 l 333 360 l 231 114 l 185 24 l 178 14 l 160 8 l 151 6 l 147 17 l 140 32 l 143 47 l 160 90 l 154 76 l 132 43 l 124 35 l 114 43 l 104 51 l 107 58 l 113 82 l 108 76 l 100 85 l 89 96 l 88 107 l 86 131 l 92 186 l 131 294 l 328 769 l 376 889 l 403 938 l 413 950 l 439 963 l 453 957 l 463 953 l 464 944 l 463 919 l 468 928 l 478 932 l 490 932 l 494 917 l 492 892 l 475 850 l 508 914 l 518 925 l 533 926 l 544 924 l 550 908 l 547 883 l 522 818 l 497 761 l 481 736 l 463 721 l 447 729 l 440 733 l 392 614 l 394 617 l 401 601 l 404 576 l 397 525 m 343 825 l 156 375 l 110 265 l 104 256 l 82 244 l 81 257 l 83 289 l 113 367 l 103 350 l 92 351 l 82 353 l 79 365 l 78 393 l 82 496 l 128 633 l 217 844 l 271 946 l 286 958 l 308 963 l 321 958 l 339 943 l 339 928 l 339 911 l 332 893 l 336 901 l 361 922 l 372 904 l 365 883 l 343 825 m 229 896 l 186 786 l 124 636 l 103 588 l 94 571 l 75 563 l 71 574 l 67 614 l 74 767 l 111 871 l 142 929 l 164 949 l 182 954 l 193 957 l 208 951 l 222 946 l 226 936 l 232 918 l 229 896 m 615 857 l 575 763 l 558 738 l 551 728 l 540 729 l 525 729 l 524 744 l 521 758 l 526 776 l 525 775 l 528 782 l 529 786 l 531 789 l 532 793 l 538 810 l 567 882 l 576 901 l 581 913 l 596 918 l 596 918 l 597 919 l 608 919 l 621 919 l 624 908 l 628 892 l 615 857 m 704 854 l 568 526 l 490 338 l 453 289 l 425 278 l 419 267 l 408 251 l 406 228 l 404 163 l 368 46 l 350 10 l 342 -3 l 328 -8 l 313 -14 l 286 0 l 285 11 l 286 38 l 358 215 l 433 397 l 475 496 l 513 544 l 556 588 l 564 690 l 601 796 l 601 796 l 601 797 l 613 829 l 638 883 l 639 886 l 640 892 l 646 899 l 646 900 l 646 900 l 658 918 l 656 907 l 669 919 l 692 917 l 703 910 l 714 890 l 711 879 l 704 854 m 89 857 l 72 836 l 56 851 l 57 863 l 64 896 l 69 910 l 93 917 l 96 910 l 101 892 l 97 881 l 89 857 m 789 740 l 638 375 l 578 231 l 565 208 l 556 197 l 544 196 l 546 204 l 551 235 l 551 238 l 540 236 l 532 235 l 524 243 l 513 256 l 508 271 l 526 393 l 669 738 l 714 844 l 742 892 l 765 907 l 778 907 l 799 900 l 814 883 l 815 868 l 800 804 l 807 808 l 807 797 l 789 740 m 918 592 l 851 431 l 808 351 l 782 265 l 718 107 l 685 38 l 674 22 l 656 14 l 647 10 l 636 14 l 618 25 l 606 44 l 606 56 l 610 92 l 619 115 l 615 113 l 606 106 l 597 114 l 585 128 l 581 151 l 586 201 l 621 290 l 790 697 l 835 803 l 853 831 l 860 840 l 871 839 l 890 832 l 901 815 l 901 800 l 890 744 l 889 744 l 896 750 l 906 743 l 919 735 l 926 718 l 918 592 m 439 756 l 450 789 l 372 601 l 383 610 l 424 707 l 438 739 l 439 756 m 933 506 l 919 485 l 906 476 l 896 471 l 897 478 l 901 503 l 933 582 l 944 607 l 953 607 l 965 603 l 963 585 l 933 506 m 456 472 l 306 110 l 265 29 l 254 17 l 239 18 l 231 18 l 229 26 l 228 57 l 243 93 l 243 94 l 253 124 l 275 178 l 386 444 l 418 515 l 433 535 l 432 522 l 442 529 l 451 526 l 464 521 l 464 508 l 456 472 m 801 111 l 776 53 l 763 32 l 746 17 l 742 24 l 732 38 l 735 53 l 740 67 l 731 68 l 732 83 l 749 136 l 806 269 l 814 286 l 829 297 l 839 300 l 842 282 l 838 257 l 821 215 l 832 206 l 829 183 l 801 111 m 850 26 l 835 26 l 828 26 l 826 33 l 824 53 l 829 74 l 843 107 l 814 53 l 800 43 l 796 57 l 800 82 l 815 119 l 844 179 l 860 190 l 864 176 l 863 158 l 847 115 l 850 121 l 858 138 l 881 153 l 889 144 l 899 136 l 897 129 l 896 103 l 882 69 l 850 26 m 913 25 l 894 35 l 893 46 l 890 61 l 901 89 l 911 94 l 925 103 l 935 96 l 947 88 l 949 79 l 951 56 l 939 35 l 935 28 l 913 25 m 396 72 l 410 96 l 415 86 l 425 75 l 419 53 l 418 46 l 400 38 l 397 44 l 396 72 z "},"S":{"ha":968,"x_min":39,"x_max":943,"o":"m 583 918 l 549 833 l 525 786 l 494 754 l 494 754 l 493 753 l 475 733 l 463 719 l 458 704 l 456 690 l 457 671 l 458 629 l 419 522 l 388 454 l 371 435 l 364 431 l 361 425 l 344 394 l 336 386 l 331 396 l 332 403 l 338 421 l 340 428 l 336 429 l 325 433 l 322 444 l 321 472 l 357 565 l 490 889 l 528 969 l 547 992 l 557 1000 l 569 999 l 586 997 l 592 983 l 597 968 l 594 957 l 583 918 m 669 764 l 639 693 l 626 671 l 619 661 l 601 654 l 588 657 l 575 669 l 575 688 l 585 715 l 576 717 l 565 719 l 558 728 l 546 742 l 546 750 l 544 772 l 550 789 l 568 838 l 603 918 l 624 963 l 646 981 l 653 981 l 682 974 l 701 954 l 701 943 l 701 924 l 692 900 l 678 867 l 682 865 l 694 846 l 692 828 l 669 764 m 438 839 l 301 511 l 276 454 l 265 433 l 249 426 l 242 425 l 242 432 l 244 450 l 226 456 l 219 458 l 218 469 l 217 496 l 250 582 l 367 864 l 394 929 l 410 956 l 425 974 l 444 976 l 457 972 l 467 957 l 464 940 l 454 915 l 460 914 l 458 903 l 438 839 m 346 846 l 221 543 l 194 486 l 185 469 l 176 468 l 157 463 l 154 471 l 146 499 l 158 538 l 154 536 l 139 532 l 126 543 l 118 551 l 114 565 l 122 635 l 149 700 l 197 815 l 231 893 l 253 936 l 289 965 l 301 972 l 324 968 l 332 967 l 333 956 l 336 938 l 349 946 l 363 938 l 369 933 l 369 915 l 346 846 m 814 711 l 790 676 l 781 668 l 765 668 l 753 668 l 747 683 l 744 694 l 744 696 l 743 696 l 725 694 l 713 694 l 706 703 l 694 718 l 694 725 l 696 747 l 710 786 l 735 844 l 750 874 l 756 883 l 778 893 l 790 893 l 811 882 l 815 868 l 821 853 l 814 818 l 804 793 l 815 786 l 824 779 l 826 764 l 814 711 m 71 758 l 126 858 l 150 878 l 161 876 l 174 874 l 172 867 l 171 850 l 185 874 l 193 883 l 196 876 l 197 851 l 114 650 l 92 603 l 81 593 l 78 606 l 74 617 l 79 631 l 92 665 l 92 665 l 85 657 l 64 661 l 61 676 l 71 758 m 869 728 l 857 729 l 858 736 l 863 750 l 864 758 l 872 760 l 886 761 l 882 742 l 869 728 m 528 424 l 501 364 l 485 343 l 468 331 l 454 336 l 444 339 l 442 351 l 444 381 l 449 394 l 435 396 l 418 406 l 408 422 l 410 438 l 421 481 l 457 568 l 482 614 l 504 632 l 519 635 l 532 636 l 544 626 l 554 619 l 557 606 l 558 590 l 556 575 l 546 550 l 554 550 l 557 543 l 563 525 l 561 514 l 528 424 m 700 429 l 549 63 l 521 11 l 513 -1 l 500 -10 l 482 -14 l 461 -4 l 463 3 l 464 19 l 464 19 l 453 15 l 442 11 l 432 17 l 415 25 l 415 32 l 411 51 l 417 76 l 447 151 l 494 244 l 553 286 l 568 297 l 569 308 l 574 326 l 568 340 l 556 383 l 574 454 l 614 550 l 640 585 l 651 594 l 674 596 l 685 590 l 699 574 l 699 558 l 693 533 l 696 536 l 710 526 l 719 518 l 719 500 l 700 429 m 760 403 l 635 101 l 601 32 l 588 21 l 579 17 l 579 24 l 578 43 l 581 47 l 572 58 l 575 69 l 610 160 l 731 450 l 763 517 l 778 526 l 786 526 l 785 510 l 774 475 l 779 472 l 778 464 l 760 403 m 829 371 l 772 235 l 735 146 l 707 81 l 690 49 l 667 35 l 660 51 l 654 46 l 649 61 l 651 86 l 668 128 l 779 397 l 806 458 l 815 478 l 838 492 l 842 472 l 836 456 l 838 457 l 853 444 l 849 426 l 829 371 m 922 354 l 863 196 l 810 86 l 754 46 l 731 49 l 719 63 l 721 81 l 729 103 l 725 94 l 729 110 l 751 165 l 832 360 l 847 386 l 867 426 l 881 440 l 894 436 l 906 433 l 913 419 l 921 406 l 922 354 m 306 247 l 268 158 l 251 129 l 244 117 l 231 110 l 224 93 l 201 54 l 192 69 l 196 79 l 203 100 l 207 110 l 204 111 l 193 117 l 192 132 l 189 147 l 196 176 l 232 264 l 258 311 l 285 331 l 303 326 l 314 324 l 317 308 l 321 293 l 317 282 l 306 247 m 926 215 l 910 183 l 888 154 l 879 147 l 872 149 l 860 153 l 861 164 l 868 192 l 907 285 l 918 307 l 924 318 l 932 317 l 940 317 l 942 308 l 943 294 l 926 215 m 397 108 l 356 14 l 338 -10 l 331 -18 l 319 -17 l 301 -15 l 293 13 l 301 42 l 306 51 l 300 51 l 289 51 l 278 61 l 267 72 l 267 81 l 267 106 l 286 157 l 324 246 l 343 282 l 351 294 l 374 301 l 381 304 l 390 299 l 406 289 l 408 282 l 415 261 l 403 204 l 400 197 l 407 196 l 410 189 l 417 171 l 414 157 l 397 108 m 158 167 l 142 129 l 132 114 l 115 108 l 113 124 l 118 149 l 119 154 l 119 154 l 107 164 l 99 172 l 97 190 l 117 258 l 143 294 l 151 303 l 167 303 l 182 299 l 185 282 l 186 271 l 181 250 l 175 238 l 181 236 l 178 222 l 158 167 m 92 239 l 79 214 l 67 207 l 56 201 l 49 210 l 39 221 l 40 229 l 43 253 l 63 281 l 78 282 l 90 283 l 93 272 l 97 253 l 92 239 z "},"T":{"ha":936,"x_min":14,"x_max":886,"o":"m 501 804 l 421 610 l 368 483 l 315 357 l 300 328 l 289 324 l 275 338 l 275 346 l 285 439 l 319 526 l 313 529 l 310 549 l 314 643 l 350 749 l 407 888 l 444 956 l 460 969 l 482 972 l 490 974 l 494 967 l 506 949 l 503 931 l 501 928 l 506 931 l 514 936 l 524 928 l 536 917 l 535 899 l 501 804 m 225 844 l 188 756 l 174 726 l 167 713 l 142 697 l 140 706 l 136 725 l 139 732 l 125 707 l 100 692 l 81 693 l 65 701 l 54 719 l 56 735 l 67 779 l 107 878 l 138 940 l 153 954 l 161 963 l 181 967 l 192 968 l 217 950 l 218 935 l 219 919 l 217 913 l 218 915 l 229 921 l 240 924 l 244 910 l 240 886 l 225 844 m 379 861 l 335 756 l 313 701 l 296 676 l 276 675 l 269 674 l 265 681 l 257 700 l 260 714 l 263 722 l 261 721 l 240 699 l 226 693 l 213 688 l 201 693 l 188 701 l 188 710 l 186 731 l 206 783 l 247 886 l 274 935 l 282 947 l 301 957 l 308 961 l 324 958 l 336 956 l 339 944 l 344 929 l 340 913 l 343 917 l 357 928 l 367 935 l 376 931 l 390 925 l 390 913 l 392 896 l 379 861 m 693 851 l 421 199 l 356 46 l 338 22 l 329 15 l 314 18 l 301 21 l 294 31 l 286 46 l 285 88 l 319 190 l 313 188 l 303 183 l 301 196 l 300 231 l 342 382 l 514 799 l 561 911 l 581 943 l 590 954 l 608 958 l 619 953 l 629 936 l 626 924 l 628 928 l 650 946 l 665 950 l 679 953 l 693 946 l 708 940 l 711 922 l 693 851 m 15 871 l 26 924 l 36 935 l 47 946 l 68 953 l 75 954 l 92 947 l 103 943 l 104 936 l 108 913 l 106 899 l 93 864 l 57 774 l 42 749 l 31 749 l 19 747 l 18 756 l 15 775 l 14 804 l 15 871 m 631 490 l 624 375 l 582 257 l 521 107 l 465 13 l 453 3 l 433 -3 l 421 -6 l 394 10 l 389 39 l 393 56 l 396 65 l 390 63 l 392 74 l 403 113 l 467 267 l 657 729 l 719 879 l 742 924 l 751 938 l 769 940 l 768 935 l 768 936 l 794 950 l 810 950 l 825 950 l 839 936 l 847 928 l 846 908 l 825 840 l 785 746 l 747 686 l 722 671 l 703 671 l 692 671 l 679 683 l 671 692 l 671 692 l 624 576 l 629 569 l 631 490 m 885 746 l 861 682 l 851 669 l 835 661 l 825 656 l 808 657 l 796 658 l 786 672 l 779 682 l 781 693 l 790 732 l 836 844 l 847 864 l 853 874 l 854 875 l 854 875 l 867 906 l 886 910 l 881 896 l 871 872 l 876 871 l 885 847 l 885 746 m 618 150 l 606 50 l 585 11 l 561 -8 l 546 -12 l 532 -15 l 507 1 l 506 8 l 503 32 l 508 50 l 524 90 l 569 200 l 586 238 l 592 242 l 610 283 l 622 308 l 629 319 l 640 321 l 636 310 l 621 269 l 610 242 l 615 238 l 617 215 l 618 150 z "},"U":{"ha":1036,"x_min":65,"x_max":985,"o":"m 349 831 l 164 386 l 136 317 l 119 283 l 103 265 l 86 268 l 78 271 l 75 282 l 72 317 l 103 413 l 89 399 l 86 406 l 81 432 l 81 538 l 143 739 l 196 865 l 224 933 l 240 958 l 257 969 l 267 976 l 282 978 l 296 979 l 308 971 l 321 963 l 322 936 l 317 922 l 321 929 l 347 944 l 361 938 l 371 932 l 372 924 l 374 901 l 368 882 l 349 831 m 861 946 l 867 921 l 861 903 l 843 858 l 797 749 l 606 285 l 533 110 l 510 56 l 492 19 l 472 -3 l 454 -10 l 443 -14 l 428 -12 l 411 -10 l 403 3 l 393 17 l 396 32 l 403 54 l 401 51 l 393 43 l 371 38 l 358 42 l 344 56 l 346 71 l 357 114 l 404 231 l 421 264 l 428 278 l 439 282 l 453 289 l 463 282 l 475 274 l 476 267 l 482 244 l 479 231 l 476 219 l 485 235 l 563 276 l 601 321 l 613 401 l 617 556 l 651 661 l 653 663 l 640 658 l 638 674 l 635 729 l 672 876 l 706 943 l 726 964 l 742 967 l 754 969 l 764 957 l 772 947 l 771 932 l 767 918 l 785 944 l 801 956 l 831 961 l 844 957 l 861 946 m 194 883 l 118 700 l 97 656 l 89 643 l 78 653 l 67 663 l 65 678 l 65 715 l 72 783 l 100 865 l 125 922 l 143 946 l 160 954 l 171 958 l 185 953 l 199 949 l 201 933 l 206 919 l 194 883 m 924 814 l 674 213 l 615 72 l 597 40 l 590 33 l 588 44 l 589 50 l 586 44 l 569 26 l 561 18 l 546 17 l 535 15 l 529 25 l 521 39 l 522 50 l 529 76 l 597 243 l 822 786 l 858 872 l 879 919 l 893 940 l 906 950 l 915 957 l 928 954 l 940 950 l 943 939 l 949 925 l 946 914 l 940 893 l 944 896 l 947 881 l 924 814 m 660 876 l 647 886 l 650 897 l 664 932 l 669 943 l 681 947 l 688 946 l 688 931 l 660 876 m 426 822 l 419 767 l 358 604 l 238 314 l 204 235 l 183 192 l 182 192 l 182 190 l 179 189 l 161 175 l 146 181 l 135 183 l 131 194 l 124 213 l 124 232 l 136 289 l 167 364 l 344 792 l 386 892 l 390 901 l 414 914 l 424 900 l 426 878 l 426 822 m 638 843 l 629 826 l 625 819 l 626 831 l 640 864 l 649 878 l 644 861 l 638 843 m 949 674 l 782 271 l 726 139 l 704 86 l 699 83 l 685 53 l 661 31 l 646 36 l 635 40 l 633 51 l 632 71 l 640 94 l 661 150 l 700 242 l 894 711 l 942 824 l 957 851 l 964 861 l 971 857 l 982 851 l 983 844 l 985 815 l 978 758 l 953 688 l 954 688 l 949 674 m 374 296 l 324 176 l 294 104 l 282 82 l 271 69 l 263 61 l 256 65 l 244 71 l 246 88 l 250 100 l 238 90 l 225 92 l 210 94 l 203 103 l 190 118 l 186 147 l 200 197 l 236 286 l 353 569 l 393 664 l 413 692 l 415 685 l 424 658 l 425 549 l 418 493 l 386 403 l 392 404 l 392 396 l 393 376 l 390 354 l 374 296 m 919 347 l 871 228 l 839 153 l 814 96 l 806 79 l 782 64 l 774 72 l 767 60 l 756 50 l 740 49 l 728 47 l 724 58 l 717 71 l 721 89 l 761 196 l 910 554 l 947 643 l 968 671 l 982 665 l 983 649 l 983 589 l 936 446 l 943 433 l 942 411 l 919 347 m 974 292 l 911 151 l 886 125 l 878 118 l 857 122 l 857 131 l 857 150 l 864 167 l 882 211 l 935 338 l 957 381 l 968 389 l 982 374 l 981 356 l 974 292 m 401 229 l 374 161 l 353 118 l 340 99 l 329 96 l 326 97 l 315 72 l 307 61 l 311 71 l 322 99 l 321 99 l 322 111 l 338 157 l 390 288 l 408 318 l 418 321 l 424 307 l 421 282 l 401 229 z "},"V":{"ha":1008,"x_min":69,"x_max":960,"o":"m 181 853 l 129 733 l 122 721 l 110 713 l 99 706 l 96 713 l 89 726 l 86 753 l 104 821 l 110 832 l 92 824 l 75 835 l 71 846 l 69 925 l 96 963 l 106 971 l 125 974 l 133 975 l 144 967 l 154 960 l 154 949 l 153 925 l 165 939 l 174 947 l 193 943 l 200 940 l 201 924 l 181 853 m 932 813 l 661 160 l 625 74 l 593 11 l 583 0 l 565 -7 l 554 -11 l 539 -6 l 528 -1 l 524 10 l 519 25 l 522 36 l 524 43 l 506 28 l 488 31 l 476 32 l 475 49 l 474 64 l 485 93 l 551 253 l 774 790 l 806 869 l 829 919 l 840 939 l 857 950 l 867 957 l 879 950 l 889 944 l 890 931 l 892 921 l 896 928 l 922 940 l 940 933 l 951 929 l 953 922 l 958 901 l 956 882 l 932 813 m 800 860 l 526 200 l 488 104 l 457 44 l 433 25 l 415 28 l 404 29 l 403 46 l 403 61 l 403 64 l 392 57 l 382 51 l 381 63 l 389 103 l 451 254 l 669 781 l 722 903 l 733 924 l 744 925 l 756 924 l 754 910 l 757 917 l 768 936 l 785 947 l 794 954 l 807 947 l 817 942 l 818 928 l 819 913 l 800 860 m 693 865 l 421 208 l 356 51 l 343 33 l 338 24 l 322 18 l 313 14 l 303 22 l 289 32 l 288 43 l 289 76 l 317 153 l 360 256 l 415 389 l 432 429 l 440 446 l 443 447 l 458 482 l 478 497 l 475 488 l 463 456 l 478 460 l 501 468 l 513 482 l 522 514 l 539 579 l 590 783 l 617 872 l 639 919 l 651 938 l 667 946 l 678 951 l 689 946 l 704 940 l 707 924 l 708 911 l 706 901 l 693 865 m 324 765 l 229 540 l 207 486 l 192 475 l 193 479 l 169 478 l 160 494 l 147 564 l 183 672 l 256 846 l 293 928 l 306 943 l 325 949 l 339 947 l 357 935 l 360 928 l 365 907 l 357 857 l 340 818 l 340 815 l 324 765 m 244 835 l 204 739 l 179 678 l 150 614 l 133 604 l 124 621 l 126 639 l 144 692 l 146 694 l 135 710 l 139 724 l 153 763 l 207 892 l 221 919 l 226 929 l 238 935 l 251 938 l 250 926 l 249 921 l 271 911 l 267 897 l 244 835 m 396 704 l 344 567 l 264 372 l 235 315 l 224 303 l 211 306 l 197 315 l 188 336 l 188 354 l 215 461 l 215 474 l 224 494 l 243 542 l 340 778 l 369 833 l 381 842 l 376 826 l 363 789 l 371 796 l 383 786 l 392 779 l 396 765 l 396 704 m 949 782 l 774 190 l 728 56 l 703 28 l 688 22 l 672 18 l 646 29 l 644 38 l 640 60 l 644 74 l 657 110 l 696 206 l 868 619 l 933 776 l 953 813 l 960 821 l 957 814 l 949 782 m 424 447 l 371 322 l 336 236 l 310 175 l 297 149 l 278 133 l 272 144 l 269 153 l 274 167 l 283 193 l 281 189 l 269 190 l 254 193 l 250 200 l 240 221 l 238 240 l 264 350 l 358 579 l 392 657 l 417 682 l 429 674 l 439 668 l 443 653 l 447 594 l 419 513 l 435 525 l 439 514 l 443 503 l 439 489 l 424 447 z "},"W":{"ha":1189,"x_min":44,"x_max":1151,"o":"m 954 851 l 733 318 l 700 239 l 681 196 l 664 172 l 650 174 l 638 175 l 633 188 l 628 201 l 631 224 l 649 281 l 661 310 l 656 311 l 647 313 l 646 321 l 642 343 l 644 358 l 663 414 l 713 536 l 740 597 l 753 614 l 763 610 l 778 603 l 779 596 l 808 668 l 815 722 l 832 815 l 869 913 l 899 964 l 910 975 l 931 976 l 938 976 l 940 968 l 947 950 l 944 935 l 944 935 l 949 935 l 965 935 l 968 919 l 972 904 l 968 890 l 954 851 m 357 783 l 199 401 l 160 314 l 146 299 l 128 304 l 126 315 l 128 342 l 150 404 l 142 394 l 135 403 l 122 415 l 119 431 l 119 551 l 161 663 l 228 822 l 263 904 l 288 947 l 303 960 l 313 967 l 331 967 l 342 967 l 353 954 l 361 944 l 363 929 l 354 878 l 346 860 l 357 868 l 365 856 l 369 844 l 368 829 l 357 783 m 236 858 l 160 675 l 131 606 l 119 589 l 125 603 l 132 619 l 121 600 l 110 586 l 103 590 l 92 596 l 88 607 l 82 628 l 81 713 l 99 769 l 147 888 l 188 953 l 215 965 l 233 961 l 244 958 l 249 951 l 256 932 l 253 913 l 249 904 l 258 918 l 256 907 l 236 858 m 1072 853 l 851 321 l 765 113 l 749 79 l 740 67 l 732 67 l 717 68 l 718 79 l 729 119 l 731 125 l 722 119 l 711 113 l 704 122 l 693 133 l 693 144 l 693 167 l 750 318 l 942 781 l 994 907 l 1014 943 l 1024 957 l 1046 963 l 1053 964 l 1057 957 l 1067 939 l 1064 924 l 1061 913 l 1075 929 l 1085 933 l 1090 922 l 1094 911 l 1090 897 l 1072 853 m 132 874 l 92 779 l 67 753 l 58 760 l 47 769 l 44 785 l 53 886 l 74 925 l 83 938 l 97 944 l 111 951 l 122 947 l 139 943 l 143 931 l 146 915 l 143 904 l 132 874 m 844 893 l 836 906 l 840 917 l 853 939 l 867 947 l 865 936 l 844 893 m 1086 725 l 883 236 l 832 113 l 818 83 l 815 82 l 810 67 l 788 40 l 774 44 l 764 49 l 763 64 l 772 110 l 833 260 l 1050 782 l 1104 907 l 1113 924 l 1126 931 l 1138 938 l 1151 917 l 1149 899 l 1135 849 l 1113 796 l 1114 793 l 1086 725 m 353 619 l 208 271 l 185 213 l 171 182 l 150 164 l 140 169 l 142 176 l 144 190 l 169 256 l 165 251 l 157 258 l 157 265 l 160 281 l 169 313 l 194 374 l 329 697 l 364 776 l 386 779 l 385 764 l 368 707 l 363 693 l 372 696 l 371 681 l 353 619 m 1079 471 l 1047 271 l 1010 168 l 972 76 l 925 7 l 897 -1 l 881 1 l 869 4 l 861 18 l 856 29 l 860 50 l 856 43 l 843 40 l 832 38 l 828 49 l 824 64 l 831 85 l 849 133 l 882 211 l 1056 632 l 1100 738 l 1114 765 l 1122 774 l 1135 768 l 1133 757 l 1129 724 l 1110 642 l 1085 578 l 1090 578 l 1090 569 l 1090 556 l 1079 471 m 631 506 l 468 117 l 429 29 l 424 19 l 407 15 l 399 14 l 400 22 l 401 26 l 388 28 l 376 31 l 374 40 l 369 58 l 374 78 l 422 201 l 593 613 l 638 710 l 668 733 l 675 729 l 692 718 l 692 703 l 665 624 l 669 614 l 667 603 l 631 506 m 610 667 l 400 160 l 367 82 l 347 42 l 326 22 l 315 25 l 303 28 l 301 40 l 299 57 l 299 61 l 286 43 l 281 53 l 272 64 l 275 82 l 294 135 l 322 203 l 492 610 l 533 704 l 544 721 l 556 724 l 564 725 l 564 718 l 565 701 l 567 703 l 588 724 l 597 731 l 608 724 l 622 717 l 621 706 l 610 667 m 468 694 l 494 706 l 506 693 l 503 675 l 465 578 l 297 175 l 244 53 l 235 36 l 222 26 l 213 19 l 203 25 l 192 31 l 192 38 l 190 61 l 201 92 l 196 88 l 178 97 l 176 108 l 176 135 l 208 229 l 335 532 l 368 614 l 381 638 l 385 647 l 404 651 l 411 653 l 414 646 l 419 624 l 418 606 l 406 561 l 415 578 l 443 642 l 468 694 m 714 560 l 636 372 l 597 293 l 558 197 l 521 104 l 500 79 l 492 85 l 493 92 l 497 106 l 539 208 l 681 550 l 707 611 l 717 632 l 736 644 l 738 629 l 732 604 l 714 560 m 1033 100 l 1015 63 l 1007 50 l 983 47 l 983 56 l 982 74 l 997 115 l 1026 186 l 1050 210 l 1050 201 l 1050 186 l 1033 100 z "},"X":{"ha":1026,"x_min":-1,"x_max":992,"o":"m 974 893 l 889 740 l 851 683 l 835 676 l 840 694 l 858 739 l 929 910 l 958 961 l 969 972 l 981 968 l 992 964 l 990 947 l 974 893 m 386 790 l 317 622 l 292 565 l 283 549 l 264 540 l 251 542 l 233 556 l 229 569 l 235 642 l 244 667 l 233 663 l 219 665 l 203 682 l 200 696 l 201 740 l 224 803 l 258 888 l 289 943 l 299 954 l 326 968 l 346 964 l 357 963 l 360 951 l 365 933 l 358 908 l 357 906 l 358 907 l 378 907 l 390 900 l 403 882 l 404 868 l 386 790 m 236 858 l 196 764 l 165 739 l 149 749 l 147 764 l 158 814 l 157 810 l 144 806 l 125 806 l 115 818 l 108 840 l 121 913 l 146 951 l 156 960 l 167 963 l 183 967 l 193 957 l 204 947 l 204 929 l 199 908 l 207 921 l 224 936 l 235 935 l 250 932 l 251 915 l 236 858 m 754 893 l 653 647 l 472 210 l 397 54 l 379 31 l 365 25 l 351 21 l 347 31 l 340 46 l 342 54 l 331 33 l 319 22 l 301 15 l 290 11 l 276 15 l 261 19 l 256 33 l 250 47 l 253 58 l 258 85 l 329 256 l 489 642 l 575 846 l 638 944 l 663 960 l 676 960 l 692 960 l 697 950 l 706 936 l 703 918 l 704 919 l 726 936 l 751 929 l 753 921 l 754 893 m 894 879 l 782 610 l 746 529 l 714 444 l 665 324 l 608 192 l 599 172 l 585 160 l 576 153 l 565 160 l 553 168 l 553 176 l 553 199 l 569 246 l 551 217 l 538 208 l 504 199 l 493 196 l 490 208 l 489 221 l 497 244 l 554 382 l 725 792 l 775 911 l 799 944 l 806 953 l 825 960 l 839 956 l 853 942 l 851 929 l 843 901 l 853 924 l 861 938 l 876 947 l 886 954 l 894 946 l 907 936 l 906 922 l 894 879 m 74 889 l 69 915 l 90 938 l 107 926 l 104 915 l 93 893 l 74 889 m 535 778 l 440 549 l 272 142 l 239 64 l 201 8 l 190 -1 l 172 -6 l 161 -8 l 147 -3 l 135 4 l 132 15 l 128 33 l 129 40 l 129 39 l 119 46 l 110 53 l 111 60 l 115 82 l 136 138 l 176 233 l 250 407 l 293 496 l 322 585 l 379 722 l 408 793 l 428 838 l 440 856 l 463 858 l 464 851 l 464 836 l 458 806 l 451 790 l 457 794 l 476 792 l 518 793 l 542 807 l 540 800 l 535 778 m 772 238 l 742 164 l 721 113 l 699 64 l 689 53 l 678 61 l 679 64 l 668 65 l 656 68 l 653 83 l 649 97 l 653 113 l 663 149 l 679 188 l 664 158 l 653 146 l 642 147 l 640 149 l 625 113 l 614 94 l 619 108 l 636 150 l 632 150 l 631 158 l 629 179 l 635 197 l 657 253 l 715 396 l 733 436 l 746 457 l 767 464 l 778 454 l 778 439 l 756 371 l 760 381 l 771 400 l 799 406 l 813 390 l 813 375 l 793 299 l 790 292 l 792 293 l 789 282 l 772 238 m 22 86 l 143 272 l 174 318 l 182 331 l 185 324 l 188 313 l 183 299 l 142 200 l 78 46 l 58 13 l 44 3 l 35 -4 l 17 0 l 8 1 l 6 8 l -1 28 l 3 42 l 22 86 m 875 196 l 867 178 l 890 176 l 894 169 l 904 151 l 903 138 l 894 94 l 865 33 l 856 18 l 828 3 l 813 11 l 803 15 l 803 24 l 803 38 l 768 15 l 754 10 l 739 14 l 724 17 l 719 26 l 711 43 l 713 51 l 717 74 l 736 122 l 772 210 l 799 271 l 808 292 l 831 313 l 842 308 l 861 297 l 874 279 l 875 196 m 949 25 l 926 13 l 913 21 l 900 28 l 897 46 l 911 100 l 919 113 l 944 128 l 954 121 l 968 113 l 969 106 l 976 83 l 974 69 l 949 25 z "},"Y":{"ha":986,"x_min":67,"x_max":963,"o":"m 208 847 l 168 751 l 151 725 l 144 715 l 133 718 l 111 726 l 100 746 l 99 761 l 118 843 l 107 842 l 90 840 l 81 851 l 71 863 l 68 878 l 67 921 l 89 957 l 100 968 l 114 971 l 129 975 l 139 968 l 153 961 l 156 949 l 158 933 l 164 942 l 178 950 l 192 957 l 210 957 l 221 956 l 231 940 l 235 931 l 232 913 l 208 847 m 622 21 l 608 0 l 589 -6 l 581 -7 l 578 0 l 569 19 l 576 42 l 568 49 l 553 60 l 554 68 l 557 90 l 581 153 l 626 261 l 842 782 l 900 918 l 924 951 l 931 960 l 954 960 l 957 953 l 963 933 l 960 918 l 943 872 l 876 714 l 793 549 l 733 431 l 694 343 l 674 240 l 639 138 l 635 131 l 636 74 l 622 21 m 733 846 l 468 207 l 426 107 l 401 54 l 386 32 l 368 25 l 358 21 l 349 29 l 336 39 l 335 50 l 335 82 l 357 144 l 357 143 l 344 133 l 335 126 l 331 138 l 325 151 l 326 175 l 375 325 l 554 754 l 629 919 l 658 946 l 665 936 l 675 925 l 671 907 l 657 871 l 682 924 l 694 942 l 710 951 l 719 958 l 739 956 l 750 947 l 758 931 l 756 914 l 733 846 m 860 847 l 596 211 l 532 61 l 513 35 l 501 33 l 492 32 l 489 44 l 486 60 l 496 92 l 511 131 l 474 46 l 451 26 l 443 19 l 431 24 l 419 28 l 417 42 l 413 56 l 422 89 l 488 250 l 704 774 l 740 858 l 763 910 l 788 942 l 799 953 l 818 954 l 826 954 l 829 947 l 838 928 l 833 907 l 822 881 l 839 915 l 851 933 l 867 939 l 878 940 l 883 926 l 882 903 l 860 847 m 314 832 l 247 671 l 222 610 l 211 589 l 190 569 l 183 572 l 165 579 l 160 596 l 158 642 l 176 689 l 171 689 l 160 692 l 160 700 l 161 721 l 183 781 l 224 879 l 240 913 l 250 924 l 264 931 l 272 918 l 271 906 l 275 911 l 293 919 l 307 917 l 324 906 l 325 890 l 326 875 l 314 832 m 369 661 l 336 579 l 315 528 l 297 488 l 288 472 l 272 461 l 274 474 l 281 496 l 267 482 l 257 488 l 236 501 l 226 521 l 228 585 l 256 657 l 303 771 l 332 839 l 342 860 l 365 876 l 376 872 l 393 858 l 404 839 l 399 772 l 383 733 l 385 735 l 393 721 l 369 661 m 525 733 l 547 776 l 558 789 l 556 781 l 549 763 l 517 683 l 383 364 l 344 271 l 321 247 l 313 253 l 310 272 l 315 375 l 329 411 l 321 414 l 311 417 l 308 432 l 314 481 l 390 672 l 418 733 l 429 749 l 447 756 l 458 753 l 467 732 l 465 714 l 451 671 l 500 697 l 525 733 z "},"Z":{"ha":963,"x_min":51,"x_max":924,"o":"m 542 839 l 292 238 l 232 93 l 217 63 l 211 53 l 211 56 l 201 43 l 194 35 l 179 32 l 164 28 l 156 35 l 140 47 l 142 60 l 146 89 l 217 264 l 288 435 l 335 543 l 388 615 l 415 650 l 425 663 l 432 693 l 428 725 l 431 772 l 468 872 l 503 946 l 524 967 l 538 972 l 551 976 l 568 968 l 575 964 l 576 957 l 578 929 l 565 901 l 565 901 l 542 839 m 449 856 l 414 771 l 390 724 l 369 703 l 350 699 l 339 696 l 332 706 l 322 718 l 324 726 l 325 747 l 319 749 l 306 751 l 306 760 l 306 783 l 326 839 l 364 926 l 386 958 l 394 968 l 417 961 l 417 947 l 414 938 l 439 953 l 450 947 l 464 942 l 465 935 l 468 913 l 464 897 l 449 856 m 732 833 l 474 211 l 413 64 l 392 33 l 383 26 l 381 38 l 376 56 l 367 38 l 353 22 l 338 17 l 326 13 l 311 18 l 300 22 l 294 38 l 290 51 l 293 63 l 299 89 l 368 257 l 574 753 l 629 886 l 660 940 l 671 953 l 692 961 l 699 965 l 717 960 l 728 957 l 731 950 l 739 932 l 736 922 l 731 900 l 740 914 l 751 918 l 756 903 l 750 882 l 732 833 m 190 857 l 144 747 l 124 711 l 115 700 l 88 688 l 78 693 l 63 703 l 60 711 l 56 732 l 58 747 l 71 792 l 108 881 l 133 925 l 157 943 l 176 944 l 188 946 l 200 931 l 207 922 l 206 907 l 190 857 m 513 175 l 490 124 l 476 89 l 460 56 l 451 51 l 451 57 l 444 50 l 436 60 l 429 69 l 432 76 l 440 100 l 506 258 l 718 771 l 772 901 l 789 933 l 796 943 l 818 935 l 815 921 l 796 861 l 786 838 l 774 807 l 667 547 l 624 444 l 615 428 l 614 426 l 590 381 l 558 321 l 538 244 l 519 197 l 513 175 m 308 861 l 258 742 l 228 692 l 218 681 l 190 669 l 175 672 l 160 675 l 154 685 l 143 701 l 144 708 l 147 732 l 165 778 l 194 850 l 235 921 l 239 922 l 243 926 l 243 925 l 272 939 l 286 942 l 300 935 l 314 928 l 317 914 l 319 899 l 308 861 m 54 858 l 58 897 l 61 913 l 69 924 l 78 936 l 97 936 l 106 935 l 108 928 l 113 907 l 107 885 l 92 843 l 81 819 l 64 799 l 60 810 l 54 828 l 54 858 m 588 819 l 339 217 l 281 76 l 263 49 l 254 39 l 257 51 l 260 63 l 258 69 l 257 85 l 267 108 l 329 258 l 543 775 l 593 894 l 607 921 l 614 931 l 614 922 l 617 903 l 610 879 l 606 869 l 588 819 m 838 813 l 736 565 l 704 511 l 690 503 l 683 490 l 667 482 l 667 503 l 699 582 l 804 838 l 833 906 l 844 925 l 863 921 l 858 904 l 856 897 l 860 900 l 860 883 l 838 813 m 557 829 l 308 226 l 250 88 l 232 58 l 224 49 l 226 61 l 238 97 l 299 244 l 499 728 l 550 854 l 565 888 l 571 893 l 572 894 l 588 921 l 583 911 l 575 890 l 575 882 l 557 829 m 876 815 l 806 644 l 790 614 l 783 603 l 771 610 l 775 624 l 794 672 l 857 822 l 876 867 l 883 881 l 897 878 l 894 865 l 876 815 m 914 744 l 875 688 l 858 676 l 849 697 l 857 721 l 889 796 l 907 821 l 915 814 l 924 807 l 924 800 l 922 776 l 914 744 m 278 489 l 290 481 l 288 474 l 282 456 l 251 381 l 140 114 l 119 63 l 103 38 l 89 22 l 61 31 l 51 47 l 51 64 l 67 129 l 85 172 l 75 185 l 92 268 l 135 347 l 157 365 l 169 358 l 199 417 l 249 471 l 278 489 m 786 165 l 738 53 l 713 19 l 704 11 l 683 6 l 676 3 l 663 11 l 653 18 l 651 29 l 649 46 l 650 53 l 638 44 l 622 47 l 611 49 l 606 60 l 599 75 l 603 104 l 638 190 l 674 267 l 694 290 l 708 294 l 722 300 l 732 294 l 744 288 l 747 275 l 746 254 l 750 260 l 779 268 l 792 260 l 804 251 l 806 232 l 786 165 m 871 110 l 844 53 l 832 36 l 822 47 l 813 49 l 803 51 l 801 58 l 800 81 l 806 96 l 819 133 l 858 226 l 868 246 l 882 258 l 890 265 l 901 254 l 910 247 l 907 228 l 888 172 l 883 164 l 885 149 l 871 110 m 558 138 l 540 96 l 515 51 l 504 42 l 503 50 l 504 69 l 499 64 l 497 72 l 499 99 l 542 206 l 561 240 l 569 247 l 579 232 l 576 224 l 585 210 l 579 192 l 558 138 m 619 194 l 597 143 l 571 82 l 567 81 l 556 56 l 544 40 l 547 51 l 554 75 l 550 72 l 556 93 l 592 183 l 610 224 l 621 238 l 639 243 l 635 232 l 619 194 m 821 171 l 799 119 l 772 58 l 751 49 l 757 69 l 793 160 l 811 200 l 814 204 l 822 221 l 832 229 l 829 219 l 828 217 l 840 219 l 836 208 l 821 171 m 893 32 l 876 32 l 874 47 l 882 78 l 869 63 l 874 72 l 893 121 l 908 136 l 904 126 l 896 101 l 903 110 l 913 104 l 913 93 l 911 57 l 908 46 l 893 32 z "},"А":{"ha":1049,"x_min":4,"x_max":1053,"o":"m 532 853 l 269 221 l 204 67 l 188 39 l 175 29 l 165 22 l 156 28 l 143 33 l 143 44 l 147 74 l 151 85 l 129 42 l 107 22 l 99 17 l 83 18 l 68 19 l 61 29 l 51 43 l 53 56 l 58 86 l 126 253 l 325 732 l 381 868 l 421 943 l 447 961 l 465 963 l 476 964 l 488 953 l 496 944 l 496 931 l 486 890 l 499 918 l 513 936 l 526 942 l 539 946 l 547 933 l 553 925 l 550 910 l 532 853 m 357 836 l 111 243 l 50 96 l 31 60 l 25 50 l 15 54 l 4 58 l 7 69 l 15 94 l 79 251 l 128 365 l 268 769 l 307 882 l 335 943 l 356 963 l 365 960 l 376 958 l 376 947 l 374 918 l 372 914 l 375 915 l 378 900 l 372 874 l 357 836 m 644 842 l 596 722 l 565 654 l 547 629 l 500 589 l 489 561 l 474 508 l 450 419 l 432 332 l 368 175 l 328 79 l 297 25 l 285 11 l 268 4 l 257 0 l 242 3 l 229 6 l 221 18 l 213 31 l 213 42 l 218 71 l 288 243 l 485 718 l 543 858 l 561 893 l 567 906 l 585 939 l 585 933 l 622 953 l 636 957 l 650 949 l 663 940 l 665 922 l 644 842 m 743 736 l 549 268 l 522 207 l 494 158 l 481 144 l 463 139 l 451 136 l 425 151 l 425 160 l 422 181 l 428 196 l 435 213 l 394 132 l 365 86 l 354 78 l 346 86 l 351 104 l 368 149 l 439 319 l 458 358 l 471 369 l 483 379 l 490 367 l 497 353 l 493 344 l 531 388 l 558 400 l 572 413 l 579 419 l 581 431 l 582 450 l 576 479 l 574 539 l 596 599 l 592 593 l 582 599 l 572 603 l 572 611 l 572 633 l 603 713 l 661 856 l 692 915 l 710 925 l 725 915 l 722 897 l 710 865 l 728 871 l 742 867 l 757 844 l 761 824 l 743 736 m 803 544 l 707 308 l 668 217 l 646 165 l 617 131 l 606 122 l 583 118 l 576 117 l 561 128 l 551 133 l 550 142 l 547 163 l 550 171 l 532 168 l 525 167 l 525 175 l 528 206 l 569 310 l 714 658 l 750 743 l 768 767 l 786 749 l 785 733 l 771 683 l 769 679 l 776 679 l 796 672 l 806 657 l 813 636 l 803 544 m 917 275 l 856 121 l 814 35 l 790 14 l 771 8 l 758 6 l 743 17 l 733 24 l 731 35 l 726 53 l 732 82 l 739 103 l 721 92 l 707 101 l 697 108 l 690 121 l 676 163 l 678 182 l 710 274 l 794 478 l 829 556 l 842 574 l 854 575 l 871 575 l 881 557 l 896 488 l 893 463 l 874 407 l 890 411 l 901 408 l 917 386 l 928 332 l 917 275 m 954 93 l 944 74 l 931 56 l 924 46 l 900 28 l 881 26 l 869 25 l 858 35 l 850 43 l 850 57 l 858 101 l 918 244 l 938 281 l 944 290 l 956 288 l 972 286 l 982 265 l 974 147 l 960 113 l 961 110 l 954 93 m 1049 64 l 1033 40 l 1006 32 l 988 39 l 978 43 l 974 57 l 971 72 l 978 100 l 999 140 l 1008 154 l 1024 149 l 1035 143 l 1042 128 l 1053 89 l 1049 64 z "},"Б":{"ha":933,"x_min":65,"x_max":929,"o":"m 494 832 l 450 726 l 411 643 l 379 556 l 229 193 l 164 40 l 146 13 l 131 6 l 119 1 l 110 7 l 96 15 l 94 28 l 96 57 l 107 86 l 103 96 l 96 114 l 96 140 l 146 303 l 363 826 l 394 901 l 419 947 l 435 964 l 450 968 l 463 968 l 476 947 l 472 933 l 475 936 l 496 939 l 508 933 l 519 918 l 517 900 l 494 832 m 718 796 l 685 729 l 679 719 l 658 722 l 661 735 l 661 736 l 647 717 l 639 708 l 618 703 l 611 700 l 597 708 l 588 715 l 586 726 l 583 743 l 592 772 l 631 868 l 664 935 l 686 957 l 700 961 l 714 965 l 726 957 l 739 949 l 740 931 l 729 893 l 743 910 l 757 901 l 753 886 l 738 844 l 718 796 m 849 803 l 813 714 l 801 699 l 776 683 l 757 683 l 746 683 l 739 692 l 728 706 l 728 714 l 728 736 l 750 799 l 751 801 l 760 825 l 804 932 l 829 961 l 842 951 l 838 938 l 829 913 l 843 904 l 847 893 l 849 803 m 201 876 l 119 678 l 106 647 l 99 633 l 86 629 l 75 626 l 72 642 l 69 682 l 72 774 l 97 860 l 128 924 l 139 939 l 164 956 l 181 957 l 193 957 l 204 946 l 213 938 l 213 922 l 201 876 m 376 900 l 158 374 l 106 247 l 92 221 l 81 224 l 72 225 l 69 236 l 65 269 l 69 396 l 108 513 l 100 514 l 99 521 l 97 538 l 111 619 l 151 724 l 213 869 l 250 942 l 263 956 l 274 956 l 289 954 l 290 939 l 288 928 l 318 950 l 332 956 l 353 956 l 361 956 l 372 944 l 379 936 l 379 929 l 376 900 m 606 853 l 560 743 l 542 707 l 533 694 l 501 686 l 486 697 l 486 706 l 488 728 l 492 740 l 488 738 l 486 746 l 483 765 l 489 779 l 501 814 l 543 910 l 554 931 l 567 938 l 578 940 l 582 925 l 581 918 l 596 922 l 607 919 l 619 903 l 618 892 l 606 853 m 867 764 l 874 757 l 867 739 l 864 731 l 857 753 l 867 764 m 590 492 l 564 433 l 551 418 l 535 421 l 538 436 l 528 421 l 500 404 l 485 408 l 472 410 l 467 421 l 461 436 l 465 465 l 479 503 l 501 554 l 528 599 l 554 615 l 569 614 l 582 614 l 590 600 l 597 590 l 596 579 l 592 558 l 608 557 l 608 544 l 590 492 m 715 464 l 557 82 l 525 19 l 517 8 l 503 0 l 489 -7 l 474 -6 l 456 1 l 443 17 l 443 35 l 463 99 l 467 118 l 504 208 l 528 231 l 557 285 l 576 372 l 614 468 l 617 475 l 618 478 l 629 513 l 651 564 l 665 590 l 679 599 l 690 606 l 690 599 l 690 581 l 686 567 l 693 569 l 713 563 l 724 554 l 735 535 l 733 519 l 715 464 m 447 469 l 286 82 l 242 1 l 228 -11 l 213 -7 l 201 -4 l 200 8 l 197 24 l 201 39 l 207 54 l 200 54 l 200 61 l 203 90 l 240 183 l 369 493 l 392 549 l 404 575 l 425 596 l 440 585 l 438 569 l 438 569 l 453 572 l 464 568 l 474 547 l 469 529 l 447 469 m 844 493 l 782 331 l 689 108 l 656 49 l 646 38 l 632 31 l 619 24 l 603 25 l 590 26 l 583 36 l 574 51 l 575 67 l 604 154 l 715 421 l 749 501 l 772 543 l 797 558 l 813 556 l 824 554 l 832 546 l 843 533 l 844 522 l 844 493 m 929 274 l 846 92 l 803 61 l 788 54 l 765 63 l 764 71 l 764 81 l 757 71 l 749 63 l 729 58 l 718 63 l 708 78 l 713 97 l 740 171 l 833 396 l 872 468 l 890 479 l 901 471 l 911 464 l 911 447 l 913 432 l 899 388 l 917 383 l 922 369 l 929 274 m 806 350 l 761 240 l 715 132 l 699 90 l 689 83 l 693 101 l 700 119 l 694 106 l 678 79 l 683 93 l 707 151 l 778 321 l 807 389 l 815 399 l 835 444 l 849 468 l 849 460 l 842 439 l 806 350 m 431 103 l 401 43 l 388 28 l 374 35 l 378 50 l 374 43 l 361 28 l 342 21 l 331 15 l 319 21 l 306 29 l 304 38 l 300 57 l 304 72 l 325 129 l 381 265 l 397 303 l 407 314 l 421 318 l 428 300 l 435 268 l 443 214 l 439 188 l 432 169 l 450 178 l 450 167 l 431 103 z "},"В":{"ha":1019,"x_min":72,"x_max":953,"o":"m 615 863 l 575 771 l 569 757 l 549 756 l 549 763 l 550 778 l 544 775 l 526 778 l 515 781 l 514 788 l 508 811 l 511 825 l 525 867 l 554 933 l 579 971 l 606 986 l 624 981 l 635 978 l 636 969 l 642 949 l 638 935 l 622 893 l 621 889 l 615 863 m 311 858 l 150 471 l 111 378 l 89 351 l 83 361 l 76 371 l 76 389 l 85 513 l 115 593 l 106 586 l 96 600 l 93 674 l 106 772 l 139 864 l 172 938 l 204 969 l 217 978 l 242 979 l 253 972 l 265 954 l 263 938 l 260 932 l 271 944 l 279 954 l 303 958 l 315 954 l 331 938 l 331 922 l 311 858 m 424 901 l 193 346 l 138 213 l 121 179 l 115 171 l 97 138 l 90 128 l 94 139 l 104 168 l 107 176 l 104 179 l 93 189 l 92 196 l 92 218 l 119 374 l 293 793 l 340 906 l 364 951 l 374 963 l 400 976 l 418 969 l 428 965 l 432 951 l 435 938 l 424 901 m 725 781 l 585 443 l 560 393 l 549 378 l 531 372 l 521 374 l 510 392 l 511 403 l 513 408 l 496 407 l 485 406 l 478 415 l 469 428 l 471 447 l 486 497 l 510 551 l 554 615 l 593 660 l 603 747 l 644 876 l 668 928 l 676 940 l 701 960 l 721 958 l 729 957 l 732 950 l 740 932 l 738 918 l 729 894 l 739 896 l 756 885 l 754 871 l 725 781 m 493 835 l 457 757 l 428 706 l 390 589 l 333 449 l 228 193 l 185 92 l 160 42 l 143 21 l 124 17 l 113 14 l 97 39 l 99 47 l 103 71 l 121 117 l 121 121 l 129 156 l 189 303 l 396 800 l 446 919 l 469 947 l 469 933 l 475 939 l 494 944 l 507 940 l 521 924 l 518 904 l 493 835 m 806 749 l 575 192 l 542 113 l 518 60 l 508 43 l 493 38 l 481 33 l 483 44 l 490 65 l 488 64 l 475 79 l 476 86 l 481 108 l 494 146 l 522 207 l 539 231 l 547 239 l 558 236 l 569 233 l 594 274 l 606 333 l 624 390 l 638 424 l 636 424 l 633 432 l 629 458 l 661 549 l 785 844 l 810 899 l 825 918 l 844 925 l 851 913 l 851 889 l 833 836 l 836 833 l 831 814 l 806 749 m 117 843 l 100 807 l 89 796 l 72 804 l 74 815 l 92 892 l 107 917 l 122 922 l 133 924 l 138 910 l 132 885 l 117 843 m 864 800 l 636 250 l 579 113 l 561 76 l 556 67 l 553 68 l 536 39 l 538 50 l 546 72 l 544 72 l 547 83 l 556 108 l 614 251 l 782 656 l 839 792 l 854 825 l 861 839 l 876 831 l 864 800 m 910 679 l 699 169 l 669 99 l 643 44 l 633 29 l 619 21 l 608 14 l 599 19 l 589 26 l 589 35 l 590 54 l 592 61 l 586 57 l 585 68 l 582 82 l 588 100 l 643 235 l 808 633 l 874 790 l 892 821 l 901 819 l 913 819 l 911 811 l 908 794 l 899 771 l 911 781 l 921 768 l 926 758 l 926 740 l 910 679 m 847 331 l 774 153 l 733 57 l 710 24 l 700 13 l 678 7 l 667 11 l 654 26 l 658 47 l 668 74 l 668 74 l 676 96 l 688 124 l 788 367 l 790 371 l 874 574 l 911 663 l 932 690 l 928 679 l 922 663 l 933 663 l 935 646 l 918 585 l 904 563 l 890 551 l 882 544 l 875 549 l 832 444 l 853 451 l 872 439 l 874 424 l 875 408 l 869 390 l 847 331 m 451 468 l 307 119 l 271 39 l 249 21 l 246 28 l 242 39 l 242 40 l 239 38 l 224 42 l 211 44 l 207 56 l 203 71 l 206 86 l 243 186 l 369 489 l 406 578 l 421 608 l 426 618 l 444 628 l 451 632 l 463 628 l 476 622 l 481 615 l 490 594 l 488 581 l 475 538 l 469 525 l 469 524 l 451 468 m 947 208 l 899 99 l 863 61 l 832 40 l 817 40 l 801 39 l 799 47 l 793 67 l 794 69 l 786 64 l 776 57 l 767 63 l 758 69 l 763 88 l 783 143 l 868 349 l 899 408 l 914 418 l 928 413 l 929 400 l 931 383 l 918 346 l 926 351 l 936 344 l 949 335 l 953 319 l 947 208 m 449 114 l 419 46 l 406 19 l 400 10 l 382 -1 l 369 0 l 354 11 l 356 26 l 360 43 l 354 40 l 343 35 l 319 44 l 318 53 l 315 72 l 321 90 l 339 139 l 389 263 l 410 306 l 425 315 l 435 313 l 438 301 l 446 231 l 433 190 l 439 194 l 454 192 l 465 189 l 465 174 l 465 158 l 449 114 z "},"Г":{"ha":832,"x_min":65,"x_max":817,"o":"m 707 849 l 685 793 l 672 763 l 653 728 l 646 718 l 642 725 l 642 724 l 615 710 l 599 713 l 588 715 l 582 725 l 572 742 l 574 754 l 576 774 l 593 818 l 626 897 l 656 949 l 665 960 l 683 969 l 694 975 l 710 974 l 725 971 l 729 964 l 738 946 l 735 932 l 721 890 l 724 890 l 719 879 l 707 849 m 206 860 l 160 747 l 131 679 l 101 611 l 88 593 l 71 597 l 69 615 l 71 679 l 104 797 l 99 794 l 92 792 l 90 800 l 86 826 l 88 893 l 96 936 l 114 963 l 132 968 l 143 972 l 156 961 l 165 954 l 165 943 l 161 913 l 179 940 l 193 950 l 211 947 l 218 946 l 221 939 l 225 919 l 222 906 l 206 860 m 500 819 l 454 714 l 421 663 l 394 574 l 378 524 l 236 183 l 172 33 l 156 13 l 149 4 l 133 -1 l 122 -6 l 111 1 l 97 8 l 97 21 l 97 51 l 110 82 l 94 82 l 90 93 l 85 135 l 135 304 l 338 793 l 369 871 l 392 921 l 403 940 l 417 953 l 425 961 l 447 963 l 458 957 l 469 942 l 467 926 l 465 918 l 469 925 l 481 936 l 504 939 l 517 935 l 531 918 l 528 896 l 500 819 m 369 913 l 340 828 l 306 743 l 188 460 l 111 276 l 93 244 l 88 235 l 76 236 l 65 238 l 65 249 l 65 278 l 68 356 l 82 410 l 111 481 l 106 478 l 94 489 l 93 504 l 113 601 l 151 697 l 218 857 l 258 942 l 272 957 l 290 961 l 301 956 l 310 940 l 308 936 l 326 949 l 347 949 l 356 949 l 360 942 l 369 913 m 796 751 l 790 726 l 781 713 l 774 703 l 763 706 l 750 708 l 750 717 l 747 736 l 742 731 l 719 726 l 708 732 l 697 749 l 699 757 l 703 779 l 719 824 l 750 896 l 767 929 l 775 943 l 793 949 l 804 944 l 815 929 l 817 914 l 807 857 l 788 811 l 792 806 l 796 751 m 597 860 l 560 771 l 539 726 l 517 708 l 503 715 l 496 718 l 496 726 l 496 749 l 503 765 l 501 765 l 506 793 l 549 896 l 568 924 l 576 931 l 574 921 l 576 926 l 583 935 l 596 935 l 611 935 l 613 919 l 615 904 l 610 890 l 597 860 m 406 407 l 354 272 l 278 88 l 254 42 l 247 28 l 229 21 l 218 25 l 208 40 l 213 63 l 219 81 l 218 79 l 221 106 l 235 140 l 258 199 l 358 438 l 393 522 l 408 539 l 408 518 l 399 494 l 403 499 l 413 482 l 406 407 m 436 290 l 429 206 l 399 114 l 389 94 l 390 93 l 386 82 l 374 49 l 364 38 l 360 49 l 347 35 l 335 26 l 318 26 l 303 26 l 294 39 l 288 51 l 289 71 l 308 131 l 381 304 l 407 363 l 421 375 l 431 364 l 436 339 l 436 290 m 424 75 l 435 75 l 421 60 l 424 75 z "},"Д":{"ha":1174,"x_min":35,"x_max":1147,"o":"m 904 921 l 797 663 l 778 614 l 767 596 l 765 596 l 722 490 l 697 432 l 685 406 l 671 385 l 664 389 l 653 396 l 654 415 l 685 511 l 735 635 l 736 692 l 772 822 l 810 914 l 849 986 l 861 999 l 881 1007 l 888 1010 l 903 1006 l 915 1001 l 917 993 l 922 971 l 918 956 l 904 921 m 397 835 l 140 217 l 79 69 l 58 33 l 50 24 l 43 33 l 36 42 l 38 53 l 40 76 l 89 201 l 86 206 l 88 222 l 97 267 l 121 306 l 131 317 l 139 315 l 154 347 l 196 458 l 240 569 l 257 654 l 354 892 l 386 958 l 400 975 l 411 975 l 426 974 l 426 963 l 426 943 l 418 924 l 414 914 l 419 913 l 418 897 l 397 835 m 1001 794 l 908 565 l 749 179 l 708 85 l 685 33 l 663 11 l 647 14 l 636 17 l 635 28 l 633 42 l 632 38 l 618 32 l 604 26 l 593 35 l 581 44 l 581 57 l 585 83 l 656 257 l 686 322 l 729 438 l 856 740 l 913 881 l 940 939 l 950 953 l 972 969 l 988 969 l 999 968 l 1004 957 l 1011 942 l 1008 931 l 1003 904 l 996 889 l 1011 885 l 1013 869 l 1001 794 m 736 825 l 683 708 l 675 696 l 661 693 l 647 697 l 642 714 l 644 721 l 635 713 l 625 707 l 611 717 l 601 722 l 606 738 l 619 779 l 678 918 l 699 954 l 708 965 l 719 965 l 736 964 l 739 946 l 733 919 l 740 926 l 761 922 l 763 901 l 757 876 l 736 825 m 293 833 l 228 672 l 208 632 l 201 618 l 188 626 l 186 639 l 183 665 l 190 753 l 210 811 l 229 857 l 226 860 l 225 875 l 231 933 l 236 947 l 244 953 l 260 964 l 274 951 l 278 926 l 276 924 l 289 931 l 306 921 l 314 914 l 314 896 l 293 833 m 633 947 l 651 926 l 649 913 l 632 860 l 565 700 l 528 626 l 511 571 l 471 471 l 272 -7 l 222 -129 l 197 -181 l 189 -193 l 179 -200 l 164 -210 l 122 -211 l 104 -207 l 99 -193 l 94 -179 l 99 -164 l 108 -140 l 90 -136 l 88 -119 l 101 -62 l 181 129 l 450 781 l 489 874 l 514 931 l 533 956 l 549 960 l 560 964 l 564 949 l 567 939 l 568 939 l 581 944 l 633 947 m 460 849 l 151 104 l 78 -74 l 58 -118 l 53 -131 l 43 -122 l 35 -114 l 35 -101 l 38 -68 l 67 25 l 107 121 l 360 732 l 400 828 l 424 882 l 436 906 l 449 915 l 458 922 l 468 917 l 476 911 l 475 896 l 460 849 m 1024 450 l 961 282 l 861 40 l 819 -56 l 813 -69 l 799 -74 l 792 -76 l 789 -69 l 785 -39 l 810 67 l 808 63 l 778 26 l 757 15 l 742 17 l 729 18 l 724 28 l 714 43 l 717 65 l 735 115 l 768 197 l 958 654 l 986 722 l 1003 760 l 1015 783 l 1024 783 l 1032 785 l 1033 778 l 1036 754 l 1036 656 l 1028 600 l 994 514 l 997 518 l 1001 528 l 1024 531 l 1026 517 l 1024 450 m 500 289 l 447 128 l 360 -82 l 319 -165 l 296 -176 l 289 -178 l 286 -169 l 285 -146 l 283 -149 l 274 -156 l 263 -150 l 249 -142 l 250 -135 l 251 -111 l 268 -67 l 300 10 l 475 432 l 518 535 l 544 560 l 556 542 l 544 457 l 500 344 l 501 339 l 500 289 m 1049 260 l 1049 258 l 1061 267 l 1074 265 l 1094 257 l 1107 239 l 1108 224 l 1100 160 l 1019 -43 l 986 -121 l 967 -164 l 947 -187 l 931 -197 l 921 -203 l 900 -203 l 892 -204 l 881 -194 l 871 -186 l 869 -179 l 867 -160 l 869 -150 l 863 -154 l 850 -162 l 828 -156 l 819 -154 l 817 -147 l 810 -124 l 813 -112 l 821 -78 l 856 7 l 975 294 l 1015 389 l 1035 413 l 1038 406 l 1046 378 l 1054 294 l 1049 260 m 629 258 l 581 139 l 563 110 l 526 25 l 519 13 l 504 4 l 494 -1 l 492 6 l 486 25 l 490 39 l 501 69 l 496 71 l 486 75 l 482 90 l 479 104 l 486 132 l 532 244 l 571 321 l 593 339 l 611 342 l 621 344 l 633 333 l 643 325 l 643 313 l 629 258 m 1138 25 l 1099 -79 l 1072 -135 l 1050 -157 l 1033 -158 l 1022 -160 l 1014 -146 l 1007 -135 l 1011 -117 l 1031 -64 l 1097 99 l 1121 149 l 1136 157 l 1147 132 l 1138 25 m 414 -115 l 396 -100 l 399 -87 l 413 -49 l 436 -28 l 442 -43 l 439 -92 l 433 -107 l 414 -115 m 1113 -150 l 1089 -153 l 1079 -136 l 1083 -118 l 1103 -69 l 1113 -54 l 1133 -53 l 1133 -60 l 1136 -74 l 1113 -150 z "},"Е":{"ha":926,"x_min":71,"x_max":886,"o":"m 401 467 l 258 122 l 221 38 l 200 13 l 190 18 l 178 25 l 178 33 l 179 39 l 176 36 l 158 32 l 147 28 l 133 33 l 119 39 l 114 54 l 107 68 l 108 79 l 117 111 l 185 279 l 371 728 l 431 871 l 463 946 l 510 983 l 524 985 l 539 985 l 563 965 l 563 950 l 557 924 l 558 924 l 574 921 l 574 914 l 575 899 l 569 874 l 549 821 l 518 750 l 504 728 l 499 719 l 481 715 l 471 721 l 468 731 l 439 696 l 428 635 l 415 575 l 411 565 l 426 557 l 426 540 l 401 467 m 750 832 l 713 744 l 688 703 l 663 688 l 643 689 l 633 690 l 626 700 l 618 714 l 619 722 l 621 738 l 606 726 l 590 722 l 576 725 l 561 729 l 557 739 l 550 757 l 556 786 l 575 835 l 606 910 l 638 960 l 649 971 l 667 978 l 678 982 l 693 979 l 708 976 l 714 965 l 722 947 l 719 935 l 718 926 l 729 929 l 743 933 l 756 924 l 765 917 l 767 901 l 750 832 m 190 854 l 154 765 l 132 711 l 107 657 l 93 646 l 82 661 l 86 676 l 101 722 l 108 738 l 99 735 l 89 731 l 86 742 l 81 775 l 82 860 l 88 907 l 100 935 l 114 950 l 122 958 l 144 965 l 151 968 l 168 963 l 179 960 l 182 951 l 189 933 l 181 900 l 181 900 l 189 917 l 206 925 l 211 914 l 190 854 m 788 706 l 785 728 l 789 738 l 785 738 l 769 740 l 764 754 l 758 765 l 761 778 l 774 821 l 815 919 l 833 943 l 842 951 l 863 949 l 869 947 l 872 940 l 876 926 l 876 900 l 857 832 l 832 774 l 822 760 l 824 751 l 824 725 l 821 714 l 811 703 l 799 693 l 788 706 m 414 865 l 176 290 l 118 150 l 99 113 l 93 103 l 78 113 l 76 125 l 75 151 l 117 282 l 115 278 l 106 257 l 94 254 l 86 251 l 83 263 l 81 294 l 118 424 l 289 833 l 332 926 l 342 939 l 356 943 l 367 947 l 374 933 l 378 925 l 374 907 l 367 886 l 371 896 l 392 928 l 400 938 l 418 938 l 425 939 l 426 931 l 431 914 l 426 900 l 414 865 m 300 872 l 143 493 l 119 435 l 104 406 l 92 388 l 75 392 l 74 403 l 71 429 l 93 524 l 107 556 l 100 556 l 100 564 l 100 579 l 121 653 l 207 864 l 235 925 l 247 944 l 258 946 l 269 946 l 269 932 l 269 929 l 271 932 l 279 940 l 296 943 l 304 943 l 307 936 l 314 918 l 313 907 l 300 872 m 458 131 l 421 43 l 396 1 l 371 -14 l 353 -12 l 342 -11 l 336 -1 l 328 13 l 329 21 l 331 42 l 333 47 l 315 25 l 299 22 l 281 31 l 274 35 l 269 46 l 263 61 l 265 79 l 301 176 l 424 472 l 464 564 l 492 603 l 518 618 l 533 618 l 549 619 l 561 608 l 571 601 l 571 586 l 572 569 l 571 568 l 576 571 l 593 571 l 606 571 l 614 558 l 621 549 l 619 538 l 611 501 l 576 417 l 551 371 l 529 350 l 514 347 l 501 346 l 489 356 l 481 364 l 481 379 l 482 386 l 449 363 l 439 354 l 436 342 l 431 326 l 436 268 l 433 238 l 429 225 l 439 228 l 453 232 l 465 222 l 475 215 l 476 200 l 458 131 m 758 461 l 731 397 l 708 358 l 685 342 l 668 343 l 656 343 l 651 350 l 643 368 l 646 383 l 649 396 l 649 396 l 635 399 l 621 410 l 619 418 l 618 438 l 635 488 l 667 561 l 690 601 l 717 619 l 736 614 l 746 611 l 749 600 l 750 579 l 743 558 l 743 558 l 747 560 l 760 554 l 774 539 l 774 525 l 758 461 m 844 429 l 831 407 l 814 400 l 803 396 l 794 403 l 783 414 l 783 421 l 785 443 l 808 506 l 821 528 l 840 540 l 849 522 l 851 496 l 844 429 m 833 149 l 793 57 l 774 31 l 765 22 l 746 18 l 733 22 l 722 39 l 724 46 l 724 54 l 724 53 l 688 29 l 672 24 l 658 28 l 643 32 l 639 42 l 631 58 l 638 89 l 656 138 l 688 213 l 719 261 l 731 272 l 749 279 l 760 283 l 775 281 l 790 279 l 796 268 l 804 249 l 801 238 l 800 229 l 800 231 l 833 239 l 850 226 l 850 194 l 833 149 m 614 113 l 576 24 l 547 -15 l 526 -24 l 518 -26 l 504 -18 l 493 -12 l 492 3 l 490 18 l 496 32 l 486 35 l 475 38 l 471 51 l 465 67 l 472 96 l 511 192 l 547 257 l 571 275 l 588 276 l 600 276 l 603 269 l 611 251 l 607 233 l 603 221 l 604 221 l 621 215 l 632 211 l 633 204 l 638 182 l 633 164 l 614 113 m 885 93 l 881 68 l 874 53 l 868 42 l 842 25 l 824 31 l 814 33 l 811 40 l 808 61 l 821 99 l 847 164 l 869 192 l 885 178 l 886 156 l 885 93 z "},"Ё":{"ha":926,"x_min":71,"x_max":886,"o":"m 401 467 l 258 122 l 221 38 l 200 13 l 190 18 l 178 25 l 178 33 l 179 39 l 176 36 l 158 32 l 147 28 l 133 33 l 119 39 l 114 54 l 107 68 l 108 79 l 117 111 l 185 279 l 371 728 l 431 871 l 463 946 l 510 983 l 524 985 l 539 985 l 563 965 l 563 950 l 557 924 l 558 924 l 574 921 l 574 914 l 575 899 l 569 874 l 549 821 l 518 750 l 504 728 l 499 719 l 481 715 l 471 721 l 468 731 l 439 696 l 428 635 l 415 575 l 411 565 l 426 557 l 426 540 l 401 467 m 750 832 l 713 744 l 688 703 l 663 688 l 643 689 l 633 690 l 626 700 l 618 714 l 619 722 l 621 738 l 606 726 l 590 722 l 576 725 l 561 729 l 557 739 l 550 757 l 556 786 l 575 835 l 606 910 l 638 960 l 649 971 l 667 978 l 678 982 l 693 979 l 708 976 l 714 965 l 722 947 l 719 935 l 718 926 l 729 929 l 743 933 l 756 924 l 765 917 l 767 901 l 750 832 m 190 854 l 154 765 l 132 711 l 107 657 l 93 646 l 82 661 l 86 676 l 101 722 l 108 738 l 99 735 l 89 731 l 86 742 l 81 775 l 82 860 l 88 907 l 100 935 l 114 950 l 122 958 l 144 965 l 151 968 l 168 963 l 179 960 l 182 951 l 189 933 l 181 900 l 181 900 l 189 917 l 206 925 l 211 914 l 190 854 m 788 706 l 785 728 l 789 738 l 785 738 l 769 740 l 764 754 l 758 765 l 761 778 l 774 821 l 815 919 l 833 943 l 842 951 l 863 949 l 869 947 l 872 940 l 876 926 l 876 900 l 857 832 l 832 774 l 822 760 l 824 751 l 824 725 l 821 714 l 811 703 l 799 693 l 788 706 m 414 865 l 176 290 l 118 150 l 99 113 l 93 103 l 78 113 l 76 125 l 75 151 l 117 282 l 115 278 l 106 257 l 94 254 l 86 251 l 83 263 l 81 294 l 118 424 l 289 833 l 332 926 l 342 939 l 356 943 l 367 947 l 374 933 l 378 925 l 374 907 l 367 886 l 371 896 l 392 928 l 400 938 l 418 938 l 425 939 l 426 931 l 431 914 l 426 900 l 414 865 m 300 872 l 143 493 l 119 435 l 104 406 l 92 388 l 75 392 l 74 403 l 71 429 l 93 524 l 107 556 l 100 556 l 100 564 l 100 579 l 121 653 l 207 864 l 235 925 l 247 944 l 258 946 l 269 946 l 269 932 l 269 929 l 271 932 l 279 940 l 296 943 l 304 943 l 307 936 l 314 918 l 313 907 l 300 872 m 458 131 l 421 43 l 396 1 l 371 -14 l 353 -12 l 342 -11 l 336 -1 l 328 13 l 329 21 l 331 42 l 333 47 l 315 25 l 299 22 l 281 31 l 274 35 l 269 46 l 263 61 l 265 79 l 301 176 l 424 472 l 464 564 l 492 603 l 518 618 l 533 618 l 549 619 l 561 608 l 571 601 l 571 586 l 572 569 l 571 568 l 576 571 l 593 571 l 606 571 l 614 558 l 621 549 l 619 538 l 611 501 l 576 417 l 551 371 l 529 350 l 514 347 l 501 346 l 489 356 l 481 364 l 481 379 l 482 386 l 449 363 l 439 354 l 436 342 l 431 326 l 436 268 l 433 238 l 429 225 l 439 228 l 453 232 l 465 222 l 475 215 l 476 200 l 458 131 m 758 461 l 731 397 l 708 358 l 685 342 l 668 343 l 656 343 l 651 350 l 643 368 l 646 383 l 649 396 l 649 396 l 635 399 l 621 410 l 619 418 l 618 438 l 635 488 l 667 561 l 690 601 l 717 619 l 736 614 l 746 611 l 749 600 l 750 579 l 743 558 l 743 558 l 747 560 l 760 554 l 774 539 l 774 525 l 758 461 m 844 429 l 831 407 l 814 400 l 803 396 l 794 403 l 783 414 l 783 421 l 785 443 l 808 506 l 821 528 l 840 540 l 849 522 l 851 496 l 844 429 m 833 149 l 793 57 l 774 31 l 765 22 l 746 18 l 733 22 l 722 39 l 724 46 l 724 54 l 724 53 l 688 29 l 672 24 l 658 28 l 643 32 l 639 42 l 631 58 l 638 89 l 656 138 l 688 213 l 719 261 l 731 272 l 749 279 l 760 283 l 775 281 l 790 279 l 796 268 l 804 249 l 801 238 l 800 229 l 800 231 l 833 239 l 850 226 l 850 194 l 833 149 m 614 113 l 576 24 l 547 -15 l 526 -24 l 518 -26 l 504 -18 l 493 -12 l 492 3 l 490 18 l 496 32 l 486 35 l 475 38 l 471 51 l 465 67 l 472 96 l 511 192 l 547 257 l 571 275 l 588 276 l 600 276 l 603 269 l 611 251 l 607 233 l 603 221 l 604 221 l 621 215 l 632 211 l 633 204 l 638 182 l 633 164 l 614 113 m 885 93 l 881 68 l 874 53 l 868 42 l 842 25 l 824 31 l 814 33 l 811 40 l 808 61 l 821 99 l 847 164 l 869 192 l 885 178 l 886 156 l 885 93 m 547 1268 q 555 1281 551 1274 q 563 1292 558 1288 q 574 1300 567 1296 q 588 1306 582 1304 q 609 1310 597 1310 q 631 1311 621 1311 q 674 1313 651 1313 q 715 1308 696 1313 q 725 1306 719 1307 q 735 1303 731 1306 q 740 1299 738 1301 q 746 1293 743 1296 q 752 1289 749 1292 q 758 1283 756 1286 q 761 1278 760 1282 q 763 1272 763 1275 q 772 1240 771 1256 q 774 1208 774 1224 q 775 1176 775 1193 q 774 1156 775 1167 q 772 1136 774 1146 q 768 1122 771 1131 q 763 1108 765 1113 q 756 1103 760 1106 q 751 1099 753 1100 q 745 1093 749 1096 q 739 1088 742 1090 q 730 1085 735 1086 q 721 1083 725 1083 q 679 1076 701 1076 q 636 1076 657 1076 q 606 1080 621 1078 q 578 1089 592 1082 q 572 1090 575 1089 q 567 1093 568 1092 q 563 1097 564 1094 q 560 1103 561 1100 q 553 1110 557 1106 q 549 1118 550 1114 q 546 1127 547 1122 q 544 1136 544 1132 q 538 1201 536 1167 q 547 1268 540 1236 m 215 1268 q 223 1281 219 1274 q 231 1292 226 1288 q 242 1300 235 1296 q 256 1306 250 1304 q 277 1310 265 1310 q 299 1311 289 1311 q 342 1313 319 1313 q 383 1308 364 1313 q 393 1306 388 1307 q 403 1303 399 1306 q 408 1299 406 1301 q 414 1293 411 1296 q 420 1289 417 1292 q 426 1283 424 1286 q 429 1278 428 1282 q 431 1272 431 1275 q 440 1240 439 1256 q 442 1208 442 1224 q 443 1176 443 1193 q 442 1156 443 1167 q 440 1136 442 1146 q 436 1122 439 1131 q 431 1108 433 1113 q 424 1103 428 1106 q 419 1099 421 1100 q 413 1093 417 1096 q 407 1088 410 1090 q 398 1085 403 1086 q 389 1083 393 1083 q 347 1076 369 1076 q 304 1076 325 1076 q 274 1080 289 1078 q 246 1089 260 1082 q 240 1090 243 1089 q 235 1093 236 1092 q 231 1097 232 1094 q 228 1103 229 1100 q 222 1110 225 1106 q 217 1118 218 1114 q 214 1127 215 1122 q 213 1136 213 1132 q 206 1201 204 1167 q 215 1268 208 1236 z "},"Ж":{"ha":1578,"x_min":25,"x_max":1539,"o":"m 1418 851 l 1190 301 l 1156 217 l 1136 172 l 1115 147 l 1107 149 l 1088 154 l 1082 165 l 1074 183 l 1072 207 l 1083 264 l 1093 286 l 1093 288 l 1074 296 l 1069 306 l 1063 324 l 1063 342 l 1103 463 l 1254 828 l 1300 938 l 1329 981 l 1357 994 l 1372 992 l 1386 990 l 1388 982 l 1393 963 l 1389 947 l 1388 944 l 1401 949 l 1417 953 l 1429 944 l 1439 939 l 1440 922 l 1418 851 m 1304 285 l 1249 147 l 1215 69 l 1201 43 l 1189 35 l 1179 28 l 1171 35 l 1163 42 l 1165 61 l 1178 99 l 1169 94 l 1160 106 l 1150 117 l 1150 128 l 1149 151 l 1208 310 l 1404 781 l 1444 879 l 1474 940 l 1493 961 l 1511 967 l 1521 969 l 1529 961 l 1539 949 l 1538 942 l 1532 914 l 1469 804 l 1386 665 l 1349 601 l 1326 558 l 1319 499 l 1328 438 l 1308 369 l 1306 365 l 1319 360 l 1319 349 l 1321 331 l 1304 285 m 336 875 l 275 728 l 251 678 l 242 663 l 224 654 l 217 650 l 207 657 l 192 668 l 186 683 l 179 699 l 190 786 l 192 789 l 186 785 l 172 793 l 163 801 l 163 821 l 183 889 l 215 951 l 228 965 l 239 965 l 258 963 l 261 947 l 263 936 l 263 932 l 268 943 l 294 957 l 311 958 l 324 958 l 336 950 l 346 942 l 347 931 l 349 914 l 336 875 m 904 782 l 699 283 l 650 167 l 625 136 l 628 147 l 638 176 l 646 197 l 639 206 l 629 217 l 628 242 l 640 394 l 697 535 l 788 754 l 836 869 l 868 936 l 889 958 l 907 960 l 918 963 l 933 949 l 942 942 l 943 925 l 944 910 l 933 869 l 921 839 l 925 838 l 921 824 l 904 782 m 744 833 l 482 199 l 442 103 l 415 47 l 396 24 l 381 25 l 369 26 l 371 42 l 372 47 l 371 42 l 349 22 l 340 15 l 324 15 l 313 15 l 306 24 l 296 36 l 297 47 l 303 76 l 375 250 l 482 507 l 517 592 l 539 639 l 558 663 l 571 668 l 600 682 l 610 688 l 614 694 l 622 714 l 624 732 l 625 772 l 649 904 l 669 938 l 678 947 l 699 957 l 706 960 l 722 953 l 732 949 l 735 933 l 726 900 l 739 918 l 747 925 l 771 911 l 768 896 l 744 833 m 383 786 l 342 685 l 314 617 l 289 563 l 279 546 l 261 542 l 253 540 l 251 549 l 247 568 l 253 586 l 275 649 l 276 651 l 272 660 l 275 669 l 281 694 l 351 869 l 390 947 l 399 957 l 413 957 l 419 958 l 419 950 l 419 932 l 411 906 l 397 868 l 400 863 l 404 851 l 400 836 l 383 786 m 932 132 l 908 63 l 889 26 l 867 6 l 847 8 l 840 10 l 838 17 l 833 36 l 831 33 l 815 26 l 803 22 l 793 28 l 779 36 l 778 49 l 779 79 l 804 149 l 846 247 l 1043 724 l 1114 874 l 1167 946 l 1181 951 l 1188 954 l 1199 944 l 1207 936 l 1206 922 l 1226 936 l 1240 928 l 1251 922 l 1251 911 l 1244 875 l 1068 447 l 1022 346 l 1014 333 l 1000 328 l 989 324 l 982 332 l 972 343 l 972 344 l 926 232 l 929 233 l 932 225 l 936 211 l 938 189 l 932 132 m 172 892 l 156 854 l 149 842 l 138 835 l 124 826 l 113 836 l 103 844 l 101 860 l 106 904 l 132 942 l 142 950 l 153 951 l 169 953 l 175 943 l 182 929 l 179 918 l 172 892 m 803 825 l 658 478 l 625 396 l 613 382 l 611 376 l 567 296 l 494 167 l 478 139 l 469 131 l 472 142 l 483 178 l 542 317 l 739 792 l 788 907 l 807 936 l 815 944 l 836 936 l 833 921 l 825 896 l 832 901 l 828 888 l 803 825 m 510 618 l 432 426 l 299 106 l 271 40 l 256 14 l 235 -7 l 214 -15 l 194 -11 l 183 -8 l 179 3 l 174 21 l 176 36 l 168 29 l 153 28 l 138 25 l 129 33 l 117 44 l 117 53 l 119 81 l 181 232 l 297 511 l 368 685 l 419 811 l 439 851 l 447 865 l 467 872 l 481 869 l 496 858 l 501 844 l 501 778 l 482 729 l 489 731 l 496 731 l 510 714 l 518 693 l 510 618 m 958 718 l 954 633 l 947 614 l 981 664 l 1007 708 l 1017 710 l 985 625 l 940 515 l 799 174 l 744 49 l 735 32 l 721 25 l 710 19 l 708 28 l 707 42 l 706 40 l 685 26 l 674 22 l 658 28 l 647 32 l 642 42 l 632 60 l 633 82 l 646 136 l 681 222 l 869 681 l 917 793 l 932 818 l 938 828 l 946 824 l 953 819 l 956 804 l 958 718 m 154 294 l 196 364 l 211 381 l 207 367 l 188 314 l 94 89 l 60 24 l 44 10 l 35 15 l 25 21 l 26 38 l 42 83 l 154 294 m 1407 232 l 1406 228 l 1407 229 l 1426 221 l 1429 210 l 1435 194 l 1422 140 l 1394 75 l 1375 36 l 1353 17 l 1338 18 l 1325 19 l 1322 31 l 1319 46 l 1319 47 l 1304 38 l 1296 32 l 1279 32 l 1267 32 l 1256 44 l 1247 53 l 1247 61 l 1247 83 l 1253 101 l 1274 157 l 1328 286 l 1356 339 l 1367 351 l 1386 353 l 1399 347 l 1414 329 l 1421 304 l 1407 232 m 1485 3 l 1478 29 l 1486 47 l 1486 47 l 1476 33 l 1458 25 l 1449 19 l 1433 21 l 1419 22 l 1411 35 l 1404 47 l 1408 74 l 1415 94 l 1432 136 l 1443 158 l 1468 178 l 1479 174 l 1500 160 l 1508 139 l 1492 54 l 1504 54 l 1515 54 l 1519 43 l 1526 26 l 1517 8 l 1513 1 l 1500 0 l 1485 3 m 954 89 l 961 107 l 965 114 l 975 110 l 985 106 l 983 97 l 981 82 l 979 75 l 960 68 l 953 69 l 954 89 z "},"З":{"ha":993,"x_min":50,"x_max":960,"o":"m 532 854 l 478 738 l 468 725 l 453 721 l 442 717 l 439 724 l 438 729 l 435 725 l 419 717 l 408 711 l 400 719 l 390 731 l 390 738 l 393 758 l 413 811 l 454 910 l 482 963 l 490 974 l 524 981 l 538 968 l 536 954 l 529 929 l 544 931 l 546 915 l 547 899 l 532 854 m 340 856 l 290 736 l 260 686 l 250 676 l 229 667 l 222 663 l 206 667 l 194 669 l 188 679 l 181 692 l 181 700 l 182 713 l 164 696 l 154 690 l 131 693 l 121 700 l 111 721 l 114 736 l 126 776 l 154 844 l 196 911 l 235 938 l 247 942 l 258 935 l 269 921 l 268 910 l 282 933 l 321 953 l 336 957 l 349 949 l 360 939 l 360 919 l 340 856 m 683 744 l 622 597 l 583 501 l 540 403 l 517 383 l 513 397 l 514 407 l 503 403 l 489 404 l 474 417 l 475 439 l 485 471 l 510 529 l 547 610 l 578 661 l 601 749 l 640 844 l 679 931 l 685 940 l 699 949 l 717 951 l 733 942 l 736 924 l 717 853 l 718 833 l 683 744 m 618 843 l 581 756 l 563 725 l 556 715 l 538 708 l 525 713 l 513 728 l 513 742 l 524 785 l 563 876 l 579 906 l 588 918 l 592 919 l 604 940 l 606 931 l 606 928 l 613 931 l 625 924 l 633 917 l 633 901 l 618 843 m 390 831 l 356 744 l 333 697 l 314 674 l 303 678 l 293 681 l 294 696 l 308 742 l 310 749 l 324 788 l 378 913 l 394 936 l 404 940 l 404 929 l 401 917 l 415 907 l 413 889 l 390 831 m 824 722 l 586 150 l 547 58 l 521 14 l 501 -3 l 482 -7 l 472 -10 l 461 -3 l 447 7 l 446 18 l 449 49 l 451 57 l 447 53 l 433 64 l 436 75 l 443 104 l 489 210 l 501 229 l 515 235 l 525 240 l 526 228 l 525 222 l 561 272 l 592 394 l 601 419 l 594 414 l 590 421 l 586 442 l 621 532 l 733 804 l 764 876 l 776 900 l 800 897 l 799 882 l 792 858 l 807 869 l 818 865 l 839 854 l 850 835 l 851 817 l 824 722 m 117 821 l 119 799 l 113 781 l 93 738 l 79 719 l 72 721 l 64 728 l 64 742 l 81 790 l 93 810 l 117 821 m 781 339 l 672 79 l 640 21 l 619 21 l 621 25 l 606 11 l 589 7 l 578 3 l 554 18 l 553 26 l 551 49 l 569 101 l 611 200 l 785 617 l 833 738 l 851 774 l 858 788 l 876 796 l 889 794 l 906 782 l 913 760 l 894 660 l 885 640 l 889 642 l 892 621 l 875 574 l 854 554 l 851 560 l 825 499 l 796 426 l 804 428 l 806 413 l 799 386 l 781 339 m 458 460 l 431 400 l 417 381 l 388 371 l 371 382 l 371 389 l 371 404 l 379 433 l 404 494 l 438 556 l 439 557 l 440 558 l 454 582 l 458 572 l 458 569 l 463 569 l 478 569 l 483 551 l 488 540 l 482 519 l 458 460 m 374 472 l 363 449 l 350 440 l 340 436 l 335 450 l 333 472 l 340 518 l 354 546 l 365 554 l 378 563 l 388 551 l 396 543 l 393 528 l 374 472 m 896 246 l 857 150 l 825 88 l 804 64 l 789 63 l 774 65 l 774 72 l 757 53 l 731 42 l 715 47 l 704 51 l 704 60 l 701 81 l 708 101 l 736 174 l 817 365 l 851 443 l 865 460 l 885 467 l 899 465 l 917 451 l 919 435 l 922 419 l 908 367 l 900 346 l 904 347 l 918 329 l 915 310 l 896 246 m 940 307 l 942 279 l 921 215 l 879 117 l 849 79 l 836 69 l 842 79 l 853 107 l 875 163 l 871 156 l 876 175 l 907 250 l 922 285 l 922 276 l 926 285 l 940 307 m 257 192 l 229 124 l 213 88 l 192 65 l 183 68 l 168 74 l 168 82 l 167 101 l 178 135 l 165 135 l 163 142 l 153 160 l 156 175 l 168 218 l 199 281 l 218 297 l 238 306 l 247 293 l 256 285 l 253 268 l 247 251 l 253 254 l 268 242 l 267 231 l 257 192 m 960 278 l 917 153 l 894 128 l 901 144 l 935 225 l 950 263 l 960 278 m 115 239 l 106 250 l 121 271 l 126 250 l 115 239 m 428 129 l 386 39 l 378 26 l 364 25 l 357 25 l 358 35 l 361 43 l 346 44 l 338 44 l 335 51 l 326 69 l 329 82 l 342 126 l 381 218 l 399 250 l 404 260 l 425 268 l 438 265 l 454 249 l 453 231 l 440 189 l 440 188 l 442 167 l 428 129 m 322 133 l 276 39 l 269 31 l 251 26 l 239 28 l 232 42 l 228 51 l 231 69 l 254 136 l 299 232 l 306 236 l 315 261 l 332 267 l 329 256 l 326 249 l 335 254 l 351 246 l 353 226 l 322 133 m 75 249 l 63 225 l 57 235 l 50 249 l 58 260 l 67 265 l 75 249 m 99 146 l 78 140 l 75 153 l 72 165 l 76 179 l 93 219 l 121 235 l 132 219 l 128 200 l 99 146 z "},"И":{"ha":1125,"x_min":67,"x_max":1058,"o":"m 981 879 l 775 383 l 726 268 l 708 246 l 699 239 l 696 250 l 692 283 l 700 425 l 707 444 l 692 411 l 618 310 l 589 283 l 590 293 l 597 322 l 649 444 l 800 810 l 844 917 l 861 949 l 869 961 l 892 971 l 903 968 l 917 949 l 915 938 l 914 932 l 915 935 l 932 946 l 943 951 l 960 951 l 972 951 l 983 936 l 990 928 l 989 917 l 981 879 m 365 796 l 153 285 l 103 165 l 93 146 l 82 139 l 75 135 l 72 146 l 71 185 l 111 301 l 107 300 l 97 293 l 85 311 l 83 335 l 106 467 l 243 801 l 288 904 l 314 949 l 340 964 l 356 960 l 368 957 l 369 950 l 374 928 l 369 913 l 369 911 l 382 917 l 392 921 l 394 914 l 397 888 l 365 796 m 821 892 l 661 503 l 593 339 l 544 226 l 443 78 l 425 56 l 417 47 l 407 51 l 396 57 l 399 65 l 397 63 l 385 44 l 378 36 l 363 31 l 350 28 l 343 36 l 335 47 l 336 58 l 340 83 l 408 251 l 611 740 l 700 914 l 722 939 l 736 944 l 750 949 l 751 939 l 753 924 l 751 919 l 758 931 l 782 950 l 797 950 l 810 951 l 817 942 l 826 928 l 825 917 l 821 892 m 256 843 l 139 560 l 108 488 l 90 468 l 78 474 l 76 493 l 83 593 l 113 674 l 88 661 l 89 676 l 99 715 l 158 864 l 186 919 l 201 932 l 211 914 l 206 896 l 196 874 l 225 929 l 238 943 l 257 949 l 269 944 l 282 931 l 281 913 l 256 843 m 140 833 l 103 746 l 93 731 l 82 731 l 74 732 l 75 739 l 76 758 l 107 847 l 140 917 l 146 926 l 157 926 l 165 922 l 165 907 l 140 833 m 101 865 l 90 842 l 79 835 l 71 835 l 67 849 l 74 899 l 79 913 l 106 924 l 114 911 l 113 900 l 101 865 m 1015 801 l 793 265 l 740 139 l 724 111 l 715 103 l 708 111 l 700 121 l 701 128 l 701 151 l 749 296 l 942 764 l 992 879 l 1008 906 l 1024 911 l 1036 903 l 1036 889 l 1015 801 m 404 689 l 397 603 l 329 417 l 217 149 l 185 69 l 157 22 l 142 6 l 124 0 l 113 -3 l 103 4 l 89 15 l 88 22 l 86 44 l 101 90 l 104 96 l 97 96 l 99 108 l 107 142 l 160 272 l 344 719 l 390 829 l 411 860 l 426 850 l 422 832 l 403 775 l 390 749 l 394 746 l 403 738 l 403 726 l 404 689 m 1008 479 l 863 126 l 836 65 l 824 43 l 803 25 l 803 33 l 801 50 l 796 42 l 768 25 l 751 28 l 739 31 l 733 40 l 725 54 l 726 79 l 743 129 l 779 218 l 969 675 l 1015 785 l 1028 811 l 1033 821 l 1040 817 l 1050 811 l 1053 794 l 1054 693 l 1047 638 l 1015 556 l 1021 561 l 1024 546 l 1026 535 l 1022 521 l 1008 479 m 563 722 l 600 772 l 615 786 l 614 778 l 606 750 l 561 640 l 368 175 l 332 90 l 307 40 l 294 22 l 278 15 l 267 11 l 261 21 l 250 36 l 253 58 l 254 61 l 243 40 l 229 32 l 206 43 l 206 51 l 207 72 l 217 100 l 243 165 l 365 458 l 396 533 l 417 564 l 436 564 l 444 564 l 449 557 l 454 544 l 472 583 l 563 722 m 1039 324 l 1028 236 l 989 132 l 950 44 l 921 11 l 907 1 l 892 0 l 875 0 l 865 10 l 854 21 l 854 40 l 872 94 l 871 100 l 879 121 l 899 169 l 1004 422 l 1029 479 l 1046 490 l 1044 483 l 1038 461 l 1029 442 l 1032 442 l 1033 435 l 1038 419 l 1040 389 l 1039 324 m 993 49 l 994 64 l 990 60 l 988 67 l 983 85 l 988 96 l 997 119 l 1026 190 l 1039 221 l 1050 217 l 1058 213 l 1056 201 l 1046 157 l 1022 99 l 1018 92 l 1024 86 l 1021 76 l 1007 44 l 999 36 l 993 49 z "},"Й":{"ha":1125,"x_min":67,"x_max":1058,"o":"m 981 879 l 775 383 l 726 268 l 708 246 l 699 239 l 696 250 l 692 283 l 700 425 l 707 444 l 692 411 l 618 310 l 589 283 l 590 293 l 597 322 l 649 444 l 800 810 l 844 917 l 861 949 l 869 961 l 892 971 l 903 968 l 917 949 l 915 938 l 914 932 l 915 935 l 932 946 l 943 951 l 960 951 l 972 951 l 983 936 l 990 928 l 989 917 l 981 879 m 365 796 l 153 285 l 103 165 l 93 146 l 82 139 l 75 135 l 72 146 l 71 185 l 111 301 l 107 300 l 97 293 l 85 311 l 83 335 l 106 467 l 243 801 l 288 904 l 314 949 l 340 964 l 356 960 l 368 957 l 369 950 l 374 928 l 369 913 l 369 911 l 382 917 l 392 921 l 394 914 l 397 888 l 365 796 m 821 892 l 661 503 l 593 339 l 544 226 l 443 78 l 425 56 l 417 47 l 407 51 l 396 57 l 399 65 l 397 63 l 385 44 l 378 36 l 363 31 l 350 28 l 343 36 l 335 47 l 336 58 l 340 83 l 408 251 l 611 740 l 700 914 l 722 939 l 736 944 l 750 949 l 751 939 l 753 924 l 751 919 l 758 931 l 782 950 l 797 950 l 810 951 l 817 942 l 826 928 l 825 917 l 821 892 m 256 843 l 139 560 l 108 488 l 90 468 l 78 474 l 76 493 l 83 593 l 113 674 l 88 661 l 89 676 l 99 715 l 158 864 l 186 919 l 201 932 l 211 914 l 206 896 l 196 874 l 225 929 l 238 943 l 257 949 l 269 944 l 282 931 l 281 913 l 256 843 m 140 833 l 103 746 l 93 731 l 82 731 l 74 732 l 75 739 l 76 758 l 107 847 l 140 917 l 146 926 l 157 926 l 165 922 l 165 907 l 140 833 m 101 865 l 90 842 l 79 835 l 71 835 l 67 849 l 74 899 l 79 913 l 106 924 l 114 911 l 113 900 l 101 865 m 1015 801 l 793 265 l 740 139 l 724 111 l 715 103 l 708 111 l 700 121 l 701 128 l 701 151 l 749 296 l 942 764 l 992 879 l 1008 906 l 1024 911 l 1036 903 l 1036 889 l 1015 801 m 404 689 l 397 603 l 329 417 l 217 149 l 185 69 l 157 22 l 142 6 l 124 0 l 113 -3 l 103 4 l 89 15 l 88 22 l 86 44 l 101 90 l 104 96 l 97 96 l 99 108 l 107 142 l 160 272 l 344 719 l 390 829 l 411 860 l 426 850 l 422 832 l 403 775 l 390 749 l 394 746 l 403 738 l 403 726 l 404 689 m 1008 479 l 863 126 l 836 65 l 824 43 l 803 25 l 803 33 l 801 50 l 796 42 l 768 25 l 751 28 l 739 31 l 733 40 l 725 54 l 726 79 l 743 129 l 779 218 l 969 675 l 1015 785 l 1028 811 l 1033 821 l 1040 817 l 1050 811 l 1053 794 l 1054 693 l 1047 638 l 1015 556 l 1021 561 l 1024 546 l 1026 535 l 1022 521 l 1008 479 m 563 722 l 600 772 l 615 786 l 614 778 l 606 750 l 561 640 l 368 175 l 332 90 l 307 40 l 294 22 l 278 15 l 267 11 l 261 21 l 250 36 l 253 58 l 254 61 l 243 40 l 229 32 l 206 43 l 206 51 l 207 72 l 217 100 l 243 165 l 365 458 l 396 533 l 417 564 l 436 564 l 444 564 l 449 557 l 454 544 l 472 583 l 563 722 m 1039 324 l 1028 236 l 989 132 l 950 44 l 921 11 l 907 1 l 892 0 l 875 0 l 865 10 l 854 21 l 854 40 l 872 94 l 871 100 l 879 121 l 899 169 l 1004 422 l 1029 479 l 1046 490 l 1044 483 l 1038 461 l 1029 442 l 1032 442 l 1033 435 l 1038 419 l 1040 389 l 1039 324 m 993 49 l 994 64 l 990 60 l 988 67 l 983 85 l 988 96 l 997 119 l 1026 190 l 1039 221 l 1050 217 l 1058 213 l 1056 201 l 1046 157 l 1022 99 l 1018 92 l 1024 86 l 1021 76 l 1007 44 l 999 36 l 993 49 m 401 1074 q 365 1101 382 1086 q 336 1136 349 1117 q 324 1159 329 1147 q 317 1183 319 1171 q 311 1203 314 1192 q 310 1222 308 1214 q 313 1231 311 1226 q 315 1238 314 1235 q 318 1246 317 1242 q 321 1253 319 1250 q 325 1257 322 1256 q 331 1260 328 1258 q 338 1266 333 1263 q 346 1271 342 1269 q 353 1273 349 1272 q 360 1274 357 1274 q 390 1277 375 1276 q 419 1278 404 1278 q 442 1278 431 1278 q 464 1275 453 1278 q 514 1247 493 1269 q 528 1231 522 1240 q 544 1215 535 1222 q 550 1210 547 1214 q 556 1207 553 1207 q 565 1206 560 1206 q 575 1206 571 1206 q 581 1203 578 1204 q 588 1204 585 1203 q 594 1207 590 1204 q 601 1213 599 1210 q 608 1216 604 1214 q 614 1219 611 1218 q 636 1241 626 1229 q 658 1261 646 1253 q 708 1276 681 1275 q 760 1276 735 1278 q 782 1275 769 1276 q 804 1269 794 1274 q 817 1262 808 1267 q 828 1253 825 1257 q 831 1246 829 1250 q 833 1239 832 1242 q 837 1232 835 1236 q 839 1225 839 1228 q 840 1206 842 1217 q 836 1188 839 1196 q 802 1124 825 1156 q 749 1072 779 1092 q 687 1045 719 1054 q 622 1033 654 1036 q 577 1031 607 1031 q 513 1036 547 1032 q 449 1050 479 1040 q 401 1074 418 1060 z "},"К":{"ha":1046,"x_min":64,"x_max":1019,"o":"m 774 836 l 578 364 l 531 256 l 521 240 l 506 235 l 494 232 l 489 242 l 482 256 l 485 278 l 500 328 l 515 365 l 511 367 l 507 378 l 503 396 l 504 410 l 539 515 l 686 869 l 728 960 l 749 983 l 758 990 l 778 990 l 789 983 l 796 967 l 792 949 l 781 917 l 792 904 l 790 889 l 774 836 m 981 865 l 913 751 l 890 719 l 889 731 l 904 776 l 954 899 l 975 942 l 982 954 l 1008 964 l 1019 947 l 1013 928 l 981 865 m 161 839 l 111 715 l 97 689 l 92 681 l 83 689 l 76 699 l 75 710 l 75 731 l 89 904 l 124 953 l 144 960 l 153 963 l 168 958 l 182 947 l 190 926 l 188 908 l 161 839 m 915 851 l 825 638 l 772 533 l 744 446 l 681 285 l 642 193 l 626 160 l 621 146 l 599 125 l 592 128 l 574 133 l 567 143 l 549 196 l 576 286 l 575 283 l 567 276 l 568 283 l 579 311 l 628 428 l 789 817 l 826 906 l 844 932 l 842 926 l 875 953 l 889 960 l 904 958 l 919 957 l 929 944 l 936 935 l 936 918 l 915 851 m 408 781 l 396 667 l 328 494 l 199 181 l 160 89 l 136 39 l 118 17 l 103 14 l 92 11 l 82 21 l 71 32 l 68 43 l 64 69 l 100 207 l 93 201 l 90 213 l 85 249 l 125 389 l 290 789 l 338 901 l 356 933 l 364 946 l 381 951 l 393 947 l 403 933 l 401 921 l 389 874 l 393 875 l 401 863 l 407 836 l 408 781 m 301 833 l 140 447 l 104 358 l 97 344 l 86 340 l 79 338 l 78 346 l 78 375 l 113 476 l 101 472 l 93 485 l 94 496 l 122 585 l 236 861 l 269 931 l 285 947 l 308 936 l 304 919 l 324 929 l 329 910 l 324 893 l 301 833 m 211 829 l 122 614 l 104 572 l 97 560 l 79 565 l 83 581 l 101 632 l 99 628 l 89 644 l 93 654 l 101 683 l 179 871 l 207 928 l 219 938 l 226 926 l 222 913 l 219 903 l 239 910 l 236 894 l 211 829 m 515 764 l 579 876 l 599 903 l 608 910 l 611 900 l 618 913 l 628 925 l 660 931 l 672 914 l 669 904 l 658 869 l 468 411 l 417 301 l 388 218 l 322 61 l 306 29 l 292 18 l 282 11 l 272 15 l 260 22 l 258 33 l 261 56 l 243 25 l 226 13 l 208 8 l 197 6 l 183 11 l 169 15 l 164 26 l 157 40 l 158 49 l 164 72 l 221 211 l 342 501 l 379 593 l 399 642 l 417 665 l 435 674 l 471 696 l 482 710 l 515 764 m 846 174 l 790 49 l 764 29 l 757 44 l 749 33 l 732 24 l 724 18 l 700 24 l 693 25 l 690 32 l 683 53 l 686 71 l 703 117 l 697 110 l 685 100 l 683 100 l 667 67 l 660 58 l 663 69 l 672 94 l 665 99 l 653 106 l 651 114 l 647 135 l 650 153 l 674 222 l 739 379 l 767 443 l 778 463 l 796 471 l 808 469 l 824 456 l 825 440 l 814 378 l 797 340 l 806 353 l 825 358 l 838 354 l 853 338 l 856 322 l 854 272 l 843 244 l 847 246 l 858 247 l 860 236 l 860 219 l 846 174 m 450 135 l 418 69 l 407 60 l 388 58 l 381 57 l 376 64 l 367 82 l 368 89 l 374 111 l 415 214 l 428 238 l 435 247 l 442 244 l 454 240 l 457 225 l 450 135 m 918 136 l 915 132 l 922 140 l 935 142 l 950 143 l 960 131 l 969 118 l 975 89 l 967 56 l 954 32 l 939 19 l 931 11 l 908 10 l 896 17 l 882 32 l 883 39 l 883 61 l 867 35 l 839 22 l 826 31 l 817 38 l 817 46 l 818 69 l 835 115 l 868 193 l 886 221 l 893 229 l 913 228 l 921 228 l 926 210 l 918 136 m 963 26 l 978 64 l 983 74 l 981 63 l 963 26 z "},"Л":{"ha":1129,"x_min":47,"x_max":1068,"o":"m 825 835 l 782 733 l 756 668 l 725 597 l 701 592 l 699 607 l 701 676 l 714 713 l 693 692 l 678 688 l 664 683 l 650 690 l 640 696 l 638 708 l 633 724 l 640 753 l 686 865 l 724 942 l 747 963 l 763 967 l 776 969 l 790 961 l 801 954 l 803 939 l 804 924 l 797 904 l 811 925 l 833 932 l 849 921 l 847 910 l 846 890 l 825 835 m 489 431 l 381 163 l 351 99 l 346 93 l 343 86 l 322 64 l 308 61 l 293 58 l 293 69 l 290 89 l 300 113 l 367 274 l 576 779 l 632 913 l 651 949 l 661 963 l 672 963 l 688 964 l 690 949 l 694 935 l 683 899 l 676 885 l 672 867 l 618 738 l 597 710 l 594 711 l 544 640 l 538 582 l 525 522 l 494 444 l 489 431 m 349 874 l 254 649 l 232 593 l 222 579 l 217 567 l 199 524 l 190 506 l 175 506 l 179 517 l 197 561 l 208 590 l 207 592 l 203 613 l 210 675 l 242 772 l 286 878 l 317 938 l 328 951 l 350 958 l 357 961 l 361 954 l 369 936 l 365 922 l 349 874 m 964 867 l 778 415 l 732 307 l 719 279 l 715 269 l 708 272 l 700 276 l 699 283 l 696 310 l 707 449 l 725 499 l 733 515 l 725 513 l 717 515 l 715 531 l 732 594 l 836 847 l 860 901 l 875 926 l 894 939 l 901 921 l 899 908 l 921 940 l 940 950 l 947 954 l 963 949 l 975 946 l 976 938 l 982 918 l 978 904 l 964 867 m 407 861 l 158 263 l 100 122 l 83 90 l 76 81 l 76 92 l 85 125 l 76 115 l 67 107 l 63 117 l 57 128 l 58 135 l 63 157 l 89 224 l 124 304 l 158 375 l 199 486 l 324 790 l 374 910 l 389 939 l 396 949 l 404 943 l 414 936 l 414 925 l 407 900 l 417 921 l 426 929 l 426 913 l 407 861 m 517 874 l 244 218 l 179 60 l 161 32 l 149 24 l 139 17 l 129 24 l 118 32 l 119 43 l 122 63 l 108 58 l 99 63 l 99 71 l 104 103 l 169 263 l 392 796 l 446 922 l 454 939 l 468 947 l 482 949 l 489 939 l 488 929 l 490 932 l 510 936 l 519 935 l 529 917 l 526 906 l 517 874 m 1022 760 l 940 557 l 801 222 l 749 97 l 740 81 l 728 69 l 718 63 l 715 72 l 713 82 l 719 107 l 738 151 l 733 151 l 722 154 l 721 165 l 721 196 l 753 322 l 943 782 l 999 911 l 1007 929 l 1021 942 l 1033 947 l 1053 939 l 1056 925 l 1057 910 l 1042 856 l 1025 815 l 1028 814 l 1035 810 l 1032 799 l 1022 760 m 583 846 l 328 228 l 267 81 l 254 57 l 242 46 l 233 38 l 222 49 l 224 54 l 222 51 l 211 51 l 200 51 l 199 63 l 197 76 l 208 104 l 271 258 l 489 782 l 542 908 l 561 939 l 575 944 l 586 939 l 586 918 l 582 906 l 586 908 l 596 913 l 599 901 l 583 846 m 247 843 l 199 724 l 183 697 l 176 688 l 171 697 l 163 710 l 161 735 l 163 835 l 171 886 l 186 914 l 201 925 l 211 931 l 225 932 l 240 932 l 251 922 l 261 911 l 261 896 l 247 843 m 1043 614 l 1035 558 l 976 408 l 864 136 l 808 26 l 799 15 l 781 10 l 769 6 l 761 15 l 749 29 l 751 49 l 767 93 l 767 93 l 775 118 l 825 240 l 974 599 l 1029 732 l 1038 749 l 1049 758 l 1057 767 l 1056 760 l 1046 731 l 1033 700 l 1039 688 l 1043 663 l 1043 614 m 1050 376 l 1044 292 l 1013 193 l 969 90 l 936 32 l 926 22 l 914 18 l 899 14 l 886 25 l 878 33 l 879 50 l 881 57 l 864 49 l 857 46 l 857 53 l 854 71 l 861 96 l 888 161 l 1004 440 l 1036 515 l 1061 533 l 1061 521 l 1051 464 l 1035 422 l 1046 428 l 1047 417 l 1050 376 m 514 338 l 450 146 l 421 113 l 410 101 l 389 96 l 382 94 l 381 101 l 378 119 l 386 140 l 407 192 l 472 349 l 497 403 l 508 415 l 514 406 l 521 396 l 519 382 l 514 338 m 83 251 l 72 233 l 69 253 l 86 268 l 83 251 m 1026 113 l 1013 89 l 1001 58 l 996 61 l 993 56 l 981 46 l 975 57 l 969 68 l 976 89 l 1021 196 l 1033 219 l 1046 231 l 1056 228 l 1056 221 l 1056 201 l 1050 179 l 1026 113 m 49 194 l 54 207 l 67 221 l 74 224 l 69 214 l 47 176 l 49 194 m 1031 71 l 1038 93 l 1063 114 l 1064 107 l 1068 86 l 1063 65 l 1060 58 l 1049 49 l 1039 42 l 1036 49 l 1031 71 z "},"М":{"ha":1189,"x_min":61,"x_max":1119,"o":"m 221 889 l 121 646 l 93 586 l 75 576 l 65 592 l 67 669 l 92 756 l 106 789 l 99 797 l 97 810 l 97 915 l 103 940 l 113 957 l 118 967 l 143 979 l 163 974 l 172 971 l 175 964 l 182 942 l 181 933 l 192 943 l 208 940 l 221 938 l 222 926 l 226 907 l 221 889 m 824 951 l 843 967 l 865 958 l 865 951 l 865 942 l 868 944 l 882 951 l 896 958 l 917 954 l 925 953 l 929 946 l 939 928 l 936 917 l 929 889 l 718 379 l 688 307 l 654 257 l 639 246 l 621 242 l 610 240 l 601 249 l 588 261 l 588 268 l 586 290 l 588 294 l 578 286 l 563 290 l 551 292 l 546 303 l 539 319 l 542 342 l 558 390 l 588 463 l 694 722 l 775 881 l 824 951 m 1090 836 l 888 347 l 858 275 l 846 247 l 815 172 l 792 143 l 793 151 l 801 181 l 815 214 l 815 214 l 803 217 l 801 228 l 800 256 l 815 374 l 882 539 l 992 806 l 1043 925 l 1053 942 l 1067 953 l 1076 961 l 1083 958 l 1103 953 l 1110 936 l 1090 836 m 408 803 l 371 701 l 324 585 l 167 210 l 108 69 l 93 40 l 81 42 l 69 44 l 65 56 l 61 74 l 63 96 l 99 201 l 92 193 l 96 203 l 106 231 l 121 267 l 117 264 l 111 251 l 101 239 l 110 260 l 110 260 l 103 254 l 99 265 l 94 299 l 125 433 l 292 836 l 333 931 l 354 951 l 363 960 l 378 951 l 388 944 l 389 931 l 375 869 l 374 856 l 369 846 l 394 853 l 408 840 l 408 829 l 408 803 m 286 864 l 133 494 l 96 410 l 72 392 l 65 421 l 89 526 l 104 563 l 104 567 l 131 636 l 221 854 l 247 913 l 260 928 l 260 918 l 264 924 l 271 932 l 282 931 l 293 931 l 296 918 l 299 903 l 286 864 m 975 811 l 864 542 l 826 453 l 806 401 l 793 379 l 778 372 l 742 353 l 717 317 l 710 304 l 701 313 l 704 319 l 700 324 l 708 344 l 744 431 l 888 775 l 933 885 l 953 914 l 951 906 l 951 904 l 967 921 l 978 929 l 1001 924 l 1003 915 l 1007 896 l 1000 874 l 975 811 m 450 665 l 247 178 l 217 106 l 197 63 l 186 43 l 174 42 l 167 39 l 167 50 l 171 67 l 157 49 l 149 42 l 135 47 l 125 51 l 126 64 l 135 93 l 179 203 l 365 650 l 418 776 l 438 804 l 449 810 l 464 792 l 461 774 l 446 722 l 465 732 l 465 721 l 464 704 l 450 665 m 1065 542 l 903 151 l 864 60 l 846 36 l 847 43 l 849 51 l 836 42 l 822 46 l 811 49 l 808 60 l 803 76 l 806 97 l 822 151 l 854 229 l 1038 674 l 1083 783 l 1108 808 l 1118 797 l 1119 786 l 1115 686 l 1081 593 l 1083 594 l 1081 583 l 1065 542 m 378 131 l 369 35 l 363 17 l 350 3 l 342 -6 l 326 -10 l 313 -12 l 300 -3 l 290 6 l 290 17 l 294 49 l 303 69 l 261 19 l 243 15 l 225 24 l 214 29 l 213 40 l 210 60 l 214 74 l 254 174 l 425 586 l 472 699 l 481 715 l 494 725 l 506 732 l 521 724 l 532 718 l 539 704 l 551 661 l 549 632 l 533 592 l 586 618 l 626 671 l 651 699 l 647 685 l 622 622 l 518 371 l 488 311 l 476 296 l 465 296 l 449 294 l 438 310 l 443 403 l 431 386 l 419 371 l 414 353 l 403 282 l 368 190 l 372 182 l 378 131 m 1100 261 l 1097 175 l 1067 79 l 1046 35 l 1028 13 l 1014 6 l 1003 0 l 982 3 l 971 11 l 960 31 l 963 46 l 972 81 l 946 32 l 933 21 l 917 18 l 899 22 l 885 35 l 883 51 l 911 143 l 1047 471 l 1085 556 l 1106 560 l 1110 544 l 1114 481 l 1104 396 l 1081 335 l 1094 333 l 1097 319 l 1100 261 m 1076 44 l 1074 67 l 1081 85 l 1085 96 l 1094 103 l 1108 108 l 1113 90 l 1111 64 l 1110 53 l 1100 42 l 1088 32 l 1076 44 z "},"Н":{"ha":1072,"x_min":61,"x_max":1013,"o":"m 900 847 l 717 404 l 690 339 l 674 301 l 660 281 l 646 281 l 638 281 l 633 290 l 624 315 l 611 364 l 618 389 l 604 379 l 585 383 l 574 386 l 571 397 l 565 415 l 568 429 l 607 529 l 675 689 l 725 815 l 763 903 l 790 960 l 811 981 l 825 985 l 840 989 l 853 976 l 861 969 l 861 957 l 861 939 l 871 943 l 882 949 l 900 946 l 914 938 l 924 918 l 919 903 l 900 847 m 271 883 l 136 556 l 111 497 l 100 474 l 79 460 l 68 471 l 67 486 l 71 588 l 94 665 l 104 688 l 101 690 l 92 703 l 92 714 l 92 736 l 111 914 l 133 954 l 143 967 l 161 975 l 171 981 l 190 978 l 201 976 l 213 961 l 219 953 l 217 936 l 217 936 l 222 943 l 239 950 l 250 953 l 264 947 l 278 940 l 278 928 l 279 908 l 271 883 m 404 808 l 322 582 l 171 217 l 110 74 l 92 47 l 75 53 l 68 54 l 65 65 l 61 107 l 99 246 l 94 244 l 86 242 l 86 253 l 85 286 l 97 429 l 156 578 l 254 817 l 300 922 l 322 951 l 329 960 l 351 967 l 360 969 l 374 960 l 383 954 l 385 946 l 388 922 l 376 893 l 378 893 l 386 899 l 399 886 l 406 861 l 404 808 m 931 772 l 757 351 l 689 189 l 674 161 l 663 151 l 651 154 l 653 165 l 660 197 l 678 243 l 672 240 l 674 253 l 679 283 l 728 403 l 892 799 l 932 894 l 949 925 l 961 917 l 958 906 l 954 894 l 958 896 l 967 897 l 968 889 l 968 865 l 931 772 m 692 828 l 644 715 l 635 696 l 617 688 l 614 699 l 608 729 l 628 864 l 651 901 l 661 913 l 681 917 l 694 913 l 707 900 l 708 885 l 692 828 m 76 906 l 83 908 l 74 892 l 76 906 m 953 701 l 747 206 l 699 90 l 683 63 l 667 65 l 668 72 l 672 93 l 679 110 l 669 115 l 674 126 l 685 157 l 750 318 l 917 718 l 958 819 l 971 843 l 986 846 l 983 832 l 963 776 l 976 775 l 974 760 l 953 701 m 453 657 l 453 631 l 431 560 l 396 475 l 267 164 l 238 96 l 210 49 l 196 35 l 181 31 l 168 28 l 158 33 l 144 42 l 142 49 l 136 68 l 139 79 l 147 111 l 179 189 l 356 613 l 399 718 l 411 742 l 424 750 l 440 743 l 442 736 l 443 721 l 453 657 m 979 415 l 903 217 l 863 122 l 836 61 l 808 25 l 796 15 l 774 18 l 767 19 l 765 26 l 760 49 l 763 54 l 750 43 l 735 43 l 724 42 l 718 53 l 711 67 l 715 89 l 733 138 l 763 208 l 933 622 l 975 717 l 1001 738 l 1007 726 l 1013 715 l 1013 700 l 1011 667 l 965 531 l 971 536 l 986 525 l 988 514 l 979 415 m 467 482 l 314 114 l 276 29 l 258 14 l 251 11 l 251 18 l 251 44 l 254 51 l 251 51 l 243 50 l 242 58 l 240 88 l 285 193 l 411 501 l 447 586 l 463 615 l 468 625 l 488 633 l 500 629 l 510 613 l 506 594 l 489 549 l 485 526 l 467 482 m 563 518 l 514 399 l 479 333 l 454 315 l 435 318 l 426 319 l 424 328 l 417 346 l 421 361 l 438 410 l 478 507 l 507 564 l 531 585 l 547 583 l 550 583 l 554 593 l 569 621 l 563 601 l 556 583 l 560 583 l 564 572 l 571 558 l 569 547 l 563 518 m 940 161 l 917 104 l 885 38 l 869 26 l 863 24 l 861 38 l 868 63 l 863 61 l 858 74 l 863 92 l 879 138 l 954 318 l 976 361 l 986 375 l 1000 361 l 997 350 l 986 314 l 963 256 l 963 256 l 965 240 l 961 218 l 940 161 m 382 133 l 361 35 l 339 -4 l 315 -22 l 296 -21 l 285 -12 l 276 4 l 279 19 l 292 57 l 339 172 l 356 210 l 361 224 l 368 219 l 378 207 l 379 174 l 418 265 l 432 286 l 428 275 l 407 224 l 388 181 l 381 161 l 382 133 m 956 57 l 940 35 l 925 38 l 929 53 l 935 71 l 933 71 l 925 71 l 926 79 l 935 110 l 975 206 l 997 229 l 996 217 l 988 183 l 974 149 l 965 129 l 974 138 l 981 128 l 975 108 l 956 57 m 425 71 l 429 82 l 436 90 l 446 78 l 436 60 l 431 53 l 425 71 m 974 38 l 968 51 l 964 58 l 975 75 l 981 85 l 986 74 l 990 64 l 986 53 l 974 38 z "},"О":{"ha":1031,"x_min":39,"x_max":976,"o":"m 564 879 l 529 797 l 506 747 l 428 654 l 399 497 l 360 389 l 311 269 l 250 126 l 238 108 l 232 99 l 217 92 l 206 88 l 196 93 l 183 101 l 179 113 l 175 128 l 178 144 l 190 185 l 186 175 l 175 167 l 167 160 l 165 171 l 165 186 l 172 207 l 229 343 l 421 808 l 468 917 l 492 942 l 494 932 l 497 925 l 493 914 l 490 906 l 504 935 l 514 949 l 540 967 l 558 964 l 571 963 l 574 956 l 581 933 l 576 918 l 564 879 m 454 890 l 222 335 l 168 206 l 158 186 l 144 178 l 135 171 l 128 182 l 119 196 l 122 221 l 135 260 l 129 250 l 115 247 l 119 258 l 131 285 l 179 406 l 347 808 l 385 900 l 401 929 l 404 918 l 393 882 l 410 918 l 431 946 l 439 956 l 450 954 l 463 953 l 464 942 l 467 925 l 454 890 m 371 881 l 176 413 l 128 296 l 115 265 l 108 257 l 106 268 l 111 279 l 97 271 l 96 282 l 94 313 l 140 431 l 306 829 l 349 924 l 376 943 l 381 925 l 376 907 l 383 915 l 381 908 l 371 881 m 674 861 l 621 728 l 599 689 l 589 678 l 574 675 l 558 674 l 546 681 l 533 689 l 529 699 l 519 715 l 521 744 l 535 783 l 535 785 l 535 796 l 547 826 l 571 885 l 592 924 l 606 928 l 604 922 l 613 931 l 631 935 l 642 938 l 657 931 l 671 924 l 675 914 l 681 896 l 674 861 m 804 764 l 551 156 l 518 78 l 486 22 l 475 10 l 460 6 l 449 1 l 435 8 l 424 14 l 419 32 l 428 63 l 425 58 l 407 50 l 393 53 l 381 68 l 382 76 l 388 99 l 404 143 l 435 215 l 451 247 l 460 260 l 481 267 l 492 261 l 501 244 l 499 229 l 499 228 l 500 229 l 593 306 l 614 376 l 621 518 l 658 632 l 644 629 l 640 642 l 640 701 l 667 775 l 706 868 l 731 917 l 739 929 l 758 935 l 769 932 l 779 917 l 778 906 l 772 883 l 781 890 l 800 890 l 814 885 l 828 867 l 829 849 l 804 764 m 307 867 l 129 438 l 86 335 l 68 313 l 58 306 l 51 313 l 40 324 l 39 344 l 69 463 l 72 468 l 63 464 l 63 472 l 61 489 l 78 579 l 121 685 l 189 847 l 231 910 l 247 919 l 257 908 l 263 903 l 274 913 l 282 919 l 296 922 l 311 924 l 314 913 l 318 903 l 315 892 l 307 867 m 44 653 l 107 801 l 126 824 l 135 831 l 149 826 l 160 824 l 156 810 l 138 760 l 83 628 l 67 590 l 60 576 l 39 575 l 39 590 l 44 653 m 858 715 l 638 182 l 582 53 l 560 24 l 553 15 l 543 21 l 529 29 l 531 38 l 533 53 l 522 50 l 524 61 l 533 97 l 590 233 l 758 640 l 821 790 l 835 817 l 846 822 l 857 828 l 854 819 l 849 801 l 853 808 l 861 817 l 868 814 l 879 807 l 879 792 l 858 715 m 949 532 l 882 368 l 782 126 l 735 38 l 724 25 l 707 24 l 699 24 l 696 35 l 690 50 l 690 51 l 668 25 l 651 15 l 632 15 l 619 15 l 613 25 l 601 36 l 601 43 l 601 65 l 619 118 l 657 207 l 818 596 l 868 715 l 888 760 l 896 776 l 919 796 l 926 792 l 946 785 l 953 771 l 964 706 l 938 625 l 947 628 l 954 629 l 957 622 l 963 603 l 963 589 l 949 532 m 972 410 l 894 133 l 829 75 l 810 79 l 803 81 l 803 88 l 801 103 l 803 104 l 793 93 l 792 101 l 792 119 l 822 194 l 924 440 l 951 506 l 961 526 l 976 519 l 972 506 l 956 464 l 960 461 l 969 458 l 971 447 l 972 410 m 406 235 l 353 83 l 325 32 l 315 21 l 294 10 l 288 7 l 269 10 l 258 13 l 251 22 l 242 35 l 240 43 l 239 64 l 244 82 l 263 126 l 260 132 l 264 142 l 275 172 l 357 371 l 376 414 l 388 433 l 403 440 l 401 429 l 385 381 l 372 350 l 376 351 l 390 331 l 406 235 z "},"П":{"ha":1072,"x_min":53,"x_max":1011,"o":"m 921 826 l 724 351 l 676 239 l 661 214 l 656 204 l 647 211 l 636 221 l 636 229 l 636 251 l 649 399 l 685 492 l 681 497 l 679 511 l 681 618 l 724 753 l 769 861 l 800 933 l 824 971 l 850 989 l 874 988 l 881 986 l 885 979 l 894 961 l 893 950 l 889 939 l 901 943 l 913 946 l 931 940 l 939 938 l 942 929 l 949 910 l 944 892 l 921 826 m 265 875 l 129 547 l 104 489 l 92 467 l 75 450 l 74 457 l 71 478 l 97 554 l 96 554 l 94 561 l 92 575 l 90 649 l 100 760 l 139 864 l 182 950 l 203 968 l 219 974 l 231 978 l 250 971 l 257 968 l 260 961 l 268 943 l 265 925 l 261 915 l 268 918 l 269 910 l 265 875 m 421 886 l 174 292 l 117 151 l 104 124 l 96 118 l 88 111 l 82 122 l 75 136 l 72 167 l 86 336 l 113 403 l 106 397 l 104 404 l 103 432 l 140 529 l 271 844 l 307 925 l 329 940 l 339 936 l 338 929 l 343 942 l 383 961 l 399 964 l 413 960 l 428 956 l 431 944 l 435 931 l 432 918 l 421 886 m 664 840 l 617 725 l 579 658 l 554 642 l 535 640 l 524 640 l 515 649 l 503 663 l 503 671 l 503 694 l 521 746 l 526 760 l 518 744 l 510 742 l 504 726 l 497 710 l 483 714 l 488 725 l 496 747 l 497 753 l 510 794 l 561 917 l 576 947 l 583 957 l 606 951 l 603 942 l 589 903 l 568 854 l 599 907 l 618 919 l 619 924 l 642 956 l 640 943 l 635 925 l 639 925 l 653 926 l 667 915 l 675 907 l 676 892 l 676 876 l 664 840 m 519 863 l 464 731 l 425 646 l 383 535 l 263 242 l 200 92 l 181 57 l 172 44 l 158 56 l 160 68 l 163 79 l 156 64 l 143 46 l 136 36 l 119 35 l 108 32 l 101 42 l 93 54 l 93 67 l 96 90 l 164 258 l 375 767 l 429 896 l 456 940 l 464 951 l 486 956 l 497 950 l 510 931 l 507 915 l 501 896 l 517 918 l 525 926 l 538 911 l 533 901 l 519 863 m 113 853 l 88 794 l 78 775 l 71 776 l 56 778 l 56 785 l 53 800 l 58 878 l 63 896 l 79 922 l 101 928 l 114 925 l 128 911 l 125 896 l 113 853 m 721 819 l 672 703 l 656 669 l 650 660 l 639 661 l 629 661 l 628 669 l 625 689 l 631 707 l 649 756 l 699 876 l 717 908 l 729 917 l 742 919 l 743 922 l 743 919 l 746 904 l 743 878 l 721 819 m 953 686 l 756 211 l 708 99 l 693 71 l 689 64 l 688 75 l 693 97 l 685 83 l 671 78 l 661 74 l 657 85 l 651 99 l 651 125 l 661 172 l 699 274 l 888 728 l 938 850 l 954 883 l 961 897 l 979 900 l 986 903 l 988 894 l 992 879 l 981 790 l 960 742 l 976 757 l 974 743 l 953 686 m 972 565 l 907 403 l 804 154 l 761 57 l 736 29 l 728 36 l 719 44 l 724 63 l 722 65 l 718 86 l 722 96 l 769 214 l 936 617 l 978 713 l 999 732 l 1000 715 l 996 693 l 978 644 l 972 632 l 974 633 l 976 622 l 981 606 l 972 565 m 386 278 l 383 193 l 350 82 l 322 18 l 297 -15 l 289 -22 l 268 -28 l 261 -29 l 246 -22 l 235 -18 l 232 -10 l 225 10 l 228 28 l 253 97 l 263 121 l 246 85 l 240 76 l 233 76 l 226 58 l 207 50 l 213 64 l 217 76 l 217 76 l 218 83 l 224 104 l 260 193 l 386 497 l 407 549 l 418 571 l 432 585 l 438 571 l 438 550 l 424 507 l 350 329 l 360 344 l 376 354 l 379 347 l 403 403 l 419 440 l 429 456 l 443 463 l 440 456 l 429 425 l 385 317 l 386 278 m 935 7 l 925 29 l 928 38 l 911 19 l 897 14 l 883 8 l 868 11 l 854 13 l 846 28 l 840 38 l 843 56 l 861 103 l 842 65 l 824 49 l 801 51 l 793 68 l 794 79 l 826 167 l 949 463 l 972 517 l 983 536 l 1001 544 l 1008 532 l 1011 507 l 1004 454 l 968 361 l 972 369 l 989 382 l 994 367 l 999 293 l 996 208 l 951 89 l 965 93 l 972 79 l 969 31 l 957 11 l 935 7 m 394 82 l 417 151 l 429 169 l 426 150 l 394 82 m 364 8 l 353 31 l 356 42 l 367 72 l 374 86 l 392 85 l 394 71 l 390 40 l 388 28 l 364 8 z "},"Р":{"ha":979,"x_min":63,"x_max":956,"o":"m 663 858 l 615 743 l 596 711 l 590 701 l 578 703 l 563 704 l 558 719 l 554 733 l 560 756 l 540 744 l 522 746 l 511 747 l 500 763 l 493 772 l 494 779 l 499 801 l 513 839 l 538 900 l 565 950 l 574 963 l 600 978 l 624 974 l 635 965 l 646 944 l 643 929 l 640 919 l 651 921 l 664 921 l 668 910 l 674 894 l 671 883 l 663 858 m 131 815 l 106 758 l 96 738 l 81 743 l 85 754 l 93 779 l 107 813 l 97 840 l 107 931 l 114 947 l 133 969 l 149 971 l 160 972 l 165 958 l 171 944 l 167 933 l 160 908 l 157 901 l 161 899 l 158 888 l 146 853 l 131 815 m 279 815 l 135 467 l 100 385 l 81 364 l 78 371 l 75 400 l 104 501 l 104 504 l 97 507 l 85 511 l 83 529 l 82 629 l 158 867 l 199 943 l 211 957 l 233 967 l 240 969 l 258 965 l 269 963 l 272 956 l 282 933 l 279 921 l 274 904 l 276 910 l 294 924 l 301 928 l 306 921 l 310 899 l 279 815 m 503 856 l 469 776 l 432 696 l 390 583 l 236 213 l 196 117 l 174 63 l 161 39 l 147 32 l 138 25 l 135 38 l 132 54 l 133 57 l 132 56 l 119 57 l 108 60 l 104 74 l 100 88 l 106 121 l 168 281 l 392 821 l 425 899 l 450 944 l 464 961 l 481 965 l 494 965 l 506 944 l 501 925 l 500 921 l 503 925 l 521 911 l 518 897 l 503 856 m 404 907 l 369 808 l 321 689 l 160 303 l 101 163 l 82 131 l 74 121 l 69 131 l 64 143 l 63 169 l 78 324 l 157 518 l 293 846 l 336 929 l 349 942 l 368 947 l 376 950 l 393 942 l 403 938 l 403 929 l 404 907 m 801 733 l 667 410 l 642 356 l 622 333 l 603 338 l 596 338 l 596 346 l 599 363 l 597 361 l 578 346 l 565 353 l 556 357 l 556 368 l 560 397 l 572 432 l 539 369 l 529 358 l 514 361 l 511 353 l 513 360 l 513 361 l 501 363 l 500 374 l 497 390 l 501 404 l 543 506 l 579 579 l 619 660 l 643 746 l 688 854 l 714 915 l 725 935 l 754 947 l 769 936 l 769 918 l 754 867 l 768 894 l 775 903 l 792 911 l 804 907 l 815 890 l 814 879 l 808 854 l 810 856 l 817 853 l 832 850 l 832 842 l 833 824 l 826 799 l 801 733 m 874 708 l 794 517 l 739 385 l 700 328 l 683 318 l 672 324 l 658 332 l 658 339 l 658 354 l 665 383 l 668 389 l 665 388 l 671 406 l 700 482 l 790 700 l 821 772 l 832 794 l 844 796 l 844 796 l 864 797 l 871 799 l 875 792 l 885 774 l 885 758 l 874 708 m 956 676 l 954 621 l 919 521 l 922 519 l 918 508 l 906 478 l 897 475 l 868 418 l 800 367 l 776 367 l 763 381 l 765 400 l 788 464 l 869 663 l 897 722 l 908 736 l 919 738 l 935 739 l 943 726 l 951 714 l 956 676 m 471 396 l 404 235 l 360 128 l 328 53 l 313 28 l 306 18 l 275 13 l 264 28 l 267 38 l 267 42 l 265 40 l 243 29 l 236 26 l 218 29 l 208 32 l 206 39 l 196 61 l 199 72 l 208 107 l 244 193 l 372 503 l 414 601 l 439 625 l 458 600 l 476 526 l 474 518 l 486 522 l 496 525 l 500 518 l 510 500 l 507 492 l 471 396 m 454 144 l 425 82 l 415 69 l 386 63 l 374 75 l 375 82 l 378 104 l 401 164 l 433 242 l 447 268 l 454 271 l 463 275 l 464 267 l 469 243 l 454 144 m 431 75 l 442 94 l 443 83 l 444 69 l 431 75 z "},"С":{"ha":1018,"x_min":35,"x_max":1004,"o":"m 526 860 l 468 728 l 407 626 l 379 511 l 339 408 l 272 247 l 232 151 l 215 115 l 207 101 l 183 82 l 168 86 l 157 88 l 151 99 l 143 114 l 147 150 l 158 176 l 147 172 l 136 169 l 128 178 l 115 193 l 108 221 l 117 275 l 160 381 l 326 785 l 374 897 l 410 964 l 433 982 l 453 983 l 463 985 l 475 975 l 485 968 l 485 951 l 483 944 l 488 947 l 496 956 l 515 957 l 529 951 l 543 936 l 543 921 l 526 860 m 633 871 l 604 806 l 582 768 l 558 751 l 543 753 l 532 754 l 529 761 l 522 781 l 525 796 l 539 838 l 578 929 l 596 961 l 601 971 l 629 983 l 643 976 l 653 971 l 654 964 l 658 943 l 653 926 l 633 871 m 767 756 l 731 669 l 707 624 l 685 603 l 665 601 l 649 607 l 635 626 l 635 642 l 646 686 l 649 694 l 642 690 l 635 688 l 624 692 l 610 699 l 606 706 l 596 724 l 594 739 l 599 783 l 639 883 l 663 931 l 671 944 l 694 961 l 711 961 l 731 954 l 744 939 l 746 925 l 747 911 l 740 886 l 750 894 l 774 894 l 786 888 l 797 867 l 797 842 l 767 756 m 342 856 l 154 404 l 108 296 l 86 263 l 78 269 l 69 275 l 71 283 l 74 304 l 86 336 l 83 333 l 72 335 l 64 336 l 61 344 l 56 375 l 81 482 l 214 806 l 257 900 l 276 925 l 285 933 l 304 939 l 317 935 l 329 921 l 326 910 l 333 921 l 340 931 l 361 924 l 358 908 l 342 856 m 226 850 l 111 574 l 85 515 l 83 514 l 79 501 l 68 478 l 63 469 l 67 485 l 74 501 l 53 507 l 53 515 l 51 531 l 64 606 l 146 807 l 185 878 l 197 892 l 215 899 l 225 897 l 235 879 l 232 872 l 226 850 m 864 685 l 835 624 l 818 604 l 799 592 l 776 604 l 776 621 l 783 646 l 778 646 l 763 646 l 760 657 l 754 672 l 763 701 l 807 807 l 825 847 l 833 864 l 856 882 l 865 876 l 878 869 l 879 863 l 881 842 l 875 824 l 865 799 l 868 799 l 876 801 l 879 793 l 889 772 l 886 751 l 864 685 m 118 782 l 69 663 l 53 633 l 35 633 l 35 644 l 40 674 l 79 769 l 93 792 l 100 801 l 125 799 l 118 782 m 949 669 l 929 651 l 910 654 l 901 656 l 900 663 l 897 685 l 903 707 l 929 768 l 949 789 l 960 785 l 975 778 l 976 769 l 981 747 l 978 733 l 949 669 m 990 694 l 1004 690 l 994 679 l 988 675 l 990 694 m 431 418 l 381 263 l 329 140 l 310 104 l 301 93 l 274 82 l 261 90 l 251 97 l 250 117 l 274 199 l 371 435 l 399 496 l 411 510 l 428 503 l 431 483 l 431 418 m 814 326 l 750 174 l 713 85 l 699 58 l 686 49 l 675 39 l 660 43 l 650 46 l 646 64 l 663 128 l 733 297 l 763 357 l 774 371 l 793 379 l 806 376 l 821 364 l 819 357 l 814 326 m 885 253 l 835 135 l 799 63 l 785 44 l 768 35 l 758 29 l 740 31 l 733 32 l 731 39 l 726 57 l 731 75 l 740 97 l 739 106 l 747 126 l 765 171 l 825 314 l 851 358 l 867 363 l 868 342 l 868 340 l 869 342 l 885 336 l 897 332 l 899 318 l 901 303 l 885 253 m 669 215 l 611 76 l 586 19 l 578 3 l 553 -18 l 538 -14 l 526 -12 l 525 -4 l 521 15 l 526 33 l 515 29 l 501 50 l 504 68 l 519 117 l 608 304 l 629 332 l 638 343 l 656 347 l 663 350 l 665 339 l 663 319 l 669 322 l 682 319 l 696 307 l 694 289 l 669 215 m 978 274 l 938 193 l 938 192 l 936 190 l 908 136 l 882 114 l 871 108 l 863 117 l 854 124 l 858 139 l 871 178 l 919 296 l 939 329 l 947 342 l 968 346 l 979 340 l 989 321 l 988 310 l 978 274 m 521 163 l 474 50 l 443 6 l 425 -3 l 418 -7 l 403 -3 l 392 0 l 386 11 l 381 25 l 383 47 l 360 33 l 340 36 l 329 36 l 322 47 l 311 63 l 311 71 l 314 93 l 336 151 l 378 254 l 400 296 l 408 308 l 428 311 l 436 313 l 450 299 l 460 217 l 485 233 l 500 233 l 513 233 l 522 222 l 531 213 l 529 201 l 521 163 z "},"Т":{"ha":936,"x_min":14,"x_max":886,"o":"m 501 804 l 421 610 l 368 483 l 315 357 l 300 328 l 289 324 l 275 338 l 275 346 l 285 439 l 319 526 l 313 529 l 310 549 l 314 643 l 350 749 l 407 888 l 444 956 l 460 969 l 482 972 l 490 974 l 494 967 l 506 949 l 503 931 l 501 928 l 506 931 l 514 936 l 524 928 l 536 917 l 535 899 l 501 804 m 225 844 l 188 756 l 174 726 l 167 713 l 142 697 l 140 706 l 136 725 l 139 732 l 125 707 l 100 692 l 81 693 l 65 701 l 54 719 l 56 735 l 67 779 l 107 878 l 138 940 l 153 954 l 161 963 l 181 967 l 192 968 l 217 950 l 218 935 l 219 919 l 217 913 l 218 915 l 229 921 l 240 924 l 244 910 l 240 886 l 225 844 m 379 861 l 335 756 l 313 701 l 296 676 l 276 675 l 269 674 l 265 681 l 257 700 l 260 714 l 263 722 l 261 721 l 240 699 l 226 693 l 213 688 l 201 693 l 188 701 l 188 710 l 186 731 l 206 783 l 247 886 l 274 935 l 282 947 l 301 957 l 308 961 l 324 958 l 336 956 l 339 944 l 344 929 l 340 913 l 343 917 l 357 928 l 367 935 l 376 931 l 390 925 l 390 913 l 392 896 l 379 861 m 693 851 l 421 199 l 356 46 l 338 22 l 329 15 l 314 18 l 301 21 l 294 31 l 286 46 l 285 88 l 319 190 l 313 188 l 303 183 l 301 196 l 300 231 l 342 382 l 514 799 l 561 911 l 581 943 l 590 954 l 608 958 l 619 953 l 629 936 l 626 924 l 628 928 l 650 946 l 665 950 l 679 953 l 693 946 l 708 940 l 711 922 l 693 851 m 15 871 l 26 924 l 36 935 l 47 946 l 68 953 l 75 954 l 92 947 l 103 943 l 104 936 l 108 913 l 106 899 l 93 864 l 57 774 l 42 749 l 31 749 l 19 747 l 18 756 l 15 775 l 14 804 l 15 871 m 631 490 l 624 375 l 582 257 l 521 107 l 465 13 l 453 3 l 433 -3 l 421 -6 l 394 10 l 389 39 l 393 56 l 396 65 l 390 63 l 392 74 l 403 113 l 467 267 l 657 729 l 719 879 l 742 924 l 751 938 l 769 940 l 768 935 l 768 936 l 794 950 l 810 950 l 825 950 l 839 936 l 847 928 l 846 908 l 825 840 l 785 746 l 747 686 l 722 671 l 703 671 l 692 671 l 679 683 l 671 692 l 671 692 l 624 576 l 629 569 l 631 490 m 885 746 l 861 682 l 851 669 l 835 661 l 825 656 l 808 657 l 796 658 l 786 672 l 779 682 l 781 693 l 790 732 l 836 844 l 847 864 l 853 874 l 854 875 l 854 875 l 867 906 l 886 910 l 881 896 l 871 872 l 876 871 l 885 847 l 885 746 m 618 150 l 606 50 l 585 11 l 561 -8 l 546 -12 l 532 -15 l 507 1 l 506 8 l 503 32 l 508 50 l 524 90 l 569 200 l 586 238 l 592 242 l 610 283 l 622 308 l 629 319 l 640 321 l 636 310 l 621 269 l 610 242 l 615 238 l 617 215 l 618 150 z "},"У":{"ha":974,"x_min":56,"x_max":963,"o":"m 847 840 l 590 219 l 551 126 l 526 74 l 515 54 l 497 43 l 488 36 l 482 47 l 474 60 l 474 58 l 451 40 l 442 35 l 428 38 l 413 42 l 410 56 l 406 71 l 415 103 l 483 268 l 696 781 l 750 911 l 782 958 l 790 967 l 811 971 l 819 972 l 831 961 l 840 953 l 839 936 l 835 921 l 842 929 l 867 926 l 868 918 l 871 899 l 864 882 l 847 840 m 392 701 l 313 510 l 288 453 l 278 433 l 258 426 l 246 428 l 231 440 l 225 454 l 219 525 l 240 583 l 239 583 l 228 582 l 219 600 l 221 669 l 249 738 l 297 857 l 326 921 l 338 939 l 356 949 l 364 953 l 374 946 l 386 938 l 388 929 l 392 908 l 388 889 l 367 829 l 372 831 l 381 822 l 397 801 l 404 785 l 392 701 m 197 896 l 165 810 l 143 763 l 122 740 l 107 742 l 96 743 l 92 754 l 85 772 l 89 801 l 114 861 l 106 875 l 111 889 l 128 931 l 149 949 l 158 938 l 157 935 l 174 940 l 186 936 l 200 921 l 197 896 m 703 843 l 444 219 l 383 72 l 374 53 l 363 42 l 354 33 l 353 44 l 351 51 l 347 50 l 336 44 l 333 57 l 331 69 l 339 99 l 404 256 l 631 800 l 663 878 l 685 925 l 697 943 l 713 946 l 724 944 l 724 925 l 715 896 l 715 896 l 721 890 l 717 881 l 703 843 m 88 881 l 74 874 l 67 871 l 60 885 l 56 896 l 57 907 l 61 924 l 72 936 l 79 944 l 90 943 l 101 942 l 104 931 l 106 915 l 88 881 m 279 843 l 235 738 l 211 679 l 199 657 l 181 651 l 172 650 l 169 658 l 163 676 l 165 693 l 179 736 l 171 744 l 164 754 l 167 765 l 178 797 l 222 903 l 240 933 l 250 940 l 261 929 l 258 915 l 256 908 l 271 932 l 285 942 l 306 932 l 304 917 l 279 843 m 549 768 l 588 856 l 610 901 l 624 924 l 638 929 l 649 933 l 653 924 l 658 911 l 656 900 l 651 888 l 664 910 l 660 900 l 643 858 l 396 260 l 336 117 l 317 82 l 318 85 l 304 56 l 292 38 l 278 28 l 268 21 l 257 22 l 242 25 l 238 36 l 232 50 l 238 79 l 268 156 l 322 289 l 404 483 l 465 626 l 517 701 l 549 768 m 900 825 l 708 364 l 633 183 l 608 143 l 596 138 l 599 149 l 599 150 l 592 132 l 574 100 l 568 90 l 563 100 l 556 111 l 558 118 l 567 140 l 626 283 l 832 778 l 881 894 l 897 918 l 907 924 l 911 910 l 901 881 l 908 896 l 914 904 l 926 903 l 922 888 l 900 825 m 908 756 l 817 542 l 756 399 l 690 251 l 676 224 l 671 214 l 660 215 l 663 222 l 671 247 l 711 346 l 882 756 l 935 882 l 943 899 l 963 914 l 963 906 l 958 875 l 908 756 m 454 635 l 382 456 l 260 163 l 214 53 l 206 36 l 192 28 l 181 21 l 171 28 l 158 36 l 157 44 l 153 64 l 161 110 l 194 197 l 232 256 l 288 326 l 288 349 l 289 415 l 318 496 l 368 615 l 404 697 l 417 714 l 425 715 l 428 721 l 426 715 l 429 715 l 444 718 l 453 706 l 460 693 l 461 682 l 461 664 l 454 635 m 186 236 l 186 213 l 172 174 l 165 157 l 146 153 l 143 160 l 138 179 l 146 222 l 151 236 l 169 246 l 178 249 l 186 236 z "},"Ф":{"ha":1375,"x_min":47,"x_max":1332,"o":"m 669 899 l 551 615 l 532 567 l 519 544 l 500 529 l 492 538 l 494 553 l 521 638 l 539 681 l 535 683 l 531 697 l 535 760 l 567 839 l 615 957 l 647 1024 l 658 1039 l 676 1046 l 689 1044 l 703 1032 l 701 1017 l 689 969 l 688 958 l 669 899 m 792 871 l 538 257 l 497 161 l 474 111 l 454 89 l 439 90 l 428 92 l 425 101 l 421 117 l 424 128 l 417 124 l 406 117 l 397 125 l 389 133 l 389 142 l 392 169 l 422 251 l 460 324 l 514 396 l 526 461 l 544 542 l 590 654 l 669 846 l 704 932 l 726 982 l 740 1006 l 754 1017 l 761 1025 l 779 1022 l 786 1021 l 788 1014 l 792 994 l 789 989 l 801 992 l 817 986 l 825 969 l 822 958 l 792 871 m 569 901 l 513 765 l 479 688 l 408 589 l 386 471 l 360 397 l 324 313 l 286 219 l 264 169 l 246 146 l 229 146 l 218 146 l 211 158 l 204 172 l 207 201 l 213 217 l 204 214 l 193 210 l 189 219 l 183 238 l 186 249 l 226 353 l 411 800 l 453 894 l 486 940 l 514 978 l 525 993 l 540 993 l 539 988 l 542 990 l 557 1000 l 567 1006 l 585 997 l 592 993 l 592 975 l 569 901 m 922 782 l 889 704 l 847 624 l 821 536 l 763 396 l 658 143 l 593 -6 l 581 -24 l 572 -32 l 558 -37 l 544 -42 l 535 -35 l 522 -26 l 519 -15 l 515 3 l 519 21 l 531 54 l 531 54 l 518 63 l 510 69 l 506 79 l 501 108 l 525 196 l 554 268 l 756 753 l 811 889 l 832 932 l 840 946 l 869 949 l 883 933 l 885 922 l 883 893 l 876 874 l 885 888 l 896 897 l 917 904 l 924 907 l 940 897 l 950 890 l 950 883 l 953 861 l 947 843 l 922 782 m 1132 747 l 868 111 l 840 46 l 799 -29 l 775 -44 l 765 -50 l 750 -46 l 738 -43 l 733 -32 l 726 -17 l 728 -6 l 731 7 l 725 4 l 713 7 l 700 19 l 700 26 l 703 49 l 717 88 l 740 146 l 817 329 l 838 381 l 851 407 l 872 424 l 883 411 l 885 400 l 878 329 l 933 403 l 951 522 l 983 626 l 993 649 l 982 650 l 972 669 l 974 689 l 993 756 l 1044 875 l 1053 892 l 1067 904 l 1075 911 l 1094 907 l 1101 906 l 1103 899 l 1106 883 l 1103 857 l 1097 843 l 1106 843 l 1129 835 l 1142 819 l 1143 807 l 1144 790 l 1132 747 m 404 810 l 211 346 l 183 276 l 165 240 l 143 221 l 132 224 l 121 225 l 115 238 l 110 253 l 113 271 l 129 328 l 132 335 l 133 343 l 135 371 l 175 469 l 314 804 l 340 865 l 350 885 l 371 900 l 376 889 l 376 889 l 393 900 l 408 893 l 419 888 l 419 874 l 421 858 l 404 810 m 311 849 l 251 700 l 154 468 l 131 410 l 118 386 l 117 381 l 104 354 l 96 360 l 99 365 l 93 367 l 75 375 l 67 397 l 72 501 l 168 738 l 236 867 l 272 890 l 288 897 l 311 888 l 311 879 l 311 849 m 981 783 l 958 729 l 946 703 l 931 681 l 921 681 l 910 681 l 908 692 l 907 707 l 915 736 l 957 835 l 975 858 l 982 867 l 985 865 l 986 867 l 1001 885 l 993 863 l 1004 857 l 1000 842 l 981 783 m 1257 678 l 1186 500 l 1067 213 l 1006 104 l 990 93 l 974 90 l 961 88 l 944 97 l 938 101 l 936 110 l 933 131 l 938 144 l 940 151 l 922 138 l 913 146 l 914 154 l 917 174 l 933 215 l 965 294 l 1135 701 l 1176 796 l 1204 817 l 1215 797 l 1211 779 l 1206 765 l 1219 772 l 1231 767 l 1246 760 l 1249 753 l 1260 732 l 1257 678 m 171 768 l 90 571 l 78 540 l 71 526 l 64 522 l 53 517 l 47 531 l 47 590 l 119 768 l 156 801 l 165 807 l 169 800 l 175 786 l 171 768 m 1308 408 l 1261 292 l 1225 215 l 1185 175 l 1169 176 l 1169 192 l 1172 203 l 1118 143 l 1100 138 l 1086 144 l 1075 149 l 1074 160 l 1074 190 l 1110 283 l 1239 594 l 1264 653 l 1281 678 l 1297 692 l 1310 683 l 1322 676 l 1325 665 l 1332 628 l 1329 572 l 1297 488 l 1308 496 l 1318 479 l 1317 464 l 1308 408 m 824 408 l 681 60 l 642 -19 l 622 -29 l 614 -32 l 614 -24 l 614 1 l 650 94 l 768 382 l 800 457 l 814 488 l 826 488 l 846 532 l 865 558 l 863 551 l 856 531 l 838 486 l 838 471 l 824 408 m 400 251 l 347 131 l 321 107 l 318 114 l 314 132 l 318 146 l 322 156 l 313 167 l 304 176 l 306 192 l 318 240 l 381 390 l 403 438 l 410 450 l 428 453 l 436 450 l 439 436 l 439 376 l 408 296 l 411 292 l 408 281 l 400 251 m 1293 314 l 1272 279 l 1264 274 l 1267 288 l 1283 333 l 1290 350 l 1307 356 l 1304 344 l 1293 314 z "},"Х":{"ha":1026,"x_min":-1,"x_max":992,"o":"m 974 893 l 889 740 l 851 683 l 835 676 l 840 694 l 858 739 l 929 910 l 958 961 l 969 972 l 981 968 l 992 964 l 990 947 l 974 893 m 386 790 l 317 622 l 292 565 l 283 549 l 264 540 l 251 542 l 233 556 l 229 569 l 235 642 l 244 667 l 233 663 l 219 665 l 203 682 l 200 696 l 201 740 l 224 803 l 258 888 l 289 943 l 299 954 l 326 968 l 346 964 l 357 963 l 360 951 l 365 933 l 358 908 l 357 906 l 358 907 l 378 907 l 390 900 l 403 882 l 404 868 l 386 790 m 236 858 l 196 764 l 165 739 l 149 749 l 147 764 l 158 814 l 157 810 l 144 806 l 125 806 l 115 818 l 108 840 l 121 913 l 146 951 l 156 960 l 167 963 l 183 967 l 193 957 l 204 947 l 204 929 l 199 908 l 207 921 l 224 936 l 235 935 l 250 932 l 251 915 l 236 858 m 754 893 l 653 647 l 472 210 l 397 54 l 379 31 l 365 25 l 351 21 l 347 31 l 340 46 l 342 54 l 331 33 l 319 22 l 301 15 l 290 11 l 276 15 l 261 19 l 256 33 l 250 47 l 253 58 l 258 85 l 329 256 l 489 642 l 575 846 l 638 944 l 663 960 l 676 960 l 692 960 l 697 950 l 706 936 l 703 918 l 704 919 l 726 936 l 751 929 l 753 921 l 754 893 m 894 879 l 782 610 l 746 529 l 714 444 l 665 324 l 608 192 l 599 172 l 585 160 l 576 153 l 565 160 l 553 168 l 553 176 l 553 199 l 569 246 l 551 217 l 538 208 l 504 199 l 493 196 l 490 208 l 489 221 l 497 244 l 554 382 l 725 792 l 775 911 l 799 944 l 806 953 l 825 960 l 839 956 l 853 942 l 851 929 l 843 901 l 853 924 l 861 938 l 876 947 l 886 954 l 894 946 l 907 936 l 906 922 l 894 879 m 74 889 l 69 915 l 90 938 l 107 926 l 104 915 l 93 893 l 74 889 m 535 778 l 440 549 l 272 142 l 239 64 l 201 8 l 190 -1 l 172 -6 l 161 -8 l 147 -3 l 135 4 l 132 15 l 128 33 l 129 40 l 129 39 l 119 46 l 110 53 l 111 60 l 115 82 l 136 138 l 176 233 l 250 407 l 293 496 l 322 585 l 379 722 l 408 793 l 428 838 l 440 856 l 463 858 l 464 851 l 464 836 l 458 806 l 451 790 l 457 794 l 476 792 l 518 793 l 542 807 l 540 800 l 535 778 m 772 238 l 742 164 l 721 113 l 699 64 l 689 53 l 678 61 l 679 64 l 668 65 l 656 68 l 653 83 l 649 97 l 653 113 l 663 149 l 679 188 l 664 158 l 653 146 l 642 147 l 640 149 l 625 113 l 614 94 l 619 108 l 636 150 l 632 150 l 631 158 l 629 179 l 635 197 l 657 253 l 715 396 l 733 436 l 746 457 l 767 464 l 778 454 l 778 439 l 756 371 l 760 381 l 771 400 l 799 406 l 813 390 l 813 375 l 793 299 l 790 292 l 792 293 l 789 282 l 772 238 m 22 86 l 143 272 l 174 318 l 182 331 l 185 324 l 188 313 l 183 299 l 142 200 l 78 46 l 58 13 l 44 3 l 35 -4 l 17 0 l 8 1 l 6 8 l -1 28 l 3 42 l 22 86 m 875 196 l 867 178 l 890 176 l 894 169 l 904 151 l 903 138 l 894 94 l 865 33 l 856 18 l 828 3 l 813 11 l 803 15 l 803 24 l 803 38 l 768 15 l 754 10 l 739 14 l 724 17 l 719 26 l 711 43 l 713 51 l 717 74 l 736 122 l 772 210 l 799 271 l 808 292 l 831 313 l 842 308 l 861 297 l 874 279 l 875 196 m 949 25 l 926 13 l 913 21 l 900 28 l 897 46 l 911 100 l 919 113 l 944 128 l 954 121 l 968 113 l 969 106 l 976 83 l 974 69 l 949 25 z "},"Ч":{"ha":1024,"x_min":42,"x_max":946,"o":"m 226 853 l 110 569 l 88 519 l 75 500 l 58 490 l 54 497 l 46 511 l 42 533 l 46 600 l 74 675 l 72 676 l 65 685 l 64 714 l 68 863 l 107 956 l 121 969 l 149 978 l 167 975 l 179 972 l 182 965 l 193 936 l 190 929 l 208 936 l 215 939 l 229 929 l 240 922 l 240 907 l 226 853 m 693 807 l 531 414 l 492 321 l 472 294 l 472 303 l 471 307 l 468 301 l 449 279 l 433 274 l 422 269 l 403 276 l 396 279 l 394 288 l 390 310 l 394 329 l 414 382 l 457 486 l 497 553 l 536 572 l 550 576 l 560 569 l 569 563 l 615 674 l 607 672 l 604 688 l 600 729 l 632 907 l 664 957 l 676 964 l 689 972 l 708 971 l 717 971 l 725 958 l 732 949 l 731 933 l 724 915 l 724 913 l 726 893 l 719 868 l 693 807 m 872 846 l 669 357 l 622 244 l 611 222 l 593 215 l 592 226 l 589 260 l 626 371 l 557 281 l 539 274 l 521 278 l 510 281 l 506 292 l 500 307 l 504 325 l 550 443 l 686 771 l 729 874 l 758 936 l 779 960 l 799 967 l 810 972 l 824 968 l 839 965 l 847 951 l 854 942 l 853 929 l 849 901 l 858 924 l 864 933 l 883 939 l 893 938 l 897 922 l 893 900 l 872 846 m 329 840 l 185 493 l 156 428 l 146 408 l 126 403 l 119 401 l 121 408 l 125 429 l 133 453 l 126 457 l 114 464 l 111 483 l 138 585 l 232 813 l 264 890 l 285 935 l 303 957 l 317 964 l 329 969 l 340 957 l 350 949 l 347 938 l 340 911 l 343 903 l 347 893 l 343 878 l 329 840 m 358 575 l 310 458 l 275 372 l 253 331 l 238 310 l 222 310 l 211 310 l 208 324 l 206 339 l 211 353 l 213 358 l 183 349 l 164 363 l 163 374 l 164 403 l 197 489 l 328 803 l 360 881 l 375 911 l 383 911 l 399 910 l 401 903 l 406 889 l 408 863 l 399 794 l 369 718 l 371 717 l 382 711 l 383 703 l 385 688 l 358 575 m 594 883 l 579 861 l 567 881 l 572 900 l 575 907 l 599 906 l 594 883 m 894 651 l 697 176 l 649 64 l 622 38 l 619 49 l 617 60 l 622 76 l 618 74 l 610 67 l 600 74 l 590 81 l 590 89 l 590 115 l 600 172 l 635 264 l 835 749 l 885 868 l 901 899 l 913 907 l 928 901 l 931 890 l 931 822 l 892 717 l 899 719 l 907 718 l 907 706 l 894 651 m 917 378 l 872 268 l 813 122 l 783 57 l 765 56 l 765 65 l 753 43 l 739 31 l 721 25 l 710 22 l 692 32 l 685 35 l 682 43 l 675 63 l 678 74 l 683 101 l 713 174 l 867 543 l 903 632 l 917 654 l 924 664 l 935 661 l 944 657 l 946 646 l 946 604 l 940 489 l 910 404 l 911 404 l 921 396 l 917 378 m 418 447 l 368 328 l 335 263 l 319 250 l 310 243 l 290 242 l 279 240 l 269 247 l 256 260 l 254 268 l 251 288 l 257 306 l 278 357 l 283 372 l 289 386 l 357 550 l 371 583 l 379 600 l 390 610 l 389 599 l 374 553 l 375 553 l 394 551 l 406 550 l 414 540 l 426 529 l 428 522 l 433 501 l 418 447 m 921 97 l 894 32 l 883 21 l 858 25 l 858 32 l 857 49 l 846 35 l 832 29 l 818 24 l 808 36 l 800 46 l 803 63 l 821 119 l 893 293 l 915 338 l 924 350 l 942 350 l 943 335 l 942 282 l 931 224 l 908 164 l 918 168 l 922 154 l 921 97 z "},"Ц":{"ha":1138,"x_min":60,"x_max":1104,"o":"m 928 856 l 647 179 l 614 101 l 575 31 l 564 18 l 546 11 l 535 7 l 521 13 l 510 17 l 506 28 l 501 43 l 503 47 l 503 46 l 492 35 l 474 26 l 463 22 l 447 24 l 433 26 l 426 36 l 417 50 l 417 57 l 418 78 l 435 126 l 469 211 l 513 292 l 553 314 l 568 317 l 596 304 l 597 296 l 603 278 l 638 336 l 651 394 l 668 451 l 679 476 l 675 474 l 672 481 l 667 500 l 665 525 l 665 592 l 669 676 l 696 754 l 732 843 l 761 911 l 781 951 l 817 978 l 831 983 l 846 981 l 861 978 l 869 964 l 876 951 l 875 939 l 872 929 l 879 939 l 903 956 l 918 954 l 931 954 l 940 942 l 947 932 l 946 917 l 928 856 m 700 806 l 669 735 l 654 724 l 647 721 l 644 728 l 640 758 l 672 863 l 679 878 l 679 882 l 675 900 l 681 950 l 692 968 l 714 975 l 724 950 l 719 935 l 715 921 l 728 925 l 736 907 l 731 886 l 700 806 m 251 828 l 124 519 l 100 465 l 89 446 l 71 429 l 69 436 l 69 458 l 100 547 l 106 561 l 96 576 l 97 660 l 167 868 l 204 944 l 215 960 l 240 975 l 257 974 l 269 972 l 272 965 l 281 944 l 278 933 l 271 911 l 278 904 l 274 886 l 251 828 m 401 751 l 322 528 l 176 176 l 139 88 l 118 42 l 99 19 l 83 22 l 71 25 l 68 36 l 61 54 l 60 78 l 101 232 l 89 239 l 88 247 l 85 268 l 85 313 l 99 419 l 154 561 l 235 751 l 281 865 l 314 935 l 347 964 l 361 971 l 381 967 l 389 965 l 393 958 l 401 940 l 400 931 l 394 904 l 386 883 l 389 882 l 400 879 l 401 871 l 404 856 l 404 814 l 401 751 m 101 969 l 99 960 l 96 953 l 93 946 l 96 957 l 101 969 m 990 728 l 982 643 l 915 471 l 783 153 l 719 25 l 690 4 l 675 3 l 660 1 l 651 11 l 640 22 l 640 29 l 640 51 l 644 61 l 643 60 l 635 51 l 625 56 l 614 61 l 617 72 l 622 97 l 689 258 l 903 774 l 954 896 l 969 926 l 982 932 l 997 921 l 996 914 l 994 892 l 974 835 l 974 832 l 981 833 l 988 817 l 989 790 l 990 728 m 144 847 l 113 768 l 86 744 l 85 763 l 103 831 l 106 835 l 94 824 l 82 839 l 83 854 l 93 899 l 108 925 l 122 929 l 132 929 l 135 914 l 131 893 l 142 911 l 165 918 l 165 906 l 144 847 m 408 531 l 400 446 l 344 301 l 261 100 l 203 7 l 185 -1 l 167 1 l 156 4 l 151 14 l 143 32 l 146 50 l 186 153 l 339 522 l 364 583 l 376 610 l 378 611 l 407 682 l 421 708 l 426 718 l 426 711 l 422 678 l 399 622 l 406 611 l 408 590 l 408 531 m 988 285 l 989 260 l 971 192 l 943 124 l 839 -126 l 819 -165 l 813 -179 l 789 -197 l 768 -194 l 756 -189 l 742 -171 l 740 -160 l 740 -126 l 767 -51 l 764 -47 l 754 -35 l 753 -19 l 769 101 l 910 439 l 946 528 l 967 575 l 992 590 l 1001 574 l 997 488 l 969 406 l 964 392 l 969 394 l 971 388 l 975 369 l 978 336 l 988 285 m 432 160 l 379 43 l 371 31 l 357 28 l 343 32 l 338 49 l 340 56 l 326 39 l 308 33 l 297 42 l 285 51 l 282 82 l 293 121 l 390 356 l 421 415 l 433 426 l 442 414 l 447 404 l 451 367 l 454 310 l 439 260 l 457 256 l 458 236 l 453 211 l 432 160 m 1049 147 l 993 14 l 958 -71 l 932 -132 l 922 -149 l 901 -167 l 890 -165 l 879 -162 l 878 -154 l 876 -133 l 881 -124 l 867 -126 l 871 -107 l 900 -33 l 999 206 l 1026 263 l 1039 279 l 1050 265 l 1047 257 l 1046 253 l 1065 260 l 1076 250 l 1076 235 l 1049 147 m 1068 -28 l 1044 -86 l 1013 -144 l 999 -153 l 982 -143 l 985 -132 l 986 -125 l 978 -142 l 965 -151 l 951 -157 l 947 -146 l 942 -135 l 947 -115 l 971 -56 l 1043 118 l 1071 178 l 1081 193 l 1097 193 l 1099 182 l 1100 163 l 1092 128 l 1067 68 l 1074 76 l 1086 61 l 1088 40 l 1068 -28 m 1049 -140 l 1042 -136 l 1046 -122 l 1053 -104 l 1047 -110 l 1053 -93 l 1068 -51 l 1076 -31 l 1093 -18 l 1092 -29 l 1083 -57 l 1076 -74 l 1072 -93 l 1065 -112 l 1049 -140 m 1082 -124 l 1097 -107 l 1104 -124 l 1096 -137 l 1088 -142 l 1078 -133 l 1082 -124 z "},"Ш":{"ha":1407,"x_min":69,"x_max":1346,"o":"m 1136 839 l 1032 590 l 1004 533 l 990 525 l 982 532 l 985 551 l 1008 614 l 1021 646 l 1019 650 l 1013 717 l 1021 810 l 1049 890 l 1074 947 l 1106 981 l 1119 990 l 1135 990 l 1151 990 l 1160 978 l 1169 965 l 1167 954 l 1157 918 l 1154 910 l 1160 907 l 1157 896 l 1136 839 m 615 829 l 585 754 l 565 710 l 554 683 l 547 669 l 539 661 l 525 656 l 521 667 l 517 678 l 517 689 l 522 718 l 571 846 l 569 850 l 579 921 l 601 960 l 613 971 l 624 968 l 639 965 l 636 949 l 626 919 l 636 917 l 638 900 l 615 829 m 303 868 l 140 475 l 100 382 l 76 361 l 75 368 l 69 399 l 92 511 l 110 554 l 101 553 l 97 568 l 99 650 l 135 763 l 182 874 l 219 946 l 231 960 l 253 968 l 265 965 l 279 951 l 278 935 l 281 940 l 303 943 l 313 938 l 319 917 l 315 903 l 303 868 m 375 796 l 160 278 l 108 154 l 92 131 l 83 122 l 79 133 l 75 146 l 81 167 l 107 231 l 101 226 l 97 238 l 90 256 l 90 275 l 126 411 l 300 832 l 344 933 l 367 958 l 376 965 l 388 961 l 403 957 l 404 938 l 388 882 l 400 874 l 396 856 l 375 796 m 1267 839 l 1047 308 l 963 104 l 943 64 l 935 51 l 922 56 l 924 68 l 932 97 l 929 92 l 897 35 l 883 22 l 867 15 l 856 13 l 842 18 l 829 24 l 825 39 l 821 53 l 825 68 l 842 113 l 879 204 l 913 269 l 957 314 l 972 335 l 985 408 l 996 482 l 1053 622 l 1153 864 l 1203 950 l 1217 961 l 1242 964 l 1254 958 l 1269 942 l 1269 929 l 1268 910 l 1258 885 l 1258 885 l 1264 894 l 1269 904 l 1279 908 l 1292 910 l 1288 894 l 1267 839 m 167 872 l 118 753 l 103 722 l 97 713 l 86 715 l 75 717 l 74 725 l 71 749 l 81 894 l 101 933 l 111 944 l 125 951 l 138 957 l 154 953 l 169 950 l 175 936 l 181 922 l 179 911 l 167 872 m 788 893 l 746 786 l 686 643 l 500 194 l 465 110 l 429 36 l 407 15 l 397 7 l 381 7 l 368 6 l 361 15 l 351 28 l 351 39 l 356 57 l 349 46 l 324 36 l 310 50 l 311 57 l 315 78 l 340 140 l 383 242 l 394 268 l 406 279 l 419 288 l 436 278 l 436 261 l 428 238 l 432 247 l 450 272 l 488 301 l 500 311 l 517 336 l 521 396 l 531 483 l 558 553 l 540 556 l 536 571 l 538 597 l 554 656 l 636 854 l 668 922 l 678 939 l 697 947 l 704 950 l 708 940 l 715 926 l 714 922 l 732 943 l 750 950 l 760 953 l 775 946 l 785 942 l 789 931 l 792 915 l 788 893 m 858 696 l 778 492 l 642 164 l 610 85 l 589 42 l 569 18 l 556 19 l 544 21 l 543 33 l 540 49 l 518 26 l 504 22 l 489 19 l 479 25 l 465 33 l 464 46 l 461 61 l 465 79 l 492 144 l 533 244 l 757 785 l 790 867 l 814 918 l 825 938 l 839 946 l 849 953 l 860 947 l 874 940 l 879 926 l 872 833 l 844 765 l 857 775 l 861 760 l 858 696 m 1326 549 l 1318 464 l 1264 317 l 1181 119 l 1124 21 l 1108 11 l 1092 10 l 1079 10 l 1071 17 l 1058 26 l 1057 35 l 1054 53 l 1026 28 l 1010 25 l 997 22 l 979 32 l 972 36 l 969 47 l 964 65 l 967 81 l 992 147 l 1025 229 l 1247 767 l 1282 849 l 1301 892 l 1314 915 l 1326 917 l 1338 917 l 1340 908 l 1346 882 l 1344 781 l 1293 628 l 1311 643 l 1321 631 l 1325 608 l 1326 549 m 992 833 l 981 811 l 969 807 l 961 807 l 963 824 l 978 878 l 986 896 l 1007 911 l 1015 897 l 1011 882 l 992 833 m 411 775 l 400 689 l 374 615 l 335 519 l 199 192 l 161 103 l 140 56 l 126 35 l 113 26 l 103 19 l 94 26 l 82 35 l 81 43 l 79 65 l 97 114 l 135 206 l 307 619 l 358 746 l 376 786 l 385 804 l 394 810 l 400 821 l 397 811 l 401 815 l 404 807 l 411 775 m 829 442 l 696 118 l 661 40 l 642 22 l 639 29 l 636 50 l 628 51 l 619 51 l 619 60 l 624 92 l 667 194 l 818 560 l 854 646 l 858 656 l 869 660 l 878 658 l 881 643 l 879 615 l 864 561 l 844 514 l 846 514 l 844 499 l 829 442 m 371 489 l 226 140 l 190 58 l 172 50 l 175 56 l 164 44 l 154 46 l 156 53 l 163 82 l 206 189 l 357 554 l 394 639 l 399 650 l 411 651 l 418 650 l 418 638 l 404 582 l 386 540 l 386 539 l 371 489 m 390 290 l 342 171 l 294 58 l 281 35 l 274 25 l 264 19 l 250 14 l 244 29 l 240 40 l 246 63 l 250 71 l 238 78 l 239 86 l 240 103 l 250 131 l 274 186 l 382 449 l 413 521 l 425 544 l 447 544 l 447 536 l 449 521 l 426 433 l 400 368 l 401 347 l 390 290 m 871 200 l 835 111 l 814 64 l 800 40 l 789 38 l 776 39 l 778 47 l 775 44 l 761 40 l 747 38 l 728 46 l 721 50 l 719 57 l 715 81 l 728 115 l 754 181 l 843 394 l 875 469 l 894 483 l 906 474 l 906 463 l 907 363 l 900 308 l 878 251 l 888 249 l 885 238 l 871 200 m 1307 226 l 1263 100 l 1231 31 l 1217 13 l 1200 3 l 1190 -4 l 1171 3 l 1163 6 l 1161 14 l 1158 36 l 1165 57 l 1190 119 l 1261 289 l 1276 324 l 1296 372 l 1321 422 l 1332 433 l 1331 421 l 1310 364 l 1304 349 l 1311 333 l 1307 226 m 1314 51 l 1288 43 l 1274 56 l 1275 63 l 1278 82 l 1283 103 l 1301 147 l 1311 168 l 1331 179 l 1335 171 l 1343 153 l 1342 132 l 1314 51 z "}}}
